<svg xmlns="http://www.w3.org/2000/svg" width="40" height="40" viewBox="0 0 40 40">
  <path id="Path_22581" data-name="Path 22581" d="M37.833,2H6.167A4.179,4.179,0,0,0,2,6.167V31.083A4.179,4.179,0,0,0,6.167,35.25H16.792v5.083H15.333a.833.833,0,1,0,0,1.667H28.917a.833.833,0,1,0,0-1.667h-1.5V35.25H37.833A4.179,4.179,0,0,0,42,31.083V6.167A4.179,4.179,0,0,0,37.833,2ZM3.667,19.458H8.792a.823.823,0,0,0,.583-.25l5.708-5.542,4.625,8.75a.943.943,0,0,0,.708.458h.042a.819.819,0,0,0,.708-.375l3.5-5.5,3.542,4.75a.89.89,0,0,0,.708.333.8.8,0,0,0,.667-.375l3.458-5.125,2.292,2.708a.886.886,0,0,0,.625.292h4.375v6.875H3.667Zm2.5-15.792H37.833a2.507,2.507,0,0,1,2.5,2.5V17.875h-4l-2.792-3.25a.829.829,0,0,0-.667-.292.774.774,0,0,0-.625.375l-3.417,5.083L25.25,15a.844.844,0,0,0-1.375.042L20.5,20.333l-4.458-8.458a.757.757,0,0,0-.625-.417.855.855,0,0,0-.708.208l-6.25,6.125H3.667V6.167A2.507,2.507,0,0,1,6.167,3.667ZM25.75,40.333H18.458V35.25H25.75Zm12.083-6.75H6.167a2.507,2.507,0,0,1-2.5-2.5V28.125H40.333v2.958A2.507,2.507,0,0,1,37.833,33.583Z" transform="translate(-2 -2)" fill="#fff"/>
</svg>
