<svg xmlns="http://www.w3.org/2000/svg" xmlns:xlink="http://www.w3.org/1999/xlink" width="41.355" height="41.355" viewBox="0 0 41.355 41.355">
  <defs>
    <clipPath id="clip-path">
      <rect width="41.355" height="41.355" fill="none"/>
    </clipPath>
  </defs>
  <g id="noun_Medicine_2723407" clip-path="url(#clip-path)">
    <g id="noun_Medicine_2723407-2" data-name="noun_Medicine_2723407" transform="translate(0 0)">
      <g id="Group_934" data-name="Group 934" transform="translate(0 0)">
        <path id="Path_4394" data-name="Path 4394" d="M39.687,1H19.677a2.684,2.684,0,0,0-2.668,2.668V8.337H4.335a2.013,2.013,0,0,0-2,2v2.668a2.013,2.013,0,0,0,2,2v3.335A3.354,3.354,0,0,0,1,21.678v18.01a2.684,2.684,0,0,0,2.668,2.668H39.687a2.684,2.684,0,0,0,2.668-2.668V3.668A2.684,2.684,0,0,0,39.687,1ZM3.668,13.006V10.338a.671.671,0,0,1,.667-.667H7v1.334a.667.667,0,1,0,1.334,0V9.671h2.668v1.334a.667.667,0,0,0,1.334,0V9.671h2.668v1.334a.667.667,0,0,0,1.334,0V9.671H19.01v1.334a.667.667,0,0,0,1.334,0V9.671h2.674a.664.664,0,0,1,.661.661v2.674a.671.671,0,0,1-.667.667H4.335A.671.671,0,0,1,3.668,13.006ZM24.621,8.613a2.869,2.869,0,0,1-.27.239c-.011-.009-.023-.016-.034-.025a1.912,1.912,0,0,0-.233-.174l-.03-.021a2.044,2.044,0,0,0-.291-.145c-.028-.011-.057-.02-.085-.03a1.871,1.871,0,0,0-.239-.068c-.031-.007-.062-.015-.093-.02a1.994,1.994,0,0,0-.334-.031H21.986a2.393,2.393,0,0,1,.75-1.61c.768-.767,1.848-.984,2.359-.474S25.389,7.845,24.621,8.613ZM5.669,15.007H21.678v3.335H5.669ZM4.335,19.677H23.012a2.013,2.013,0,0,1,2,2v1.334H2.334V21.678A2.013,2.013,0,0,1,4.335,19.677Zm-2,4.669H25.013V37.019H2.334ZM17.676,41.021H3.668a1.341,1.341,0,0,1-1.334-1.334V38.353H25.013v1.334a1.341,1.341,0,0,1-1.334,1.334Zm23.346-1.334a1.341,1.341,0,0,1-1.334,1.334H25.976a2.639,2.639,0,0,0,.371-1.334V21.678a3.354,3.354,0,0,0-3.335-3.335V15.007a2.013,2.013,0,0,0,2-2V10.338a2.069,2.069,0,0,0-.036-.3,4.032,4.032,0,0,0,.588-.482c1.3-1.3,1.513-3.205.474-4.245s-2.944-.828-4.245.474a3.714,3.714,0,0,0-1.135,2.553H18.343V3.668a1.341,1.341,0,0,1,1.334-1.334H39.687a1.341,1.341,0,0,1,1.334,1.334Z" transform="translate(-1 -1)" fill="#fff"/>
        <path id="Path_4395" data-name="Path 4395" d="M43.667,5A.67.67,0,0,0,43,5.667V40.352a.667.667,0,1,0,1.334,0V5.667A.67.67,0,0,0,43.667,5Z" transform="translate(-14.985 -2.332)" fill="#fff"/>
        <path id="Path_4396" data-name="Path 4396" d="M51.725,6.492a4,4,0,0,0-3.234,3.234,2.466,2.466,0,0,0,.637,2.119,2.378,2.378,0,0,0,1.7.667,3.114,3.114,0,0,0,.417-.03,4,4,0,0,0,3.234-3.234,2.46,2.46,0,0,0-.637-2.119A2.467,2.467,0,0,0,51.725,6.492Zm1.435,2.567a2.672,2.672,0,0,1-2.1,2.1,1.164,1.164,0,0,1-.987-.259,1.165,1.165,0,0,1-.259-.987,2.672,2.672,0,0,1,2.1-2.1,1.7,1.7,0,0,1,.233-.017,1.046,1.046,0,0,1,.754.276A1.164,1.164,0,0,1,53.161,9.058Z" transform="translate(-16.801 -2.816)" fill="#fff"/>
        <path id="Path_4397" data-name="Path 4397" d="M51.725,20.486a4,4,0,0,0-3.234,3.234,2.466,2.466,0,0,0,.637,2.119,2.378,2.378,0,0,0,1.7.667,3.113,3.113,0,0,0,.417-.03,4.005,4.005,0,0,0,3.234-3.235,2.335,2.335,0,0,0-2.756-2.755Zm1.435,2.567a2.672,2.672,0,0,1-2.1,2.1,1.006,1.006,0,0,1-.271.037,1.017,1.017,0,0,1-1.012-1.012,1.006,1.006,0,0,1,.037-.271,2.672,2.672,0,0,1,2.1-2.1,1.7,1.7,0,0,1,.233-.017,1.046,1.046,0,0,1,.754.276A1.164,1.164,0,0,1,53.161,23.053Z" transform="translate(-16.801 -7.473)" fill="#fff"/>
        <path id="Path_4398" data-name="Path 4398" d="M51.725,34.486a4,4,0,0,0-3.234,3.234,2.466,2.466,0,0,0,.637,2.119,2.378,2.378,0,0,0,1.7.667,3.115,3.115,0,0,0,.417-.03,4.005,4.005,0,0,0,3.234-3.235,2.335,2.335,0,0,0-2.756-2.755Zm1.435,2.567a2.672,2.672,0,0,1-2.1,2.1,1.006,1.006,0,0,1-.271.037,1.017,1.017,0,0,1-1.012-1.012,1.006,1.006,0,0,1,.037-.271,2.672,2.672,0,0,1,2.1-2.1,1.7,1.7,0,0,1,.233-.017,1.046,1.046,0,0,1,.754.276A1.164,1.164,0,0,1,53.161,37.053Z" transform="translate(-16.801 -12.134)" fill="#fff"/>
        <path id="Path_4399" data-name="Path 4399" d="M51.725,48.486a4,4,0,0,0-3.234,3.234,2.466,2.466,0,0,0,.637,2.119,2.378,2.378,0,0,0,1.7.667,3.113,3.113,0,0,0,.417-.03,4.005,4.005,0,0,0,3.234-3.235,2.335,2.335,0,0,0-2.756-2.755Zm1.435,2.567a2.672,2.672,0,0,1-2.1,2.1,1.006,1.006,0,0,1-.271.037,1.017,1.017,0,0,1-1.012-1.012,1.006,1.006,0,0,1,.037-.271,2.672,2.672,0,0,1,2.1-2.1,1.7,1.7,0,0,1,.233-.017,1.046,1.046,0,0,1,.754.276A1.164,1.164,0,0,1,53.161,51.053Z" transform="translate(-16.801 -16.796)" fill="#fff"/>
        <path id="Path_4400" data-name="Path 4400" d="M21.671,41.168h-2v-2A.67.67,0,0,0,19,38.5H16.335a.67.67,0,0,0-.667.667v2h-2a.67.67,0,0,0-.667.667V44.5a.67.67,0,0,0,.667.667h2v2a.67.67,0,0,0,.667.667H19a.67.67,0,0,0,.667-.667v-2h2a.67.67,0,0,0,.667-.667V41.835A.67.67,0,0,0,21.671,41.168ZM21,43.836H19a.67.67,0,0,0-.667.667v2H17v-2a.67.67,0,0,0-.667-.667h-2V42.5h2A.67.67,0,0,0,17,41.835v-2h1.334v2A.67.67,0,0,0,19,42.5h2Z" transform="translate(-4.996 -13.487)" fill="#fff"/>
      </g>
    </g>
  </g>
</svg>
