<svg id="noun_Spa_massage_3688849" data-name="noun_Spa massage_3688849" xmlns="http://www.w3.org/2000/svg" width="40.216" height="40.409" viewBox="0 0 40.216 40.409">
  <path id="Path_4372" data-name="Path 4372" d="M56.216,29.309a4.7,4.7,0,0,0-4.055-4.65,3.349,3.349,0,1,0-5.312-.034,4.663,4.663,0,0,0-3,1.366l-2.17,2.17h0l-.042.042-2.363,2.84a3.348,3.348,0,0,0-.042-1.441l-.411-1.634,3.971-13.9L41.5,13.7,37.482,27.776a.682.682,0,0,0-.008.344l.452,1.8a2.037,2.037,0,0,1-.1,1.282l-.595,1.4a2.009,2.009,0,0,1-2.639,1.056h0l-.335-.142a2.015,2.015,0,0,1-1.2-2.136l.209-1.475a2.038,2.038,0,0,1,.871-1.391l1.014-.679a.687.687,0,0,0,.293-.461l2.011-13.405-1.324-.2L34.164,26.879l-.762.511A3.344,3.344,0,0,0,31.944,29.7l-.034.26a2.355,2.355,0,0,0-.243-.008H30.293L30.26,29.7A3.327,3.327,0,0,0,28.8,27.39l-.762-.511L26.046,13.792l-1.324.2L26.733,27.4a.676.676,0,0,0,.293.461l1.014.679a1.982,1.982,0,0,1,.871,1.391L29.12,31.4a2.021,2.021,0,0,1-1.2,2.136l-.335.142a2.009,2.009,0,0,1-2.639-1.056h0l-.595-1.4a1.981,1.981,0,0,1-.1-1.282l.452-1.8A.68.68,0,0,0,24.7,27.8L20.675,13.725l-1.29.369,3.971,13.9-.411,1.634a2.605,2.605,0,0,0-.067.369H16v1.341h6.962a4.334,4.334,0,0,0,.151.427l.595,1.4a3.351,3.351,0,0,0,4.39,1.768.008.008,0,0,0,.008-.008l.335-.142a3.007,3.007,0,0,0,.285-.142V44.725H16v1.341H30.226a3.378,3.378,0,0,0,1.248-.243l2.463-.989,2.254,2.254h0A3.687,3.687,0,0,0,37.784,54.1H55.546a.672.672,0,0,0,.67-.67V43.384a.672.672,0,0,0-.67-.67H54.071a6.433,6.433,0,0,0,.955-.955,3.291,3.291,0,0,0,.62-2.84,4.65,4.65,0,0,0,.57-2.237V29.309Zm-6.7-8.713A2.011,2.011,0,1,1,47.5,22.606,2.006,2.006,0,0,1,49.513,20.6Zm-4.725,6.342a3.355,3.355,0,0,1,2.371-.98h4.365a3.35,3.35,0,0,1,3.351,3.351v7.373a3.35,3.35,0,0,1-3.351,3.351h0a3.335,3.335,0,0,0,.67-2.011V32.66a3.35,3.35,0,0,0-3.351-3.351H47.586l-4.131-1.031ZM30.972,44.582a2.069,2.069,0,0,1-.746.142h-.151V40.98l2.832,2.832Zm-.9-5.5V33.272a3.29,3.29,0,0,0,.385-1.952h1.232A3.363,3.363,0,0,0,33.7,34.755l.335.142a3.359,3.359,0,0,0,4.315-1.567h.427a.665.665,0,0,0,.511-.243l3.083-3.695,4.952,1.24a.515.515,0,0,0,.159.017h1.341a2.017,2.017,0,0,1,2.011,2.011v5.362a2.017,2.017,0,0,1-2.011,2.011H43.238a2.009,2.009,0,0,1-1.424-.586L39.25,36.883a.664.664,0,0,0-.478-.193H35.027l-.478-.478-.947.947,5.429,5.429a2.009,2.009,0,0,0,1.424.586,2.052,2.052,0,0,0,.67-.117l4.725-1.684h5.672a4.682,4.682,0,0,0,2.706-.863,2.017,2.017,0,0,1-.251.4,4.745,4.745,0,0,1-3.737,1.793h-.059a.823.823,0,0,0-.285.059l-8.177,3.787a1.975,1.975,0,0,1-.846.184H38.554a2.009,2.009,0,0,1-1.424-.586Zm12.207,2.145-1.584.561a.666.666,0,0,1-.7-.159l-3.619-3.611h2.128l2.371,2.371a3.282,3.282,0,0,0,1.4.838ZM54.875,52.768H37.784a2.346,2.346,0,1,1,0-4.692H54.875Zm0-8.713v2.681H44.52l5.815-2.681c.176,0,.352-.017.519-.034v.034Z" transform="translate(-16 -13.7)" fill="#00b4d8"/>
  <rect id="Rectangle_14" data-name="Rectangle 14" width="1.341" height="2.681" transform="translate(31.502 18.29)" fill="#00b4d8"/>
  <rect id="Rectangle_15" data-name="Rectangle 15" width="1.341" height="2.681" transform="translate(31.502 22.311)" fill="#00b4d8"/>
  <path id="Path_4373" data-name="Path 4373" d="M336.93,259.636a1.656,1.656,0,0,0,1.751-.159l1.072-.8-.8-1.072-1.072.8a.334.334,0,0,1-.469-.067.341.341,0,0,1-.067-.2H336A1.676,1.676,0,0,0,336.93,259.636Z" transform="translate(-309.189 -237.165)" fill="#00b4d8"/>
  <path id="Path_4374" data-name="Path 4374" d="M310.355,246.927a1.92,1.92,0,0,1,.117-1.919l.511-.762-1.114-.746-.511.762a3.264,3.264,0,0,0-.2,3.259Z" transform="translate(-284.281 -224.247)" fill="#00b4d8"/>
  <path id="Path_4375" data-name="Path 4375" d="M52.692,426.011H51.351V424H50.011v2.011H48.67a.672.672,0,0,0-.67.67v2.681a.672.672,0,0,0,.67.67h4.022a.672.672,0,0,0,.67-.67v-2.681A.672.672,0,0,0,52.692,426.011Zm-.67,2.681H49.341v-1.341h2.681Z" transform="translate(-45.319 -389.624)" fill="#00b4d8"/>
  <path id="Path_4376" data-name="Path 4376" d="M134.7,416H128.67a.672.672,0,0,0-.67.67v.394a2.961,2.961,0,0,0,.553,1.726,6.95,6.95,0,0,0-.553,2.731v.511a.672.672,0,0,0,.67.67H134.7a.672.672,0,0,0,.67-.67v-.511a7.1,7.1,0,0,0-.553-2.731,2.961,2.961,0,0,0,.553-1.726v-.394A.672.672,0,0,0,134.7,416Zm-5.362,5.362a5.706,5.706,0,0,1,.595-2.379.675.675,0,0,0-.126-.771,1.631,1.631,0,0,1-.452-.863H134a1.63,1.63,0,0,1-.452.863.677.677,0,0,0-.126.771,5.706,5.706,0,0,1,.595,2.379Z" transform="translate(-118.616 -382.294)" fill="#00b4d8"/>
</svg>
