<svg xmlns="http://www.w3.org/2000/svg" width="31.594" height="42.935" viewBox="0 0 31.594 42.935">
  <g id="noun_counselor_3857482" transform="translate(0.15 0.172)">
    <path id="Path_4366" data-name="Path 4366" d="M28.462,54.759h.672a7.108,7.108,0,0,1-1.472-1.11L21.007,56.4c-.154.059-3.775,1.486-4.005,4.685,0,.016,0,.032,0,.048V72.737a.666.666,0,1,0,1.332,0V61.154c.187-2.336,3.125-3.5,3.168-3.521Z" transform="translate(-17 -35.788)" fill="#00b4d8" stroke="#00b4d8" stroke-width="0.3"/>
    <path id="Path_4367" data-name="Path 4367" d="M86.73,61.108c-.231-3.2-3.854-4.613-3.991-4.666L76.081,53.71A7.071,7.071,0,0,1,74.62,54.8h.609l7.019,2.88c.03.011,2.965,1.167,3.152,3.5v11.6a.666.666,0,1,0,1.332,0V61.156C86.731,61.14,86.731,61.123,86.73,61.108Z" transform="translate(-55.437 -35.829)" fill="#00b4d8" stroke="#00b4d8" stroke-width="0.3"/>
    <path id="Path_4368" data-name="Path 4368" d="M43.4,10.509c.381,3.135,1.426,7.383,6.075,8.081a6.261,6.261,0,0,0,1.092-.008c4.547-.719,5.6-4.692,6.015-8.072.041-.334.089-.67.137-1.005.318-2.23.648-4.535-.921-6.569A7.053,7.053,0,0,0,50.8.018c-.249-.024-1.372-.025-1.662.005A7.046,7.046,0,0,0,44.18,2.936c-1.569,2.033-1.239,4.338-.921,6.568C43.307,9.84,43.355,10.176,43.4,10.509Zm1.839-6.759a5.693,5.693,0,0,1,4.04-2.4c.157-.016,1.256-.018,1.395,0A5.7,5.7,0,0,1,54.74,3.75c1.225,1.588.949,3.52.657,5.567-.049.344-.1.689-.14,1.032-.535,4.391-2,6.46-4.9,6.919a1.854,1.854,0,0,1-.679.006c-2.9-.435-4.425-2.571-4.954-6.926-.042-.343-.091-.687-.14-1.032-.292-2.046-.568-3.979.657-5.567Z" transform="translate(-34.34 0)" fill="#00b4d8" stroke="#00b4d8" stroke-width="0.3"/>
    <path id="Path_4369" data-name="Path 4369" d="M61,95.984H57.666a.666.666,0,1,0,0,1.332H61a.666.666,0,1,0,0-1.332Z" transform="translate(-43.683 -64.03)" fill="#00b4d8" stroke="#00b4d8" stroke-width="0.3"/>
    <path id="Path_4370" data-name="Path 4370" d="M50.639,81.322H48.975V76.661a2,2,0,0,0-2-2h-2V74a2,2,0,0,0-2-2H38.322a2,2,0,0,0-2,2v.666h-2a2,2,0,0,0-2,2v.918l-2.122-2.97a.666.666,0,1,0-1.084.774l3.205,4.487v7.444a.666.666,0,0,0,1.332,0V76.661A.667.667,0,0,1,34.327,76H46.977a.667.667,0,0,1,.666.666v4.746a3.422,3.422,0,0,0,0,6.487v2.083a.666.666,0,0,0,1.332,0v-2h1.665a.666.666,0,0,0,.666-.666V81.988a.666.666,0,0,0-.666-.666Zm-6.991-6.658H37.656V74a.666.666,0,0,1,.666-.666h4.661a.666.666,0,0,1,.666.666Zm6.325,11.985H48.309a2.031,2.031,0,0,1,0-3.995h1.665Z" transform="translate(-25.005 -48.03)" fill="#00b4d8" stroke="#00b4d8" stroke-width="0.3"/>
  </g>
</svg>
