<svg xmlns="http://www.w3.org/2000/svg" width="40.541" height="43.292" viewBox="0 0 40.541 43.292">
  <g id="noun_green_tea_1174646" data-name="noun_green tea_1174646" transform="translate(0.175 0.15)">
    <path id="Path_4391" data-name="Path 4391" d="M48,23.309V15.635A5.642,5.642,0,0,0,42.368,10H31.685a5.641,5.641,0,0,0-5.635,5.635v7.674a16.744,16.744,0,0,0-3.787,4.645c-.945-.24-3.315-1.014-3.752-2.83a.538.538,0,0,0-.523-.412H14.238a.537.537,0,0,0-.535.485c-.01.106-.939,10.671,7.468,16.657A16.862,16.862,0,1,0,48,23.309ZM35.179,20.466a2.207,2.207,0,0,0,3.7,0,15.711,15.711,0,0,1,9.075,4.247H26.1A15.7,15.7,0,0,1,35.179,20.466Zm1.849-.073a1.139,1.139,0,1,1,1.139-1.139A1.14,1.14,0,0,1,37.028,20.393Zm-9.9-4.758a4.565,4.565,0,0,1,4.56-4.56H42.368a4.565,4.565,0,0,1,4.56,4.56v6.831a16.807,16.807,0,0,0-7.7-3.04c0-.058.017-.113.017-.172a2.214,2.214,0,1,0-4.427,0c0,.059.013.114.017.171a16.8,16.8,0,0,0-7.706,3.04v-6.83ZM14.748,25.787h2.844c.728,1.955,3,2.824,4.173,3.149A16.941,16.941,0,0,0,20.641,40.08C14.877,35.126,14.688,27.737,14.748,25.787Zm22.28,26.13A15.816,15.816,0,0,1,22.977,28.9a.514.514,0,0,0,.087-.164,15.667,15.667,0,0,1,2.016-2.952H48.973a15.807,15.807,0,0,1-11.946,26.13Z" transform="translate(-13.668 -10)" fill="#00b4d8" stroke="#00b4d8" stroke-width="0.3"/>
    <path id="Path_4392" data-name="Path 4392" d="M57.161,53.291a.537.537,0,0,0-.394-.121c-.357.033-3.528.372-4.693,1.775a3.039,3.039,0,0,0-.5.889,16.591,16.591,0,0,0-4.459-.77.53.53,0,0,0-.55.525c0,.191-.1,4.714,1.586,6.479a5.786,5.786,0,0,0,4.192,1.423,9.957,9.957,0,0,0,1.732-.145.543.543,0,0,0,.063-.021.423.423,0,0,0,.05-.017.536.536,0,0,0,.154-.1l0,0s.005-.01.01-.014a.522.522,0,0,0,.1-.139A.5.5,0,0,0,54.473,63a.419.419,0,0,0,.018-.042,9.045,9.045,0,0,0,.224-3.272,3.562,3.562,0,0,0,1.754-1.1c1.166-1.4.917-4.581.885-4.939A.54.54,0,0,0,57.161,53.291ZM52.9,55.632A4.918,4.918,0,0,1,55.362,54.5l-2.088,2.258a4.205,4.205,0,0,0-.707-.481A2.045,2.045,0,0,1,52.9,55.632Zm-4.458.612c1.474.174,3.455.59,4.287,1.463h0a4.993,4.993,0,0,1,.907,3.981Zm.486,5.084C48.1,60.46,47.782,58.478,47.678,57l5.155,5.4C51.7,62.464,49.919,62.367,48.929,61.328Zm5.551-2.682a4.6,4.6,0,0,0-.5-1.068l2.336-2.526a5.269,5.269,0,0,1-.672,2.858A2.471,2.471,0,0,1,54.479,58.646Z" transform="translate(-28.884 -29.969)" fill="#00b4d8" stroke="#00b4d8" stroke-width="0.3"/>
    <path id="Path_4393" data-name="Path 4393" d="M54.465,44.294a5.905,5.905,0,0,0-7.114,2.286,5.905,5.905,0,0,0-7.115-2.286c-2.625,1.043-5,4.164-4.028,8.552,1.631,7.327,10.557,11.135,10.936,11.294a.541.541,0,0,0,.415,0c.379-.159,9.3-3.967,10.936-11.293C59.47,48.458,57.09,45.337,54.465,44.294Zm2.979,8.318c-1.378,6.191-8.756,9.83-10.093,10.443-1.338-.612-8.715-4.243-10.094-10.443-.84-3.773,1.161-6.439,3.375-7.319a4.85,4.85,0,0,1,1.779-.344,5.186,5.186,0,0,1,4.478,2.878.559.559,0,0,0,.924,0c1.783-2.992,4.4-3.27,6.256-2.534C56.284,46.173,58.284,48.839,57.444,52.613Z" transform="translate(-23.991 -25.668)" fill="#00b4d8" stroke="#00b4d8" stroke-width="0.3"/>
  </g>
</svg>
