<svg xmlns="http://www.w3.org/2000/svg" width="42.613" height="42.613" viewBox="0 0 42.613 42.613">
  <g id="Group_935" data-name="Group 935" transform="translate(0 0)">
    <path id="Path_4401" data-name="Path 4401" d="M34.178,1a9.364,9.364,0,0,0-6.373,2.477A9.42,9.42,0,0,0,13.343,5.6,2.138,2.138,0,0,0,9.71,4.377L6.9,7.186H4.437a3.437,3.437,0,0,0-.687,6.8V40.177a3.437,3.437,0,1,0,6.873,0V35.366a.688.688,0,0,1,.687-.687h3.437V33.3H11.31a2.064,2.064,0,0,0-2.062,2.062v4.811a2.062,2.062,0,1,1-4.124,0V14.059H6.9L9.71,16.867A2.137,2.137,0,0,0,13.346,15.6a9.426,9.426,0,0,0,1.92,2.283L27.118,28.12v4.5a.688.688,0,0,1-.687.687H24.369v1.375h2.062a2.064,2.064,0,0,0,2.062-2.062v-4.5L40.345,17.884a9.428,9.428,0,0,0,3.269-7.141v-.307A9.446,9.446,0,0,0,34.178,1Zm-31.8,9.622A2.064,2.064,0,0,1,4.437,8.56H6.5v4.124H4.437A2.064,2.064,0,0,1,2.375,10.622ZM12,15.35a.771.771,0,0,1-1.316.545L7.873,13.087V8.158l2.808-2.808A.771.771,0,0,1,12,5.894V15.35Zm8.248-8.165a2.062,2.062,0,1,1,2.062,2.062A2.064,2.064,0,0,1,20.245,7.186Zm11,0A2.062,2.062,0,1,1,33.3,9.248,2.064,2.064,0,0,1,31.242,7.186Zm6.873,10.807-4.169,3.6a6.2,6.2,0,0,0-3.82-5.017,3.4,3.4,0,0,0,.161-4.882,4.8,4.8,0,0,1,7.828,3.739Zm-5.5,4.749L27.805,26.9l-4.811-4.155v-.435a4.811,4.811,0,0,1,9.622,0Zm-2.749-8.683A2.062,2.062,0,1,1,27.805,12,2.064,2.064,0,0,1,29.867,14.059Zm-4.383,2.518a6.2,6.2,0,0,0-3.82,5.017l-4.169-3.6v-2.56a4.8,4.8,0,0,1,7.828-3.739,3.4,3.4,0,0,0,.161,4.882Zm16.755-5.834A8.054,8.054,0,0,1,39.49,16.8V15.434A6.193,6.193,0,0,0,35.625,9.7a3.437,3.437,0,1,0-4.638,0,6.19,6.19,0,0,0-1.868,1.179,3.408,3.408,0,0,0-2.627,0,6.19,6.19,0,0,0-1.868-1.179,3.436,3.436,0,1,0-4.638,0,6.193,6.193,0,0,0-3.865,5.73V16.8a8.054,8.054,0,0,1-2.749-6.059v-.307a8.061,8.061,0,0,1,13.761-5.7l.672.672.673-.672a8.061,8.061,0,0,1,13.761,5.7Z" transform="translate(-1 -1)" fill="#00b4d8"/>
    <rect id="Rectangle_18" data-name="Rectangle 18" width="1.42" height="3.788" transform="translate(15.151 30.871)" fill="#00b4d8"/>
    <rect id="Rectangle_19" data-name="Rectangle 19" width="1.42" height="3.788" transform="translate(17.992 30.871)" fill="#00b4d8"/>
    <rect id="Rectangle_20" data-name="Rectangle 20" width="1.42" height="3.788" transform="translate(20.833 30.871)" fill="#00b4d8"/>
  </g>
</svg>
