<svg id="noun_Reflexology_2968662" xmlns="http://www.w3.org/2000/svg" width="42.642" height="42.594" viewBox="0 0 42.642 42.594">
  <path id="Path_4363" data-name="Path 4363" d="M24.825-.091a2.725,2.725,0,0,0-2.586,2.337C22-.052,19.129-.225,18.3,2.038A2.094,2.094,0,0,0,20,5.047,2.323,2.323,0,0,0,22.09,3.432c.185-.5.052-.5.148-.071.451,2.028,2.974,2.291,4.155.315.445,2.018,2.834,2.385,4.232.682.026,2.295,2.35,3.325,4.367,2.1a3.219,3.219,0,0,0,3,4.472c3.575,0,6.085-4.577,3.726-6.937a3.785,3.785,0,0,0-4.935,0C37.55.64,33.494-.735,31.364,2.175,31.236-.416,28.1-.838,26.75,1.5a1.952,1.952,0,0,0-1.925-1.6ZM24.79,1.323c.642,0,.772.868.458,1.508-.234.476-.811.952-1.278.724s-.45-.961-.213-1.452a1.292,1.292,0,0,1,1.033-.78Zm4.4.054a.748.748,0,0,1,.75.728c.171,1.122-1.047,2.262-1.805,1.825A1.286,1.286,0,0,1,27.986,2.2a1.514,1.514,0,0,1,1.207-.825Zm-8.8.465c.42,0,.543.623.368,1.1-.142.379-.536.79-.884.664-.267-.1-.432-.568-.244-1.079a.943.943,0,0,1,.76-.685ZM34.281,2c1.349,0,1.544,1.638.561,2.749a1.827,1.827,0,0,1-2.425.532C31.356,4.345,32.592,2,34.281,2Zm5.212,2.49a1.752,1.752,0,0,1,1.224.5c1.322,1.321-.153,4.245-2.441,4.5a1.752,1.752,0,0,1-2.055-2.059,3.45,3.45,0,0,1,3.271-2.939ZM22.953,5.587a10.839,10.839,0,0,0-8.269,3.3,12.47,12.47,0,0,0-2.69,5.55L9.735,12.179a.71.71,0,0,0-1,1l2.885,2.885c-1.233,5.694-1.523,6.575-6.186,10.619C2.219,29.469-1.1,32.343.35,37.442c1.034,3.649,3.353,4.722,5.117,4.98a10.3,10.3,0,0,0,8.795-3.833l3.7,3.7a.71.71,0,1,0,1-1l-3.92-3.92c4.5-7.285,3.313-5.359,3.517-5.7,1.615-2.674,3.446-5.7,6.995-6.626a14.236,14.236,0,0,0,7.015-4.346l3.847,3.846a.71.71,0,1,0,1-1l-3.943-3.944a12.862,12.862,0,0,0,1.288-2.059,7.054,7.054,0,0,0-.692-7.433C32.032,7.617,27.45,5.6,22.953,5.587Zm-.175,1.4a16.012,16.012,0,0,1,8.289,2.392c3.047,1.88,3.681,4.6,2.4,7.568a11.9,11.9,0,0,1-1.019,1.623L30.818,16.94h1.129a.711.711,0,0,0-.064-1.42,4.259,4.259,0,1,0-4.2,3.549c.781,0,.71-.15.71,0a.71.71,0,0,0,1.42,0V17.944l1.734,1.734A12.9,12.9,0,0,1,25.2,23.667c-4.108,1.065-6.185,4.5-7.853,7.265-1.286,2.13.852-1.425-3.336,5.395l-1.641-1.641h1.126a.71.71,0,1,0,0-1.42h-1.5a3.544,3.544,0,1,0-2.049,2.54v1.009a.71.71,0,0,0,1.42,0V35.69l1.88,1.88c-1.991,3.027-9.589,6.318-11.527-.516-1.2-4.227,1.507-6.576,4.644-9.3,4.549-3.944,5.324-5.253,6.45-10.5l2.519,2.518H14.2a.71.71,0,1,0,0,1.42h.71a2.839,2.839,0,1,0,2.839-2.839v-.71a.71.71,0,1,0-1.42,0v1.126l-3.16-3.16a12.189,12.189,0,0,1,2.563-5.772,9.349,9.349,0,0,1,7.043-2.854Zm4.872,4.983a2.835,2.835,0,0,1,2.779,3.549h-1.32a.71.71,0,0,0-.71.71v1.32a2.835,2.835,0,1,1-.749-5.579Zm-9.9,7.808a1.42,1.42,0,1,1-1.42,1.42h.71a.71.71,0,0,0,.71-.71v-.71ZM8.538,30.425A2.13,2.13,0,0,1,10.5,33.3a.7.7,0,0,0-.557.679v.148a2.13,2.13,0,1,1-1.4-3.7Z" transform="translate(0 0.091)" fill="#00b4d8"/>
</svg>
