<svg id="noun_Spine_2513496" xmlns="http://www.w3.org/2000/svg" width="42.613" height="42.613" viewBox="0 0 42.613 42.613">
  <path id="Path_4353" data-name="Path 4353" d="M57.448,108a.666.666,0,0,0-.666-.666H55.661l-.092-1.109A1.332,1.332,0,0,0,54.242,105H47.917a1.332,1.332,0,0,0-1.327,1.221L46.5,107.33H45.06a.666.666,0,0,0,0,1.332h1.327l-.074.889a1.332,1.332,0,0,0,1.327,1.442h6.878a1.332,1.332,0,0,0,1.327-1.442l-.074-.889h1.011a.666.666,0,0,0,.666-.666Zm-9.808,1.665.276-3.329h6.325l.276,3.329Z" transform="translate(-29.615 -70.044)" fill="#00b4d8"/>
  <path id="Path_4354" data-name="Path 4354" d="M46.005,88a.666.666,0,0,0,.666.666h1.344l-.075.887a1.332,1.332,0,0,0,1.327,1.443H55.04a1.332,1.332,0,0,0,1.327-1.443l-.075-.887H57.3a.666.666,0,1,0,0-1.332H56.181l-.093-1.11A1.332,1.332,0,0,0,54.761,85H49.547a1.332,1.332,0,0,0-1.327,1.22l-.093,1.11H46.671a.666.666,0,0,0-.666.666Zm3.542-1.665h5.213l.28,3.329H49.268Z" transform="translate(-30.689 -56.702)" fill="#00b4d8"/>
  <path id="Path_4355" data-name="Path 4355" d="M47.665,68a.666.666,0,0,0,.666.666h1.347l-.074.889a1.332,1.332,0,0,0,1.327,1.442h4.661a1.332,1.332,0,0,0,1.327-1.442l-.074-.889h1.347a.666.666,0,0,0,0-1.332H56.735l-.092-1.109A1.332,1.332,0,0,0,55.315,65H51.207a1.332,1.332,0,0,0-1.327,1.221l-.092,1.109H48.331a.666.666,0,0,0-.666.666Zm3.542-1.665h4.108l.276,3.329H50.931Z" transform="translate(-31.797 -43.36)" fill="#00b4d8"/>
  <path id="Path_4356" data-name="Path 4356" d="M49.325,48a.666.666,0,0,0,.666.666h1.35l-.074.889a1.332,1.332,0,0,0,1.327,1.442h3.549A1.332,1.332,0,0,0,57.47,49.55l-.074-.889h1.017a.666.666,0,1,0,0-1.332H57.286l-.092-1.109A1.332,1.332,0,0,0,55.867,45h-3a1.332,1.332,0,0,0-1.327,1.221l-.092,1.109h-1.46a.666.666,0,0,0-.666.666Zm3.545-1.665h3l.276,3.329H52.594Z" transform="translate(-32.904 -30.018)" fill="#00b4d8"/>
  <path id="Path_4357" data-name="Path 4357" d="M59.854,8a.666.666,0,0,0-.666-.666H58.058l-.092-1.109A1.332,1.332,0,0,0,56.638,5H55.194a1.332,1.332,0,0,0-1.327,1.221L53.774,7.33H52.31a.666.666,0,1,0,0,1.332h1.354l-.074.889a1.332,1.332,0,0,0,1.327,1.442h2A1.332,1.332,0,0,0,58.242,9.55l-.074-.889h1.02A.666.666,0,0,0,59.854,8ZM54.917,9.66l.276-3.329h1.445l.276,3.329Z" transform="translate(-34.451 -3.335)" fill="#00b4d8"/>
  <path id="Path_4358" data-name="Path 4358" d="M50.986,28a.666.666,0,0,0,.666.666H53l-.075.887a1.332,1.332,0,0,0,1.327,1.443H56.7a1.332,1.332,0,0,0,1.327-1.443l-.075-.887h1.018a.666.666,0,1,0,0-1.332h-1.13l-.093-1.11A1.332,1.332,0,0,0,56.418,25H54.534a1.332,1.332,0,0,0-1.327,1.22l-.093,1.11H51.651a.666.666,0,0,0-.666.666Zm3.549-1.665h1.884l.28,3.329H54.255Z" transform="translate(-34.012 -16.677)" fill="#00b4d8"/>
  <path id="Path_4359" data-name="Path 4359" d="M.073,10.35a.666.666,0,1,0,1.187.6,6,6,0,0,1,4.312-2.94.667.667,0,0,0,.541-.438c.068-.192,1.709-4.661,5.523-3.963A3.792,3.792,0,0,1,13.6,8.542a.666.666,0,0,0,1.272.391A5.108,5.108,0,0,0,13,2.85a9.222,9.222,0,0,1,4.382-1.522A.666.666,0,0,0,17.243,0,10,10,0,0,0,11.6,2.257C8.039,1.775,5.827,4.775,5,6.758A7.331,7.331,0,0,0,.073,10.35Z" transform="translate(0 0.001)" fill="#00b4d8"/>
  <path id="Path_4360" data-name="Path 4360" d="M91.312,11.319a.666.666,0,0,0,.593-.968,7.331,7.331,0,0,0-4.929-3.593c-.826-1.983-3.044-4.982-6.6-4.5A10,10,0,0,0,74.733,0,.666.666,0,1,0,74.6,1.328a9.13,9.13,0,0,1,4.563,1.66A5.113,5.113,0,0,0,77.48,8.934a.666.666,0,1,0,1.272-.391A3.794,3.794,0,0,1,80.77,3.589a.658.658,0,0,0,.076-.039c3.46-.241,4.954,3.843,5.018,4.025a.666.666,0,0,0,.542.439,5.947,5.947,0,0,1,4.312,2.94A.666.666,0,0,0,91.312,11.319Z" transform="translate(-49.364 0.001)" fill="#00b4d8"/>
  <path id="Path_4361" data-name="Path 4361" d="M12.627,64.824c.012-.08.27-2.017-1.066-6.749-.672-2.386-1.133-3.695-1.5-4.747a21.773,21.773,0,0,1-.844-2.807.666.666,0,0,0-1.192-.241,16.666,16.666,0,0,1-3.729,3.627.666.666,0,1,0,.746,1.1,17.206,17.206,0,0,0,3.212-2.895c.167.566.346,1.074.551,1.654.364,1.034.817,2.321,1.478,4.666a19.743,19.743,0,0,1,1.034,6.142c-1.035,2.864-.436,4.254-.023,4.805a28.078,28.078,0,0,1-1.008,5.725.666.666,0,1,0,1.275.384,28.552,28.552,0,0,0,1.075-6.327.515.515,0,0,0-.238-.534c-.008-.008-.847-.842.2-3.674A.679.679,0,0,0,12.627,64.824Z" transform="translate(-2.668 -33.354)" fill="#00b4d8"/>
  <path id="Path_4362" data-name="Path 4362" d="M101.856,53.77c.2-.58.383-1.089.551-1.654a17.207,17.207,0,0,0,3.212,2.895.666.666,0,0,0,.746-1.1,16.744,16.744,0,0,1-3.729-3.628.666.666,0,0,0-1.192.241,21.771,21.771,0,0,1-.844,2.807c-.371,1.052-.832,2.361-1.5,4.747-1.336,4.733-1.077,6.669-1.066,6.749a.679.679,0,0,0,.034.134c1.036,2.812.218,3.654.222,3.654a.563.563,0,0,0-.263.554A28.552,28.552,0,0,0,99.1,75.494a.666.666,0,0,0,1.275-.385,27.979,27.979,0,0,1-1.008-5.725c.413-.551,1.011-1.941-.023-4.8a19.751,19.751,0,0,1,1.034-6.144C101.039,56.091,101.492,54.8,101.856,53.77Z" transform="translate(-65.377 -33.354)" fill="#00b4d8"/>
</svg>
