<svg id="noun_Physiotherapy_3981823" xmlns="http://www.w3.org/2000/svg" width="32.654" height="41.491" viewBox="0 0 32.654 41.491">
  <g id="Group_920" data-name="Group 920" transform="translate(0)">
    <path id="Path_4347" data-name="Path 4347" d="M28.41,41.491h-13.8a.578.578,0,0,1-.234-.048,2.084,2.084,0,0,1-1.345-2.312.833.833,0,0,0-.528-1.027,4.119,4.119,0,0,1-2.1-4.085,4.355,4.355,0,0,1,2.57-3.783.552.552,0,0,0,.056-.032v-.04c-.02-.359-.016-.717-.012-1.063,0-.149,0-.3,0-.451a.6.6,0,0,1,.6-.6h15.8a.6.6,0,0,1,.6.6l0,.435c0,.363,0,.725-.008,1.088v.036l.036.02a4.528,4.528,0,0,1,.008,8.173.439.439,0,0,0-.044.024v0a3.992,3.992,0,0,1,0,.439,2.657,2.657,0,0,0,0,.31,2.107,2.107,0,0,1-1.4,2.272A.7.7,0,0,1,28.41,41.491ZM14.742,40.283H28.285a.888.888,0,0,0,.544-1.007,3.92,3.92,0,0,1,0-.435,2.656,2.656,0,0,0,0-.31,1.141,1.141,0,0,1,.7-1.2,3.318,3.318,0,0,0,0-6.006,1.154,1.154,0,0,1-.7-1.184c.012-.294.012-.584.008-.874h-14.6c0,.29,0,.568.012.838a1.168,1.168,0,0,1-.733,1.229A3.163,3.163,0,0,0,11.612,34.1a2.955,2.955,0,0,0,1.482,2.953A2.021,2.021,0,0,1,14.23,39.28.876.876,0,0,0,14.742,40.283Zm5.434-4.552a.6.6,0,0,1-.6-.6V31.763a.6.6,0,1,1,1.208,0v3.364A.6.6,0,0,1,20.176,35.731ZM4.9,35.662a.608.608,0,0,1-.427-.177.6.6,0,0,1,0-.854l1.744-1.744L5.235,31.9a1.143,1.143,0,0,1,0-1.611L6.988,28.54a.6.6,0,0,1,.854.854l-1.7,1.7.983.983a1.143,1.143,0,0,1,0,1.611L5.332,35.481A.6.6,0,0,1,4.9,35.662Zm-1.76-8.677H.607a.6.6,0,1,1,0-1.208H3.072v-1.39a1.142,1.142,0,0,1,1.14-1.14H6.689a.6.6,0,1,1,0,1.208h-2.4v1.39A1.148,1.148,0,0,1,3.141,26.985Zm18.244-.375H14.943a3.49,3.49,0,0,1-2.22-.556,5.161,5.161,0,0,1-2.159-2.767,4.487,4.487,0,0,1,2.457-5.337s.008,0,.012,0V17.93c-.012-.471-.012-.947-.008-1.418l0-1.007a.6.6,0,0,1,.6-.6h15.8a.6.6,0,0,1,.6.6l0,.7c0,.572,0,1.16-.008,1.74a.031.031,0,0,0,.02.008,4.357,4.357,0,0,1,2.6,4.117,4.587,4.587,0,0,1-2.534,4.093,3.683,3.683,0,0,1-2.054.439h-.068Q24.69,26.613,21.385,26.611ZM14.976,25.4h.056q6.483,0,12.967,0h.06a2.579,2.579,0,0,0,1.434-.266,3.418,3.418,0,0,0,1.946-3.057,3.145,3.145,0,0,0-1.93-3.033,1.108,1.108,0,0,1-.689-1.108c.016-.568.012-1.128.008-1.72v-.1H14.23v.411c0,.459,0,.918.008,1.378a1.12,1.12,0,0,1-.713,1.156,3.287,3.287,0,0,0-1.8,3.907,3.884,3.884,0,0,0,1.7,2.111A2.415,2.415,0,0,0,14.976,25.4Zm5.2-2.361a.6.6,0,0,1-.6-.6V19.074a.6.6,0,1,1,1.208,0v3.364A.6.6,0,0,1,20.176,23.042ZM6.689,20.415a.608.608,0,0,1-.427-.177l-1.7-1.7-.983.983a1.143,1.143,0,0,1-1.611,0L.176,17.728a.6.6,0,0,1,.854-.854l1.744,1.744.983-.983a1.143,1.143,0,0,1,1.611,0L7.12,19.388a.6.6,0,0,1,0,.854A.627.627,0,0,1,6.689,20.415Zm2.111-3.5a.6.6,0,0,1-.6-.6V13.9H6.806a1.142,1.142,0,0,1-1.14-1.14V10.228a.6.6,0,0,1,1.208,0v2.465h1.39a1.142,1.142,0,0,1,1.14,1.14V16.31A.6.6,0,0,1,8.8,16.911Zm5.136-3.432a.947.947,0,0,1-.838-.407c-.032-.012-.068-.028-.1-.04A4.4,4.4,0,0,1,10.4,8.915a4.361,4.361,0,0,1,2.626-4.1c-.016-.906-.012-1.817,0-2.743A1.933,1.933,0,0,1,15.125,0h12.81a1.941,1.941,0,0,1,2.095,2.083v.2q.006,1.269,0,2.538a4.372,4.372,0,0,1,2.614,4.1,4.575,4.575,0,0,1-2.63,4.165,3.327,3.327,0,0,1-1.793.379h-.089c-1.6.008-3.2.008-4.8.008l-9.2,0h0a.487.487,0,0,0-.077,0C14.025,13.475,13.985,13.479,13.936,13.479Zm7.609-1.217h1.789c1.6,0,3.194,0,4.79-.008h.089a2.173,2.173,0,0,0,1.2-.222,3.421,3.421,0,0,0,2.022-3.114,3.156,3.156,0,0,0-2.006-3.053.967.967,0,0,1-.608-.959c.012-.874.008-1.748,0-2.626v-.2c0-.624-.258-.878-.886-.878H15.125c-.645,0-.886.234-.89.87-.008.927-.012,1.837,0,2.739a1.083,1.083,0,0,1-.673,1.08,3.182,3.182,0,0,0-1.954,3.017,3.177,3.177,0,0,0,1.942,3.037l.028.008a.89.89,0,0,1,.459.306.4.4,0,0,0,.1,0Zm-1.37-1.93a.6.6,0,0,1-.6-.6V6.365a.6.6,0,1,1,1.208,0V9.728A.6.6,0,0,1,20.176,10.332Z" transform="translate(0.003)" fill="#00b4d8"/>
  </g>
</svg>
