<svg id="noun_Hospital_Bed_4035520" data-name="noun_Hospital Bed_4035520" xmlns="http://www.w3.org/2000/svg" width="42.852" height="42.853" viewBox="0 0 42.852 42.853">
  <g id="Group_922" data-name="Group 922" transform="translate(0 0)">
    <path id="Path_4371" data-name="Path 4371" d="M36.531,21.8H19.583V17.212a3.3,3.3,0,0,0-3.292-3.292H13.5a1.62,1.62,0,0,1-1.467-.939,3.186,3.186,0,0,0,2.192-3.023V5a.837.837,0,0,0-.837-.837H11.883V2.175h1.507a.837.837,0,0,0,0-1.674H1.337A.837.837,0,0,0,.5,1.338V42.517a.837.837,0,0,0,.837.837H4.685a.837.837,0,0,0,.837-.837V2.175h4.687V4.163H8.7A.837.837,0,0,0,7.865,5V9.959a3.186,3.186,0,0,0,2.43,3.09A3.3,3.3,0,0,0,13.5,15.594h2.79a1.62,1.62,0,0,1,1.618,1.618V21.9a4.084,4.084,0,0,0-2.1,1.221,4.185,4.185,0,0,0-3.588-2.033h-.67a4.183,4.183,0,0,0-3.346,6.7h0a.837.837,0,0,0-.837.837V42.517a.837.837,0,0,0,.837.837h4.017a.837.837,0,0,0,.837-.837V33.477H37.661v9.039a.837.837,0,0,0,.837.837h4.017a.837.837,0,0,0,.837-.837V28.623A6.829,6.829,0,0,0,36.531,21.8ZM3.848,41.68H2.174V2.175H3.848ZM9.539,5.837h3.013V7.51H9.539V5.837Zm1.507,5.629A1.508,1.508,0,0,1,9.539,9.959V9.184h3.013v.774A1.508,1.508,0,0,1,11.046,11.465ZM16.4,25.882a2.409,2.409,0,0,1,2.406-2.406H36.531a5.156,5.156,0,0,1,5.079,4.31H16.4v-1.9Zm-4.854-3.118h.67a2.511,2.511,0,0,1,0,5.022h-.67a2.511,2.511,0,1,1,0-5.022ZM41.679,41.68H39.335V32.64A.837.837,0,0,0,38.5,31.8H12.218a.837.837,0,0,0-.837.837V41.68H9.037V29.46H41.679V41.68Z" transform="translate(-0.5 -0.501)" fill="#00b4d8"/>
  </g>
</svg>
