<svg id="noun_herbal_2184473" xmlns="http://www.w3.org/2000/svg" width="33.667" height="42.956" viewBox="0 0 33.667 42.956">
  <g id="Layer_2" data-name="Layer 2" transform="translate(0 0)">
    <path id="Path_4383" data-name="Path 4383" d="M15.065,11.261A1.065,1.065,0,0,0,16.131,10.2V8.065a1.065,1.065,0,1,0-2.131,0V10.2A1.065,1.065,0,0,0,15.065,11.261Z" transform="translate(-7.608 -3.804)" fill="#00b4d8"/>
    <path id="Path_4384" data-name="Path 4384" d="M18.065,11.261A1.065,1.065,0,0,0,19.131,10.2V8.065a1.065,1.065,0,0,0-2.131,0V10.2A1.065,1.065,0,0,0,18.065,11.261Z" transform="translate(-7.412 -3.804)" fill="#00b4d8"/>
    <path id="Path_4385" data-name="Path 4385" d="M21.065,11.261A1.065,1.065,0,0,0,22.131,10.2V8.065a1.065,1.065,0,0,0-2.131,0V10.2A1.065,1.065,0,0,0,21.065,11.261Z" transform="translate(-7.216 -3.804)" fill="#00b4d8"/>
    <path id="Path_4386" data-name="Path 4386" d="M24.065,11.261A1.065,1.065,0,0,0,25.131,10.2V8.065a1.065,1.065,0,0,0-2.131,0V10.2A1.065,1.065,0,0,0,24.065,11.261Z" transform="translate(-7.02 -3.804)" fill="#00b4d8"/>
    <path id="Path_4387" data-name="Path 4387" d="M36.342,19.66h0a1.065,1.065,0,0,0-.767.32L32.29,23.564l-.469-3.584c0-2.353-1.226-4.261-3.58-4.261H27.176V14.653h1.065a1.065,1.065,0,0,0,1.065-1.065V5.065A1.065,1.065,0,0,0,28.241,4H12.261A1.065,1.065,0,0,0,11.2,5.065v8.523a1.065,1.065,0,0,0,1.065,1.065h1.065v1.065H12.261A4.261,4.261,0,0,0,8,19.98V43.417a2.92,2.92,0,0,0,3.2,3.2s15.964.772,18.111,0,1.524-1.06,2.1-1.556l.415.458a1.065,1.065,0,0,0,.767.32h0a1.065,1.065,0,0,0,.767-.32l3.7-3.737a15.186,15.186,0,0,0,0-21.8A1.065,1.065,0,0,0,36.342,19.66ZM12.756,5.519H27.741V13H12.756Zm-.57,11.706h1.5a1.065,1.065,0,0,0,1.065-1.065l.076-1.506H25.763V16.16a1.065,1.065,0,0,0,1.065,1.065h1.413c1.177,0,2.131,1.578,2.131,2.755l.643,5c-.117.16-.213.309-.32.469l-.33.479c-.138.213-.256.437-.384.661s-.192.32-.277.479-.234.479-.352.714l-.224.469c-.107.266-.2.522-.3.788s-.117.288-.16.426c-.107.32-.2.639-.288.969a2.13,2.13,0,0,0-.085.277c-.107.415-.192.842-.266,1.257v.384c0,.3-.1.6-.117.895a4.322,4.322,0,0,0,0,.533V34.2l-.174-11.875c0-.588-.946-1.282-1.534-1.282H9.451V19.98A3.33,3.33,0,0,1,12.186,17.225ZM9.451,22.462H26.207l.109,14.2H9.56Zm19.9,22.908c-1.156.423-17.775.341-18.873,0s-1.025-1.364-1.025-1.953V42H25.045c.588,0,.718-.3.718-.6s-.129-.6-.718-.6H9.451V38.091l17.3-.181a1.065,1.065,0,0,0,1.065-1.065V35.8l.064.618a2.033,2.033,0,0,0,.075.661,3.418,3.418,0,0,1,.107.618l.128.639.16.629c.064.2.117.415.181.618s.138.415.2.618.149.4.234.607.17.394.256.6.181.4.277.6.2.384.309.575a6.446,6.446,0,0,0,.341.586c.107.181.224.362.341.543l.181.288C30.481,44.184,30.505,44.947,29.349,45.37Zm6.595-4.829-3.356,3.452c-.149-.17-.288-.352-.415-.522a14.96,14.96,0,0,1,.117-17.795h0a10.654,10.654,0,0,1,1.065-1.183L36.8,21.578a14.194,14.194,0,0,1-.837,18.963Z" transform="translate(-8 -4)" fill="#00b4d8"/>
    <path id="Path_4388" data-name="Path 4388" d="M20.457,27.555H17.871V25.065c0-.588-.021-1.065-.609-1.065s-.756.477-.756,1.065v2.489h-2.44c-.588,0-1.065.118-1.065.707s.477.561,1.065.561h2.44v2.635c0,.588.168,1.065.756,1.065s.609-.477.609-1.065V28.823h2.587c.588,0,1.065.027,1.065-.561S21.046,27.555,20.457,27.555Z" transform="translate(-7.673 -2.693)" fill="#00b4d8"/>
  </g>
</svg>
