<svg xmlns="http://www.w3.org/2000/svg" xmlns:xlink="http://www.w3.org/1999/xlink" width="42.613" height="42.613" viewBox="0 0 42.613 42.613">
  <defs>
    <clipPath id="clip-path">
      <rect width="42.613" height="42.613" fill="none"/>
    </clipPath>
  </defs>
  <g id="noun_acupuncture_3479223" clip-path="url(#clip-path)">
    <g id="noun_acupuncture_3479223-2" data-name="noun_acupuncture_3479223">
      <path id="Path_4348" data-name="Path 4348" d="M52.334,21.373A22.941,22.941,0,0,0,37.306,16a22.941,22.941,0,0,0-15.028,5.373A17.2,17.2,0,0,0,16,34.466a16.221,16.221,0,0,0,.428,3.693A2.129,2.129,0,0,0,17.6,41.5a18.08,18.08,0,0,0,2.925,4.345,2.131,2.131,0,1,0,1.741,2.823h1.312a20.5,20.5,0,0,0,2.8,4.26,19.281,19.281,0,0,0,1.342,1.422h-1.9a2.131,2.131,0,1,0,0,1.42H29.4a13.371,13.371,0,0,0,7.911,2.841,13.371,13.371,0,0,0,7.911-2.841h3.575a2.131,2.131,0,1,0,0-1.42h-1.9a19.281,19.281,0,0,0,1.341-1.422,20.508,20.508,0,0,0,2.8-4.26h1.312a2.134,2.134,0,1,0,1.74-2.823A18.1,18.1,0,0,0,57.01,41.5a2.129,2.129,0,0,0,1.175-3.343,16.221,16.221,0,0,0,.428-3.693A17.2,17.2,0,0,0,52.334,21.373Zm-28.522,34.4a.71.71,0,1,1,.71-.71A.71.71,0,0,1,23.812,55.773ZM50.8,54.352a.71.71,0,1,1-.71.71.71.71,0,0,1,.71-.71Zm6.392-19.886a14.8,14.8,0,0,1-.285,2.884,2.132,2.132,0,0,0-2.434,1.378H52.78a12.689,12.689,0,0,0-1.073-3.614,2.131,2.131,0,1,0-1.5-2.778h-.33A12.656,12.656,0,0,0,48.3,30.823a16.429,16.429,0,0,0-8.159-3.276,16.567,16.567,0,0,0,2.7-2.828,14.624,14.624,0,0,0,2.889-5.691C52.5,21.751,57.192,27.647,57.192,34.466Zm-5.02,11.315a16.964,16.964,0,0,0,.759-4.923q0-.359-.017-.71h1.559a2.142,2.142,0,0,0,1.035,1.184,17.08,17.08,0,0,1-3.337,4.449Zm-.661-12.736a.71.71,0,1,1,.71.71.71.71,0,0,1-.71-.71ZM37.306,17.42a22.734,22.734,0,0,1,7.073,1.115,13.2,13.2,0,0,1-2.665,5.321c-1.6,2.1-3.375,3.507-4.407,3.507a17.549,17.549,0,0,0-10.991,3.459,12.655,12.655,0,0,0-1.585,1.512H24.4a2.131,2.131,0,1,0-1.5,2.778,12.686,12.686,0,0,0-1.073,3.614H20.139A2.132,2.132,0,0,0,17.7,37.349a14.8,14.8,0,0,1-.285-2.884C17.42,25.067,26.341,17.42,37.306,17.42ZM23.1,33.045a.71.71,0,1,1-.71-.71A.71.71,0,0,1,23.1,33.045Zm-4,8.287a2.142,2.142,0,0,0,1.035-1.184H21.7q-.016.352-.017.71a16.966,16.966,0,0,0,.759,4.923A17.065,17.065,0,0,1,19.1,41.332Zm-.973-2.6a.71.71,0,1,1-.71.71.71.71,0,0,1,.71-.71Zm2.131,9.943a.71.71,0,1,1,.71-.71.71.71,0,0,1-.71.71Zm26.892,3.339a17.269,17.269,0,0,1-2.417,2.343H42.278a.71.71,0,0,0,0,1.42h.312a10.535,10.535,0,0,1-10.566,0h.312a.71.71,0,0,0,0-1.42H29.876a17.269,17.269,0,0,1-2.417-2.343,18.9,18.9,0,0,1-2.269-3.339h3.593a.71.71,0,0,0,0-1.42H24.506a16.336,16.336,0,0,1-1.4-6.392q0-.359.018-.71h3.533a.71.71,0,1,0,0-1.42H23.27A10.839,10.839,0,0,1,25.4,33.756h5.513a.71.71,0,0,0,0-1.42H26.728q.231-.207.477-.4a16.136,16.136,0,0,1,10.1-3.147,16.136,16.136,0,0,1,10.1,3.147q.245.2.477.4H43.7a.71.71,0,0,0,0,1.42h5.513a10.839,10.839,0,0,1,2.131,4.972H47.96a.71.71,0,0,0,0,1.42h3.533q.018.351.018.71a16.336,16.336,0,0,1-1.4,6.392H45.829a.71.71,0,1,0,0,1.42h3.593A18.894,18.894,0,0,1,47.153,52.009Zm7.909-4.049a.71.71,0,1,1-.71-.71A.71.71,0,0,1,55.062,47.96Zm1.42-7.812a.71.71,0,1,1,.71-.71A.71.71,0,0,1,56.482,40.148Z" transform="translate(-15.999 -16)" fill="#00b4d8"/>
      <path id="Path_4349" data-name="Path 4349" d="M164.261,288.71a.71.71,0,1,0-1.42,0,.71.71,0,0,1-1.42,0,.71.71,0,1,0-1.42,0,2.131,2.131,0,0,0,4.261,0Z" transform="translate(-147.216 -263.852)" fill="#00b4d8"/>
      <path id="Path_4350" data-name="Path 4350" d="M308.261,288.71a.71.71,0,1,0-1.42,0,.71.71,0,0,1-1.42,0,.71.71,0,1,0-1.42,0,2.131,2.131,0,0,0,4.261,0Z" transform="translate(-278.432 -263.852)" fill="#00b4d8"/>
      <path id="Path_4351" data-name="Path 4351" d="M202.929,368.041a.71.71,0,0,0-.935.366,5.072,5.072,0,0,1-8.643,0,.71.71,0,1,0-1.3.573,6.472,6.472,0,0,0,11.244,0A.71.71,0,0,0,202.929,368.041Z" transform="translate(-176.366 -336.732)" fill="#00b4d8"/>
      <path id="Path_4352" data-name="Path 4352" d="M232.71,308.261h2.841a.71.71,0,0,0,0-1.42H233.42V304.71a.71.71,0,1,0-1.42,0v2.841A.71.71,0,0,0,232.71,308.261Z" transform="translate(-212.824 -278.432)" fill="#00b4d8"/>
    </g>
  </g>
</svg>
