<svg xmlns="http://www.w3.org/2000/svg" width="20.978" height="39.539" viewBox="0 0 20.978 39.539">
  <path id="Path_4343" data-name="Path 4343" d="M21,33.281a6.218,6.218,0,0,1-5.791-3.7,5.547,5.547,0,0,1,1.524-6.385,19.536,19.536,0,0,0,.549-4.572,10.927,10.927,0,0,0-.518-3.353,2.438,2.438,0,0,1,.259-1.92,2.636,2.636,0,0,1,1.615-1.234l3.52-.945a2.758,2.758,0,0,1,3.353,1.646,19.034,19.034,0,0,0,1.524,3.52,9.738,9.738,0,0,0,2.819,2.652,5.974,5.974,0,0,1,5.9,5.959A6.1,6.1,0,0,1,29.519,30.6a6.477,6.477,0,0,1-2.972-.716A6.309,6.309,0,0,1,21,33.281Zm2.131-20.741H23.01L18.5,13.925a.457.457,0,0,0-.259.183.29.29,0,0,0,0,.274,15.452,15.452,0,0,1,.859,4.238,18.27,18.27,0,0,1-.6,4.969,1.128,1.128,0,0,1-.411.579,4.637,4.637,0,0,0-1.321,4.986A4.86,4.86,0,0,0,21.3,31.688a4.491,4.491,0,0,0,3.759-3.271,1.128,1.128,0,0,1,.792-.869,1.234,1.234,0,0,1,1.173.274,4.329,4.329,0,0,0,4.839.566,4.715,4.715,0,0,0,2.133-4.8,4.256,4.256,0,0,0-4.062-2.733h-.076a1.143,1.143,0,0,1-.655-.2,12.327,12.327,0,0,1-3.688-3.468,24.51,24.51,0,0,1-1.983-4.376.427.427,0,0,0-.4-.274Zm6.189,38.052H24.993a2.53,2.53,0,0,1-2.606-2.454V42.288L19.843,37.64a2.347,2.347,0,0,1,.091-2.408,2.652,2.652,0,0,1,2.225-1.173h2.1a3.353,3.353,0,0,1,2.758-1.173,3.444,3.444,0,0,1,2.774,1.173h2.362a2.636,2.636,0,0,1,2.225,1.173,2.362,2.362,0,0,1,.107,2.408l-2.606,4.648v5.867a2.271,2.271,0,0,1-.762,1.737A2.682,2.682,0,0,1,29.321,50.593ZM21.764,36.255c-.091-.137-.2-.091-.244,0a.229.229,0,0,0,0,.274l2.43,4.878c.1.169.047.371.169.526l.056,6.643a.183.183,0,0,0,.076.183.244.244,0,0,0,.2.091h5.388a.29.29,0,0,0,.29-.274l.029-6.4a1.128,1.128,0,0,1,0-.5L33,36.683a.29.29,0,0,0,0-.274c0-.091-.168-.137-.259-.29l-3.682-.295a1.018,1.018,0,0,1-.772-.246.976.976,0,0,1-.4-.691,1.707,1.707,0,0,0-1.707,0,1.359,1.359,0,0,1-.2.782,1.589,1.589,0,0,1-.721.45Z" transform="translate(-14.774 -11.055)" fill="#00b4d8"/>
</svg>
