<svg xmlns="http://www.w3.org/2000/svg" width="42.608" height="42.613" viewBox="0 0 42.608 42.613">
  <g id="Group_918" data-name="Group 918" transform="translate(0 0)">
    <path id="Path_4340" data-name="Path 4340" d="M9.179,12.878,6.468,20.471a3.551,3.551,0,0,0-.207,1.194V32.407L2.045,43.648a.71.71,0,0,0,.665.959H13.362a.71.71,0,0,0,.689-.538l1.615-6.462v0a7.65,7.65,0,0,0,15.248-.04l0-.054,1.638,6.554a.71.71,0,0,0,.689.535H43.9a.71.71,0,0,0,.665-.959L40.346,32.407V21.665a3.55,3.55,0,0,0-.207-1.194l-2.711-7.593a3.557,3.557,0,0,0-3.344-2.357H33.075l.17-2.13V4.84a2.84,2.84,0,0,0-4.871-1.984,2.481,2.481,0,0,0-3.651-.109,2.485,2.485,0,0,0-4.141.974,2.485,2.485,0,0,0-3.551,1.42,2.485,2.485,0,0,0-3.671,2.184v3.2h-.839a3.557,3.557,0,0,0-3.344,2.356Zm23.782-.936h1.122a2.136,2.136,0,0,1,2.007,1.414L38.8,20.949a2.13,2.13,0,0,1,.125.717v10.87a.71.71,0,0,0,.045.249l3.9,10.4H33.8L31.074,32.3,26.939,20.582a1.491,1.491,0,0,1-.085-.5v-.268a1.485,1.485,0,0,1,2.812-.664l4.364,8.729,1.271-.635L32.23,21.1ZM14.782,7.326a1.065,1.065,0,1,1,2.13,0V9.1h1.42v-3.2a1.065,1.065,0,1,1,2.13,0V8.391h1.42V4.485a1.065,1.065,0,1,1,2.13,0v3.2h1.42v-3.2a1.065,1.065,0,1,1,2.13,0v3.2h1.42V4.84a1.42,1.42,0,1,1,2.84,0V8.334L31,18.647l-.065-.129a2.9,2.9,0,0,0-5.5,1.3v.271a2.912,2.912,0,0,0,.165.966l4.119,11.654.121.484L29.5,37.456a6.231,6.231,0,0,1-12.418.033l-.355-4.137.142-.579L21,21.055a2.906,2.906,0,0,0,.168-.967v-.271a2.9,2.9,0,0,0-5.5-1.3l-.176.355-.712-8.352Zm-.5,13.979-2.971,5.942,1.271.635,4.364-8.729a1.485,1.485,0,0,1,2.812.664v.271a1.481,1.481,0,0,1-.085.5L15.513,32.363,12.807,43.187H3.735l3.9-10.4a.71.71,0,0,0,.045-.249V21.665a2.13,2.13,0,0,1,.124-.716l2.711-7.594a2.136,2.136,0,0,1,2.007-1.414h.957Z" transform="translate(-1.999 -2)" fill="#00b4d8"/>
    <path id="Path_4341" data-name="Path 4341" d="M28.178,22.591l.075.189,1.319-.528-.076-.188a5.06,5.06,0,0,0-5.7-3.084l.278,1.392A3.644,3.644,0,0,1,28.178,22.591Z" transform="translate(-8.319 -6.893)" fill="#00b4d8"/>
    <path id="Path_4342" data-name="Path 4342" d="M30.951,27.871a6.376,6.376,0,0,0,2.414,6.32l.852-1.136a4.948,4.948,0,0,1-1.874-4.9l.013-.071-1.392-.28Z" transform="translate(-10.357 -9.479)" fill="#00b4d8"/>
  </g>
</svg>
