<svg xmlns="http://www.w3.org/2000/svg" width="35.014" height="43.314" viewBox="0 0 35.014 43.314">
  <g id="noun_Ear_3377329" transform="translate(0.162 0.172)">
    <g id="Group_2221" data-name="Group 2221">
      <path id="Path_4389" data-name="Path 4389" d="M47.057,14.329A16.987,16.987,0,0,0,41.01,3.344,15.4,15.4,0,0,0,29.068.143a13.633,13.633,0,0,0-9.943,5.882C17.109,9.1,16.4,13.136,17.045,17.7v.044a17.468,17.468,0,0,0,1.226,3.7,7.847,7.847,0,0,0-1.465,4.572v.453A16.746,16.746,0,0,1,14.5,11.944,15.221,15.221,0,0,1,16.777,7.5a.672.672,0,0,0-.947-.951,15.791,15.791,0,0,0-2.59,4.972c-3.2,10.094,3.84,17.572,4.589,18.328a7.854,7.854,0,0,0,1.32,1.737c-.7,3.45.034,6.527,2.083,8.684a8.9,8.9,0,0,0,6.329,2.687,7.951,7.951,0,0,0,1.266-.1c5.637-.931,7.726-4.7,10.168-9.093.336-.625,1.68-2.973,2.016-3.507C44.289,24.642,47.691,18.813,47.057,14.329ZM18.167,26a6.539,6.539,0,1,1-.007,0Zm21.67,3.6c-.312.534-1.68,2.9-2.016,3.531-2.351,4.243-4.216,7.6-9.211,8.418a7.417,7.417,0,0,1-6.4-2.2,7.785,7.785,0,0,1-1.864-6.779,7.891,7.891,0,1,0,5.5-14.377h0a6.923,6.923,0,0,1-1.092-2.529,6.921,6.921,0,0,1,.924-5.62,8.047,8.047,0,0,1,5.66-3.211A7.743,7.743,0,0,1,37.527,8.82a9.641,9.641,0,0,1,3.359,7.145c0,3.386-3.178,8.237-5.5,11.777-.719,1.1-1.4,2.136-1.895,2.99a.672.672,0,0,0,.245.92.722.722,0,0,0,.92-.245c.48-.82,1.145-1.848,1.854-2.929,2.546-3.89,5.711-8.734,5.711-12.513A11,11,0,0,0,38.4,7.805,9.08,9.08,0,0,0,31.141,5.5,9.386,9.386,0,0,0,24.56,9.28a8.285,8.285,0,0,0-1.125,6.681,8.855,8.855,0,0,0,.8,2.157,7.867,7.867,0,0,0-4.988,2.19,18.22,18.22,0,0,1-.867-2.835c-.595-4.229.054-7.938,1.874-10.729,1.881-2.889,5-4.7,9-5.277A14.058,14.058,0,0,1,40.177,4.386a15.677,15.677,0,0,1,5.549,10.131C46.3,18.541,42.864,24.417,39.838,29.6Z" transform="translate(-12.41 0.033)" fill="#00b4d8" stroke="#00b4d8" stroke-width="0.3"/>
      <path id="Path_4390" data-name="Path 4390" d="M63.276,42.117c.087-.128.225-.3.383-.5.934-1.179,2.879-3.635,1.277-6.517A10.12,10.12,0,0,0,56.672,30a.672.672,0,0,0,0,1.344,8.831,8.831,0,0,1,7.091,4.411c1.075,1.935.02,3.547-1.156,5.039-.178.225-.336.42-.447.595a.672.672,0,1,0,1.115.742Z" transform="translate(-41.357 -19.911)" fill="#00b4d8" stroke="#00b4d8" stroke-width="0.3"/>
    </g>
  </g>
</svg>
