<svg id="noun_rehabilitation_3409658" xmlns="http://www.w3.org/2000/svg" width="43.96" height="42.613" viewBox="0 0 43.96 42.613">
  <g id="Group_921" data-name="Group 921" transform="translate(0 0)">
    <path id="Path_4364" data-name="Path 4364" d="M82.087,79.622a.684.684,0,0,0-.924-.267l-2.547,1.4c-.5-.872-1.74-3.1-4.591-8.494V64.782a.681.681,0,0,0-.68-.68H70.868V59.066h2.879a.681.681,0,0,0,.68-.68V55.43a.681.681,0,0,0-.68-.68H58.835a.681.681,0,0,0-.68.68v5.8a13.515,13.515,0,0,0-3.655-1.3V46.8a1.92,1.92,0,0,0-1.917-1.919h-6.3A1.92,1.92,0,0,0,44.367,46.8V61.913a13.725,13.725,0,0,0-2.128,1.724c-.01.009-.024.013-.034.023s-.013.023-.023.034a13.6,13.6,0,0,0,0,19.21c.009.01.013.024.023.034s.023.013.034.022a13.6,13.6,0,0,0,19.21,0c.01-.009.024-.013.034-.022s.013-.023.023-.034a13.587,13.587,0,0,0,3.97-9.605c0-.063-.009-.124-.009-.187H70.85v5.317a4.568,4.568,0,1,0,1.36,0V73.111h.728c4.166,7.886,4.848,8.9,4.875,8.942a.674.674,0,0,0,.559.3.691.691,0,0,0,.328-.085l3.121-1.718A.68.68,0,0,0,82.087,79.622ZM59.515,56.109H73.067v1.6H59.515Zm0,2.957h9.994V64.1H61.877c-.124-.136-.242-.278-.372-.409-.009-.01-.013-.024-.023-.034s-.023-.013-.034-.023a13.734,13.734,0,0,0-1.934-1.6V59.066Zm.5,5.1-7.49,7.49V61.06A12.2,12.2,0,0,1,60.014,64.166Zm-17.3.962,7.49,7.49h-10.6A12.2,12.2,0,0,1,42.712,65.128Zm-3.106,8.85H50.2l-7.49,7.49A12.2,12.2,0,0,1,39.606,73.978ZM51.164,85.536a12.2,12.2,0,0,1-7.49-3.106l7.49-7.49Zm0-13.879-7.49-7.49a12.2,12.2,0,0,1,7.49-3.106ZM45.727,61.133V46.8a.559.559,0,0,1,.557-.559h6.3a.559.559,0,0,1,.557.559V59.732c-.427-.041-.859-.066-1.3-.066A13.528,13.528,0,0,0,45.727,61.133Zm6.8,24.4V74.94l7.49,7.49A12.2,12.2,0,0,1,52.524,85.536Zm8.452-4.068-7.49-7.49h10.6A12.2,12.2,0,0,1,60.976,81.468Zm-7.49-8.85,7.49-7.49a12.2,12.2,0,0,1,3.106,7.49ZM74.738,82.927a3.209,3.209,0,1,1-3.209-3.209A3.212,3.212,0,0,1,74.738,82.927ZM72.666,71.751H65.382a13.539,13.539,0,0,0-2.4-6.289h9.686v6.289Z" transform="translate(-38.212 -44.882)" fill="#00b4d8"/>
    <path id="Path_4365" data-name="Path 4365" d="M351.938,407.108a1.655,1.655,0,1,0,1.655-1.655A1.655,1.655,0,0,0,351.938,407.108Z" transform="translate(-320.276 -369.063)" fill="#00b4d8"/>
  </g>
</svg>
