<svg id="noun_Doctor_4115081" xmlns="http://www.w3.org/2000/svg" width="40.352" height="44.836" viewBox="0 0 40.352 44.836">
  <path id="Path_4330" data-name="Path 4330" d="M14.242,17.451a11.209,11.209,0,1,1,22.418,0V28.66H38.9V17.451a13.451,13.451,0,0,0-26.9,0V28.66h2.242Z" transform="translate(-5.275 -4)" fill="#00b4d8"/>
  <path id="Path_4331" data-name="Path 4331" d="M16,20.484a8.967,8.967,0,1,0,17.934,0V16H16Zm2.242-2.242H31.693v2.242a6.725,6.725,0,0,1-13.451,0Z" transform="translate(-4.791 -2.549)" fill="#00b4d8"/>
  <path id="Path_4332" data-name="Path 4332" d="M35.48,27.112,34.919,27l-8.743,7.51L17.433,27l-.56.112C10.147,29.018,6,32.829,6,37.088v8.967H8.242V37.088c0-2.914,3.026-5.717,7.846-7.4v5.268a3.9,3.9,0,1,0,5.044,3.7,3.865,3.865,0,0,0-2.8-3.7V30.587l7.846,6.837,7.846-6.837v5.492a5.638,5.638,0,0,0-4.484,5.492v4.484h4.484V43.813H31.781V41.572a3.363,3.363,0,1,1,6.725,0v2.242H36.264v2.242h4.484V41.572a5.638,5.638,0,0,0-4.484-5.492V29.69c4.82,1.681,7.846,4.484,7.846,7.4v8.967h2.242V37.088C46.352,32.829,42.2,29.018,35.48,27.112ZM18.89,38.769a1.681,1.681,0,1,1-1.681-1.681A1.724,1.724,0,0,1,18.89,38.769Z" transform="translate(-6 -1.219)" fill="#00b4d8"/>
</svg>
