<svg xmlns="http://www.w3.org/2000/svg" xmlns:xlink="http://www.w3.org/1999/xlink" width="1868.499" height="838.366" viewBox="0 0 1868.499 838.366">
  <defs>
    <clipPath id="clip-path">
      <rect id="Rectangle_1029" data-name="Rectangle 1029" width="599" height="611" transform="translate(0 153)" fill="#fff" stroke="#707070" stroke-width="1"/>
    </clipPath>
  </defs>
  <g id="Group_2047" data-name="Group 2047" transform="translate(-208 -6695.348)">
    <path id="Path_22411" data-name="Path 22411" d="M0,0H1366V405.288H0Z" transform="translate(280 6702.968)" fill="#005c8d"/>
    <g id="Mask_Group_23" data-name="Mask Group 23" transform="translate(208 6542.348)" opacity="0.07" clip-path="url(#clip-path)">
      <g id="Group_2409" data-name="Group 2409" transform="matrix(0.985, 0.174, -0.174, 0.985, 1781.556, 285.826)">
        <g id="Group_2395" data-name="Group 2395" transform="translate(-1744.396 56)">
          <g id="Group_2392" data-name="Group 2392" transform="translate(177.542 45.263) rotate(83)">
            <path id="Path_22689" data-name="Path 22689" d="M242.683,45.392l-.446.007a18.359,18.359,0,0,0-14.373,7.547L223.676,50.5a33.847,33.847,0,0,0,4.2-17.2A34.322,34.322,0,0,0,193.784,0l-.84.013a34.013,34.013,0,0,0-23.367,58.033l-9.656,11.761a16.024,16.024,0,0,0-8.677-2.585l-.4.007a16.172,16.172,0,0,0-15.391,19.764l-12.125,6.955a34.027,34.027,0,0,0-55.1-12.3L56.787,71.774a16.512,16.512,0,1,0-4.79,4.6L63.884,86.626a33.887,33.887,0,0,0-6.393,19.814c0,.9.066,1.772.135,2.651l-21.271,3.365a18.425,18.425,0,1,0,.155,6.667L58.777,115.6a34.142,34.142,0,0,0,10.376,16.465l-3.074,4.972a18.123,18.123,0,0,0-5.282-.783,18.439,18.439,0,1,0,11.176,3.821l2.559-4.139a33.926,33.926,0,0,0,40.7-4.925l28.55,19.146A18.414,18.414,0,0,0,142,153.446a18.375,18.375,0,1,0,33.952.03,18.53,18.53,0,0,0-2.317-4l22.957-26.26a18.11,18.11,0,0,0,8.743,2.258l.446,0a18.373,18.373,0,0,0,17.933-18.819,18.5,18.5,0,0,0-15.953-17.748L203.72,66.743a33.834,33.834,0,0,0,14.743-9.081c.526-.542.988-1.124,1.468-1.7l5.034,2.945a18.27,18.27,0,0,0-.658,5.3,18.494,18.494,0,0,0,18.376,17.939l.443-.007a18.374,18.374,0,0,0,17.923-18.815A18.48,18.48,0,0,0,242.683,45.392Zm-224.3,82.633a11.766,11.766,0,1,1,11.765-11.761A11.78,11.78,0,0,1,18.379,128.025ZM60.8,166.39a11.763,11.763,0,1,1,11.765-11.761A11.78,11.78,0,0,1,60.8,166.39ZM144.3,76.8a9.579,9.579,0,0,1,16.508,6.38,9.584,9.584,0,0,1-9.342,9.808l-.238,3.306V92.99a9.624,9.624,0,0,1-9.563-9.352A9.52,9.52,0,0,1,144.3,76.8ZM33.783,62.737a9.578,9.578,0,1,1,9.576,9.58A9.587,9.587,0,0,1,33.783,62.737Zm57.828,71.216a27.512,27.512,0,1,1,27.512-27.512A27.54,27.54,0,0,1,91.611,133.952Zm78.233,31.053a11.774,11.774,0,1,1,0-9A11.714,11.714,0,0,1,169.844,165.005Zm47.263-58.188a11.772,11.772,0,0,1-11.484,12.046l-.284,0a11.839,11.839,0,0,1-11.758-11.487,11.674,11.674,0,0,1,3.249-8.4,11.765,11.765,0,0,1,20.277,7.834Zm-16-17.582a18.293,18.293,0,0,0-9.656,29.82L168.79,144.973a18.234,18.234,0,0,0-20.247.413l-28.98-19.434a33.569,33.569,0,0,0,5.623-25.443L138.279,93a16.187,16.187,0,0,0,12.951,6.6l.4,0a16.112,16.112,0,0,0,13.027-25.142l10-12.171a33.716,33.716,0,0,0,19.09,5.96l.846-.013c.889-.017,1.768-.1,2.648-.188Zm-6.681-27.612-.684.01a27.51,27.51,0,0,1-.638-55.012l.678-.01a27.662,27.662,0,0,1,27.483,26.851,27.506,27.506,0,0,1-26.838,28.16ZM251.2,71.893a11.7,11.7,0,0,1-8.231,3.646l-.284,0A11.77,11.77,0,1,1,254.438,63.49,11.674,11.674,0,0,1,251.2,71.893Z" transform="translate(0 0)" fill="#f7f7f7"/>
          </g>
          <g id="Group_2393" data-name="Group 2393" transform="translate(59.369 312.003) rotate(-22)">
            <path id="Path_22690" data-name="Path 22690" d="M242.683,45.392l-.446.007a18.359,18.359,0,0,0-14.373,7.547L223.676,50.5a33.846,33.846,0,0,0,4.2-17.2A34.322,34.322,0,0,0,193.784,0l-.84.013a34.013,34.013,0,0,0-23.367,58.033l-9.656,11.761a16.024,16.024,0,0,0-8.677-2.585l-.4.007a16.172,16.172,0,0,0-15.391,19.764l-12.125,6.955a34.027,34.027,0,0,0-55.1-12.3L56.787,71.774a16.512,16.512,0,1,0-4.79,4.6L63.884,86.626a33.887,33.887,0,0,0-6.393,19.814c0,.9.066,1.772.135,2.651l-21.271,3.365a18.425,18.425,0,1,0,.155,6.667L58.777,115.6a34.142,34.142,0,0,0,10.376,16.465l-3.074,4.972a18.122,18.122,0,0,0-5.282-.783,18.439,18.439,0,1,0,11.176,3.821l2.559-4.139a33.926,33.926,0,0,0,40.705-4.925l28.55,19.146A18.415,18.415,0,0,0,142,153.445a18.375,18.375,0,1,0,33.952.03,18.53,18.53,0,0,0-2.317-4l22.957-26.26a18.11,18.11,0,0,0,8.743,2.258l.446,0a18.373,18.373,0,0,0,17.933-18.819,18.5,18.5,0,0,0-15.953-17.748L203.72,66.743a33.834,33.834,0,0,0,14.743-9.081c.526-.542.988-1.124,1.468-1.7l5.035,2.945a18.269,18.269,0,0,0-.658,5.3,18.494,18.494,0,0,0,18.376,17.939l.443-.007a18.374,18.374,0,0,0,17.923-18.815A18.48,18.48,0,0,0,242.683,45.392Zm-224.3,82.633a11.766,11.766,0,1,1,11.765-11.761A11.78,11.78,0,0,1,18.379,128.025ZM60.8,166.39a11.763,11.763,0,1,1,11.765-11.761A11.78,11.78,0,0,1,60.8,166.39ZM144.3,76.8a9.579,9.579,0,0,1,16.508,6.38,9.584,9.584,0,0,1-9.342,9.808l-.238,3.306V92.99a9.624,9.624,0,0,1-9.563-9.352A9.52,9.52,0,0,1,144.3,76.8ZM33.783,62.737a9.578,9.578,0,1,1,9.576,9.58A9.587,9.587,0,0,1,33.783,62.737Zm57.828,71.216a27.512,27.512,0,1,1,27.512-27.512A27.54,27.54,0,0,1,91.611,133.952Zm78.233,31.053a11.774,11.774,0,1,1,0-9A11.714,11.714,0,0,1,169.844,165.005Zm47.263-58.188a11.772,11.772,0,0,1-11.484,12.046l-.284,0a11.839,11.839,0,0,1-11.758-11.487,11.674,11.674,0,0,1,3.249-8.4,11.765,11.765,0,0,1,20.277,7.834Zm-16-17.582a18.293,18.293,0,0,0-9.656,29.82L168.79,144.973a18.234,18.234,0,0,0-20.247.413l-28.98-19.434a33.568,33.568,0,0,0,5.623-25.443L138.279,93a16.187,16.187,0,0,0,12.951,6.6l.4,0a16.112,16.112,0,0,0,13.027-25.142l10-12.171a33.716,33.716,0,0,0,19.09,5.96l.846-.013c.889-.017,1.768-.1,2.648-.188Zm-6.681-27.612-.684.01a27.51,27.51,0,0,1-.638-55.012l.678-.01a27.662,27.662,0,0,1,27.483,26.851,27.506,27.506,0,0,1-26.838,28.16ZM251.2,71.893a11.7,11.7,0,0,1-8.231,3.646l-.284,0A11.77,11.77,0,1,1,254.438,63.49,11.674,11.674,0,0,1,251.2,71.893Z" transform="translate(0 0)" fill="#f7f7f7"/>
          </g>
          <g id="Group_2394" data-name="Group 2394" transform="matrix(-0.755, -0.656, 0.656, -0.755, 312.381, 306.266)">
            <path id="Path_22691" data-name="Path 22691" d="M242.683,45.392l-.446.007a18.359,18.359,0,0,0-14.373,7.547L223.676,50.5a33.846,33.846,0,0,0,4.2-17.2A34.322,34.322,0,0,0,193.784,0l-.84.013a34.013,34.013,0,0,0-23.367,58.033l-9.656,11.761a16.024,16.024,0,0,0-8.677-2.585l-.4.007a16.172,16.172,0,0,0-15.391,19.764l-12.125,6.955a34.027,34.027,0,0,0-55.1-12.3L56.787,71.774a16.512,16.512,0,1,0-4.79,4.6L63.884,86.626a33.887,33.887,0,0,0-6.393,19.814c0,.9.066,1.772.135,2.651l-21.271,3.365a18.425,18.425,0,1,0,.155,6.667L58.777,115.6a34.142,34.142,0,0,0,10.376,16.465l-3.074,4.972a18.123,18.123,0,0,0-5.282-.783,18.439,18.439,0,1,0,11.176,3.821l2.559-4.139a33.926,33.926,0,0,0,40.705-4.925l28.55,19.146A18.413,18.413,0,0,0,142,153.446a18.375,18.375,0,1,0,33.952.03,18.531,18.531,0,0,0-2.317-4l22.957-26.26a18.11,18.11,0,0,0,8.743,2.258l.446,0a18.373,18.373,0,0,0,17.933-18.819,18.5,18.5,0,0,0-15.953-17.748L203.72,66.743a33.834,33.834,0,0,0,14.743-9.081c.526-.542.988-1.124,1.468-1.7l5.035,2.945a18.269,18.269,0,0,0-.658,5.3,18.494,18.494,0,0,0,18.376,17.939l.443-.007a18.374,18.374,0,0,0,17.923-18.815A18.48,18.48,0,0,0,242.683,45.392Zm-224.3,82.633a11.766,11.766,0,1,1,11.765-11.761A11.78,11.78,0,0,1,18.379,128.025ZM60.8,166.39a11.763,11.763,0,1,1,11.765-11.761A11.78,11.78,0,0,1,60.8,166.39ZM144.3,76.8a9.579,9.579,0,0,1,16.508,6.38,9.584,9.584,0,0,1-9.342,9.808l-.238,3.306V92.99a9.624,9.624,0,0,1-9.563-9.352A9.52,9.52,0,0,1,144.3,76.8ZM33.783,62.737a9.578,9.578,0,1,1,9.576,9.58A9.587,9.587,0,0,1,33.783,62.737Zm57.828,71.216a27.512,27.512,0,1,1,27.512-27.512A27.54,27.54,0,0,1,91.611,133.952Zm78.233,31.053a11.774,11.774,0,1,1,0-9A11.714,11.714,0,0,1,169.844,165.005Zm47.263-58.188a11.772,11.772,0,0,1-11.484,12.046l-.284,0a11.839,11.839,0,0,1-11.758-11.487,11.674,11.674,0,0,1,3.249-8.4,11.765,11.765,0,0,1,20.277,7.834Zm-16-17.582a18.293,18.293,0,0,0-9.656,29.82L168.79,144.973a18.234,18.234,0,0,0-20.247.413l-28.98-19.434a33.568,33.568,0,0,0,5.623-25.443L138.279,93a16.187,16.187,0,0,0,12.951,6.6l.4,0a16.112,16.112,0,0,0,13.027-25.142l10-12.171a33.716,33.716,0,0,0,19.09,5.96l.846-.013c.889-.017,1.768-.1,2.648-.188Zm-6.681-27.612-.684.01a27.51,27.51,0,0,1-.638-55.012l.678-.01a27.662,27.662,0,0,1,27.483,26.851,27.506,27.506,0,0,1-26.838,28.16ZM251.2,71.893a11.7,11.7,0,0,1-8.231,3.646l-.284,0A11.77,11.77,0,1,1,254.438,63.49,11.674,11.674,0,0,1,251.2,71.893Z" transform="translate(0 0)" fill="#f7f7f7"/>
          </g>
        </g>
        <g id="Group_2399" data-name="Group 2399" transform="matrix(-0.259, 0.966, -0.966, -0.259, -1075.073, 513.019)">
          <g id="Group_2396" data-name="Group 2396" transform="translate(177.542 45.263) rotate(83)">
            <path id="Path_22692" data-name="Path 22692" d="M242.683,45.392l-.446.007a18.359,18.359,0,0,0-14.373,7.547L223.676,50.5a33.846,33.846,0,0,0,4.2-17.2A34.322,34.322,0,0,0,193.784,0l-.84.013a34.013,34.013,0,0,0-23.367,58.033l-9.656,11.761a16.024,16.024,0,0,0-8.677-2.585l-.4.007a16.172,16.172,0,0,0-15.391,19.764l-12.125,6.955a34.027,34.027,0,0,0-55.1-12.3L56.787,71.774a16.512,16.512,0,1,0-4.79,4.6L63.884,86.626a33.887,33.887,0,0,0-6.393,19.814c0,.9.066,1.772.135,2.651l-21.271,3.365a18.425,18.425,0,1,0,.155,6.667L58.777,115.6a34.142,34.142,0,0,0,10.376,16.465l-3.074,4.972a18.123,18.123,0,0,0-5.282-.783,18.439,18.439,0,1,0,11.176,3.821l2.559-4.139a33.926,33.926,0,0,0,40.705-4.925l28.55,19.146A18.415,18.415,0,0,0,142,153.445a18.375,18.375,0,1,0,33.952.03,18.53,18.53,0,0,0-2.317-4l22.957-26.26a18.11,18.11,0,0,0,8.743,2.258l.446,0a18.373,18.373,0,0,0,17.933-18.819,18.5,18.5,0,0,0-15.953-17.748L203.72,66.743a33.835,33.835,0,0,0,14.743-9.081c.526-.542.988-1.124,1.468-1.7l5.035,2.945a18.269,18.269,0,0,0-.658,5.3,18.494,18.494,0,0,0,18.376,17.939l.443-.007a18.374,18.374,0,0,0,17.923-18.815A18.48,18.48,0,0,0,242.683,45.392Zm-224.3,82.633a11.766,11.766,0,1,1,11.765-11.761A11.78,11.78,0,0,1,18.379,128.025ZM60.8,166.39a11.763,11.763,0,1,1,11.765-11.761A11.78,11.78,0,0,1,60.8,166.39ZM144.3,76.8a9.579,9.579,0,0,1,16.508,6.38,9.584,9.584,0,0,1-9.342,9.808l-.238,3.306V92.99a9.624,9.624,0,0,1-9.563-9.352A9.52,9.52,0,0,1,144.3,76.8ZM33.783,62.737a9.578,9.578,0,1,1,9.576,9.58A9.587,9.587,0,0,1,33.783,62.737Zm57.828,71.216a27.512,27.512,0,1,1,27.512-27.512A27.54,27.54,0,0,1,91.611,133.952Zm78.233,31.053a11.774,11.774,0,1,1,0-9A11.714,11.714,0,0,1,169.844,165.005Zm47.263-58.188a11.772,11.772,0,0,1-11.484,12.046l-.284,0a11.839,11.839,0,0,1-11.758-11.487,11.674,11.674,0,0,1,3.249-8.4,11.765,11.765,0,0,1,20.277,7.834Zm-16-17.582a18.293,18.293,0,0,0-9.656,29.82L168.79,144.973a18.234,18.234,0,0,0-20.247.413l-28.98-19.434a33.568,33.568,0,0,0,5.623-25.443L138.279,93a16.187,16.187,0,0,0,12.951,6.6l.4,0a16.112,16.112,0,0,0,13.027-25.142l10-12.171a33.716,33.716,0,0,0,19.09,5.96l.846-.013c.889-.017,1.768-.1,2.648-.188Zm-6.681-27.612-.684.01a27.51,27.51,0,0,1-.638-55.012l.678-.01a27.662,27.662,0,0,1,27.483,26.851,27.506,27.506,0,0,1-26.838,28.16ZM251.2,71.893a11.7,11.7,0,0,1-8.231,3.646l-.284,0A11.77,11.77,0,1,1,254.438,63.49,11.674,11.674,0,0,1,251.2,71.893Z" transform="translate(0 0)" fill="#f7f7f7"/>
          </g>
          <g id="Group_2397" data-name="Group 2397" transform="translate(59.369 312.003) rotate(-22)">
            <path id="Path_22693" data-name="Path 22693" d="M242.683,45.392l-.446.007a18.359,18.359,0,0,0-14.373,7.547L223.676,50.5a33.847,33.847,0,0,0,4.2-17.2A34.322,34.322,0,0,0,193.784,0l-.84.013a34.013,34.013,0,0,0-23.367,58.033l-9.656,11.761a16.024,16.024,0,0,0-8.677-2.585l-.4.007a16.172,16.172,0,0,0-15.391,19.764l-12.125,6.955a34.027,34.027,0,0,0-55.1-12.3L56.787,71.774a16.512,16.512,0,1,0-4.79,4.6L63.884,86.626a33.887,33.887,0,0,0-6.393,19.814c0,.9.066,1.772.135,2.651l-21.271,3.365a18.425,18.425,0,1,0,.155,6.667L58.777,115.6a34.142,34.142,0,0,0,10.376,16.465l-3.074,4.972a18.123,18.123,0,0,0-5.282-.783,18.439,18.439,0,1,0,11.176,3.821l2.559-4.139a33.926,33.926,0,0,0,40.7-4.925l28.55,19.146A18.414,18.414,0,0,0,142,153.446a18.375,18.375,0,1,0,33.952.03,18.53,18.53,0,0,0-2.317-4l22.957-26.26a18.11,18.11,0,0,0,8.743,2.258l.446,0a18.373,18.373,0,0,0,17.933-18.819,18.5,18.5,0,0,0-15.953-17.748L203.72,66.743a33.834,33.834,0,0,0,14.743-9.081c.526-.542.988-1.124,1.468-1.7l5.034,2.945a18.27,18.27,0,0,0-.658,5.3,18.494,18.494,0,0,0,18.376,17.939l.443-.007a18.374,18.374,0,0,0,17.923-18.815A18.48,18.48,0,0,0,242.683,45.392Zm-224.3,82.633a11.766,11.766,0,1,1,11.765-11.761A11.78,11.78,0,0,1,18.379,128.025ZM60.8,166.39a11.763,11.763,0,1,1,11.765-11.761A11.78,11.78,0,0,1,60.8,166.39ZM144.3,76.8a9.579,9.579,0,0,1,16.508,6.38,9.584,9.584,0,0,1-9.342,9.808l-.238,3.306V92.99a9.624,9.624,0,0,1-9.563-9.352A9.52,9.52,0,0,1,144.3,76.8ZM33.783,62.737a9.578,9.578,0,1,1,9.576,9.58A9.587,9.587,0,0,1,33.783,62.737Zm57.828,71.216a27.512,27.512,0,1,1,27.512-27.512A27.54,27.54,0,0,1,91.611,133.952Zm78.233,31.053a11.774,11.774,0,1,1,0-9A11.714,11.714,0,0,1,169.844,165.005Zm47.263-58.188a11.772,11.772,0,0,1-11.484,12.046l-.284,0a11.839,11.839,0,0,1-11.758-11.487,11.674,11.674,0,0,1,3.249-8.4,11.765,11.765,0,0,1,20.277,7.834Zm-16-17.582a18.293,18.293,0,0,0-9.656,29.82L168.79,144.973a18.234,18.234,0,0,0-20.247.413l-28.98-19.434a33.569,33.569,0,0,0,5.623-25.443L138.279,93a16.187,16.187,0,0,0,12.951,6.6l.4,0a16.112,16.112,0,0,0,13.027-25.142l10-12.171a33.716,33.716,0,0,0,19.09,5.96l.846-.013c.889-.017,1.768-.1,2.648-.188Zm-6.681-27.612-.684.01a27.51,27.51,0,0,1-.638-55.012l.678-.01a27.662,27.662,0,0,1,27.483,26.851,27.506,27.506,0,0,1-26.838,28.16ZM251.2,71.893a11.7,11.7,0,0,1-8.231,3.646l-.284,0A11.77,11.77,0,1,1,254.438,63.49,11.674,11.674,0,0,1,251.2,71.893Z" transform="translate(0 0)" fill="#f7f7f7"/>
          </g>
          <g id="Group_2398" data-name="Group 2398" transform="matrix(-0.755, -0.656, 0.656, -0.755, 312.381, 306.266)">
            <path id="Path_22694" data-name="Path 22694" d="M242.683,45.392l-.446.007a18.359,18.359,0,0,0-14.373,7.547L223.676,50.5a33.846,33.846,0,0,0,4.2-17.2A34.322,34.322,0,0,0,193.784,0l-.84.013a34.013,34.013,0,0,0-23.367,58.033l-9.656,11.761a16.024,16.024,0,0,0-8.677-2.585l-.4.007a16.172,16.172,0,0,0-15.391,19.764l-12.125,6.955a34.027,34.027,0,0,0-55.1-12.3L56.787,71.774a16.512,16.512,0,1,0-4.79,4.6L63.884,86.626a33.887,33.887,0,0,0-6.393,19.814c0,.9.066,1.772.135,2.651l-21.271,3.365a18.425,18.425,0,1,0,.155,6.667L58.777,115.6a34.142,34.142,0,0,0,10.376,16.465l-3.074,4.972a18.122,18.122,0,0,0-5.282-.783,18.439,18.439,0,1,0,11.176,3.821l2.559-4.139a33.926,33.926,0,0,0,40.705-4.925l28.55,19.146A18.414,18.414,0,0,0,142,153.445a18.375,18.375,0,1,0,33.952.03,18.53,18.53,0,0,0-2.317-4l22.957-26.26a18.11,18.11,0,0,0,8.743,2.258l.446,0a18.373,18.373,0,0,0,17.933-18.819,18.5,18.5,0,0,0-15.953-17.748L203.72,66.743a33.834,33.834,0,0,0,14.743-9.08c.526-.542.988-1.124,1.468-1.7l5.035,2.945a18.269,18.269,0,0,0-.658,5.3,18.494,18.494,0,0,0,18.376,17.939l.443-.007a18.374,18.374,0,0,0,17.923-18.815A18.48,18.48,0,0,0,242.683,45.392Zm-224.3,82.633a11.766,11.766,0,1,1,11.765-11.761A11.78,11.78,0,0,1,18.379,128.025ZM60.8,166.39a11.763,11.763,0,1,1,11.765-11.761A11.78,11.78,0,0,1,60.8,166.39ZM144.3,76.8a9.579,9.579,0,0,1,16.508,6.38,9.584,9.584,0,0,1-9.342,9.808l-.238,3.306V92.99a9.624,9.624,0,0,1-9.563-9.352A9.52,9.52,0,0,1,144.3,76.8ZM33.783,62.737a9.578,9.578,0,1,1,9.576,9.58A9.587,9.587,0,0,1,33.783,62.737Zm57.828,71.216a27.512,27.512,0,1,1,27.512-27.512A27.54,27.54,0,0,1,91.611,133.952Zm78.233,31.053a11.774,11.774,0,1,1,0-9A11.714,11.714,0,0,1,169.844,165.005Zm47.263-58.188a11.772,11.772,0,0,1-11.484,12.046l-.284,0a11.839,11.839,0,0,1-11.758-11.487,11.674,11.674,0,0,1,3.249-8.4,11.765,11.765,0,0,1,20.277,7.834Zm-16-17.582a18.293,18.293,0,0,0-9.656,29.82L168.79,144.973a18.234,18.234,0,0,0-20.247.413l-28.98-19.434a33.568,33.568,0,0,0,5.623-25.443L138.279,93a16.187,16.187,0,0,0,12.951,6.6l.4,0a16.112,16.112,0,0,0,13.027-25.142l10-12.171a33.716,33.716,0,0,0,19.09,5.96l.846-.013c.889-.017,1.768-.1,2.648-.188Zm-6.681-27.612-.684.01a27.51,27.51,0,0,1-.638-55.012l.678-.01a27.662,27.662,0,0,1,27.483,26.851,27.506,27.506,0,0,1-26.838,28.16ZM251.2,71.893a11.7,11.7,0,0,1-8.231,3.646l-.284,0A11.77,11.77,0,1,1,254.438,63.49,11.674,11.674,0,0,1,251.2,71.893Z" transform="translate(0 0)" fill="#f7f7f7"/>
          </g>
        </g>
        <g id="Group_2403" data-name="Group 2403" transform="translate(-2021.435 693.209) rotate(-45)">
          <g id="Group_2400" data-name="Group 2400" transform="translate(177.542 45.263) rotate(83)">
            <path id="Path_22695" data-name="Path 22695" d="M242.683,45.392l-.446.007a18.359,18.359,0,0,0-14.373,7.547L223.676,50.5a33.846,33.846,0,0,0,4.2-17.2A34.322,34.322,0,0,0,193.784,0l-.84.013a34.013,34.013,0,0,0-23.367,58.033l-9.656,11.761a16.024,16.024,0,0,0-8.677-2.585l-.4.007a16.172,16.172,0,0,0-15.391,19.764l-12.125,6.955a34.027,34.027,0,0,0-55.1-12.3L56.787,71.774a16.512,16.512,0,1,0-4.79,4.6L63.884,86.626a33.887,33.887,0,0,0-6.393,19.814c0,.9.066,1.772.135,2.651l-21.271,3.365a18.425,18.425,0,1,0,.155,6.667L58.777,115.6a34.142,34.142,0,0,0,10.376,16.465l-3.074,4.972a18.122,18.122,0,0,0-5.282-.783,18.439,18.439,0,1,0,11.176,3.821l2.559-4.139a33.926,33.926,0,0,0,40.705-4.925l28.55,19.146A18.414,18.414,0,0,0,142,153.445a18.375,18.375,0,1,0,33.952.03,18.53,18.53,0,0,0-2.317-4l22.957-26.26a18.11,18.11,0,0,0,8.743,2.258l.446,0a18.373,18.373,0,0,0,17.933-18.819,18.5,18.5,0,0,0-15.953-17.748L203.72,66.743a33.834,33.834,0,0,0,14.743-9.081c.526-.542.988-1.124,1.468-1.7l5.035,2.945a18.269,18.269,0,0,0-.658,5.3,18.494,18.494,0,0,0,18.376,17.939l.443-.007a18.374,18.374,0,0,0,17.923-18.815A18.48,18.48,0,0,0,242.683,45.392Zm-224.3,82.633a11.766,11.766,0,1,1,11.765-11.761A11.78,11.78,0,0,1,18.379,128.025ZM60.8,166.39a11.763,11.763,0,1,1,11.765-11.761A11.78,11.78,0,0,1,60.8,166.39ZM144.3,76.8a9.579,9.579,0,0,1,16.508,6.38,9.584,9.584,0,0,1-9.342,9.808l-.238,3.306V92.99a9.624,9.624,0,0,1-9.563-9.352A9.52,9.52,0,0,1,144.3,76.8ZM33.783,62.737a9.578,9.578,0,1,1,9.576,9.58A9.587,9.587,0,0,1,33.783,62.737Zm57.828,71.216a27.512,27.512,0,1,1,27.512-27.512A27.54,27.54,0,0,1,91.611,133.952Zm78.233,31.053a11.774,11.774,0,1,1,0-9A11.714,11.714,0,0,1,169.844,165.005Zm47.263-58.188a11.772,11.772,0,0,1-11.484,12.046l-.284,0a11.839,11.839,0,0,1-11.758-11.487,11.674,11.674,0,0,1,3.249-8.4,11.765,11.765,0,0,1,20.277,7.834Zm-16-17.582a18.293,18.293,0,0,0-9.656,29.82L168.79,144.973a18.234,18.234,0,0,0-20.247.413l-28.98-19.434a33.568,33.568,0,0,0,5.623-25.443L138.279,93a16.187,16.187,0,0,0,12.951,6.6l.4,0a16.112,16.112,0,0,0,13.027-25.142l10-12.171a33.716,33.716,0,0,0,19.09,5.96l.846-.013c.889-.017,1.768-.1,2.648-.188Zm-6.681-27.612-.684.01a27.51,27.51,0,0,1-.638-55.012l.678-.01a27.662,27.662,0,0,1,27.483,26.851,27.506,27.506,0,0,1-26.838,28.16Zm56.77,10.27a11.7,11.7,0,0,1-8.231,3.646l-.284,0A11.77,11.77,0,1,1,254.438,63.49,11.674,11.674,0,0,1,251.2,71.893Z" transform="translate(0 0)" fill="#f7f7f7"/>
          </g>
          <g id="Group_2401" data-name="Group 2401" transform="translate(59.369 312.003) rotate(-22)">
            <path id="Path_22696" data-name="Path 22696" d="M242.683,45.392l-.446.007a18.359,18.359,0,0,0-14.373,7.547L223.676,50.5a33.847,33.847,0,0,0,4.2-17.2A34.322,34.322,0,0,0,193.784,0l-.84.013a34.013,34.013,0,0,0-23.367,58.033l-9.656,11.761a16.024,16.024,0,0,0-8.677-2.585l-.4.007a16.172,16.172,0,0,0-15.391,19.764l-12.125,6.955a34.027,34.027,0,0,0-55.1-12.3L56.787,71.774a16.512,16.512,0,1,0-4.79,4.6L63.884,86.626a33.887,33.887,0,0,0-6.393,19.814c0,.9.066,1.772.135,2.651l-21.271,3.365a18.425,18.425,0,1,0,.155,6.667L58.777,115.6a34.142,34.142,0,0,0,10.376,16.465l-3.074,4.972a18.123,18.123,0,0,0-5.282-.783,18.439,18.439,0,1,0,11.176,3.821l2.559-4.139a33.926,33.926,0,0,0,40.7-4.925l28.55,19.146A18.414,18.414,0,0,0,142,153.446a18.375,18.375,0,1,0,33.952.03,18.53,18.53,0,0,0-2.317-4l22.957-26.26a18.11,18.11,0,0,0,8.743,2.258l.446,0a18.373,18.373,0,0,0,17.933-18.819,18.5,18.5,0,0,0-15.953-17.748L203.72,66.743a33.834,33.834,0,0,0,14.743-9.081c.526-.542.988-1.124,1.468-1.7l5.034,2.945a18.27,18.27,0,0,0-.658,5.3,18.494,18.494,0,0,0,18.376,17.939l.443-.007a18.374,18.374,0,0,0,17.923-18.815A18.48,18.48,0,0,0,242.683,45.392Zm-224.3,82.633a11.766,11.766,0,1,1,11.765-11.761A11.78,11.78,0,0,1,18.379,128.025ZM60.8,166.39a11.763,11.763,0,1,1,11.765-11.761A11.78,11.78,0,0,1,60.8,166.39ZM144.3,76.8a9.579,9.579,0,0,1,16.508,6.38,9.584,9.584,0,0,1-9.342,9.808l-.238,3.306V92.99a9.624,9.624,0,0,1-9.563-9.352A9.52,9.52,0,0,1,144.3,76.8ZM33.783,62.737a9.578,9.578,0,1,1,9.576,9.58A9.587,9.587,0,0,1,33.783,62.737Zm57.828,71.216a27.512,27.512,0,1,1,27.512-27.512A27.54,27.54,0,0,1,91.611,133.952Zm78.233,31.053a11.774,11.774,0,1,1,0-9A11.714,11.714,0,0,1,169.844,165.005Zm47.263-58.188a11.772,11.772,0,0,1-11.484,12.046l-.284,0a11.839,11.839,0,0,1-11.758-11.487,11.674,11.674,0,0,1,3.249-8.4,11.765,11.765,0,0,1,20.277,7.834Zm-16-17.582a18.293,18.293,0,0,0-9.656,29.82L168.79,144.973a18.234,18.234,0,0,0-20.247.413l-28.98-19.434a33.569,33.569,0,0,0,5.623-25.443L138.279,93a16.187,16.187,0,0,0,12.951,6.6l.4,0a16.112,16.112,0,0,0,13.027-25.142l10-12.171a33.716,33.716,0,0,0,19.09,5.96l.846-.013c.889-.017,1.768-.1,2.648-.188Zm-6.681-27.612-.684.01a27.51,27.51,0,0,1-.638-55.012l.678-.01a27.662,27.662,0,0,1,27.483,26.851,27.506,27.506,0,0,1-26.838,28.16Zm56.77,10.27a11.7,11.7,0,0,1-8.231,3.646l-.284,0A11.77,11.77,0,1,1,254.438,63.49,11.674,11.674,0,0,1,251.2,71.893Z" transform="translate(0 0)" fill="#f7f7f7"/>
          </g>
          <g id="Group_2402" data-name="Group 2402" transform="matrix(-0.755, -0.656, 0.656, -0.755, 312.381, 306.266)">
            <path id="Path_22697" data-name="Path 22697" d="M242.683,45.392l-.446.007a18.359,18.359,0,0,0-14.373,7.547L223.676,50.5a33.846,33.846,0,0,0,4.2-17.2A34.322,34.322,0,0,0,193.784,0l-.84.013a34.013,34.013,0,0,0-23.367,58.033l-9.656,11.761a16.024,16.024,0,0,0-8.677-2.585l-.4.007a16.172,16.172,0,0,0-15.391,19.764l-12.125,6.955a34.027,34.027,0,0,0-55.1-12.3L56.787,71.774a16.512,16.512,0,1,0-4.79,4.6L63.884,86.626a33.887,33.887,0,0,0-6.393,19.814c0,.9.066,1.772.135,2.651l-21.271,3.365a18.425,18.425,0,1,0,.155,6.667L58.777,115.6a34.142,34.142,0,0,0,10.376,16.465l-3.074,4.972a18.123,18.123,0,0,0-5.282-.783,18.439,18.439,0,1,0,11.176,3.821l2.559-4.139a33.926,33.926,0,0,0,40.705-4.925l28.55,19.146A18.415,18.415,0,0,0,142,153.445a18.375,18.375,0,1,0,33.952.03,18.53,18.53,0,0,0-2.317-4l22.957-26.26a18.11,18.11,0,0,0,8.743,2.258l.446,0a18.373,18.373,0,0,0,17.933-18.819,18.5,18.5,0,0,0-15.953-17.748L203.72,66.743a33.835,33.835,0,0,0,14.743-9.081c.526-.542.988-1.124,1.468-1.7l5.035,2.945a18.269,18.269,0,0,0-.658,5.3,18.494,18.494,0,0,0,18.376,17.939l.443-.007a18.374,18.374,0,0,0,17.923-18.815A18.48,18.48,0,0,0,242.683,45.392Zm-224.3,82.633a11.766,11.766,0,1,1,11.765-11.761A11.78,11.78,0,0,1,18.379,128.025ZM60.8,166.39a11.763,11.763,0,1,1,11.765-11.761A11.78,11.78,0,0,1,60.8,166.39ZM144.3,76.8a9.579,9.579,0,0,1,16.508,6.38,9.584,9.584,0,0,1-9.342,9.808l-.238,3.306V92.99a9.624,9.624,0,0,1-9.563-9.352A9.52,9.52,0,0,1,144.3,76.8ZM33.783,62.737a9.578,9.578,0,1,1,9.576,9.58A9.587,9.587,0,0,1,33.783,62.737Zm57.828,71.216a27.512,27.512,0,1,1,27.512-27.512A27.54,27.54,0,0,1,91.611,133.952Zm78.233,31.053a11.774,11.774,0,1,1,0-9A11.714,11.714,0,0,1,169.844,165.005Zm47.263-58.188a11.772,11.772,0,0,1-11.484,12.046l-.284,0a11.839,11.839,0,0,1-11.758-11.487,11.674,11.674,0,0,1,3.249-8.4,11.765,11.765,0,0,1,20.277,7.834Zm-16-17.582a18.293,18.293,0,0,0-9.656,29.82L168.79,144.973a18.234,18.234,0,0,0-20.247.413l-28.98-19.434a33.568,33.568,0,0,0,5.623-25.443L138.279,93a16.187,16.187,0,0,0,12.951,6.6l.4,0a16.112,16.112,0,0,0,13.027-25.142l10-12.171a33.716,33.716,0,0,0,19.09,5.96l.846-.013c.889-.017,1.768-.1,2.648-.188Zm-6.681-27.612-.684.01a27.51,27.51,0,0,1-.638-55.012l.678-.01a27.662,27.662,0,0,1,27.483,26.851,27.506,27.506,0,0,1-26.838,28.16ZM251.2,71.893a11.7,11.7,0,0,1-8.231,3.646l-.284,0A11.77,11.77,0,1,1,254.438,63.49,11.674,11.674,0,0,1,251.2,71.893Z" transform="translate(0 0)" fill="#f7f7f7"/>
          </g>
        </g>
        <g id="Group_2408" data-name="Group 2408" transform="translate(-2106.837 623.296) rotate(-92)">
          <g id="Group_2407" data-name="Group 2407">
            <g id="Group_2404" data-name="Group 2404" transform="translate(177.542 45.263) rotate(83)">
              <path id="Path_22698" data-name="Path 22698" d="M242.683,45.392l-.446.007a18.359,18.359,0,0,0-14.373,7.547L223.676,50.5a33.846,33.846,0,0,0,4.2-17.2A34.322,34.322,0,0,0,193.784,0l-.84.013a34.013,34.013,0,0,0-23.367,58.033l-9.656,11.761a16.024,16.024,0,0,0-8.677-2.585l-.4.007a16.172,16.172,0,0,0-15.391,19.764l-12.125,6.955a34.027,34.027,0,0,0-55.1-12.3L56.787,71.774a16.512,16.512,0,1,0-4.79,4.6L63.884,86.626a33.887,33.887,0,0,0-6.393,19.814c0,.9.066,1.772.135,2.651l-21.271,3.365a18.425,18.425,0,1,0,.155,6.667L58.777,115.6a34.142,34.142,0,0,0,10.376,16.465l-3.074,4.972a18.122,18.122,0,0,0-5.282-.783,18.439,18.439,0,1,0,11.176,3.821l2.559-4.139a33.926,33.926,0,0,0,40.705-4.925l28.55,19.146A18.414,18.414,0,0,0,142,153.445a18.375,18.375,0,1,0,33.952.03,18.53,18.53,0,0,0-2.317-4l22.957-26.26a18.11,18.11,0,0,0,8.743,2.258l.446,0a18.373,18.373,0,0,0,17.933-18.819,18.5,18.5,0,0,0-15.953-17.748L203.72,66.743a33.834,33.834,0,0,0,14.743-9.081c.526-.542.988-1.124,1.468-1.7l5.035,2.945a18.269,18.269,0,0,0-.658,5.3,18.494,18.494,0,0,0,18.376,17.939l.443-.007a18.374,18.374,0,0,0,17.923-18.815A18.48,18.48,0,0,0,242.683,45.392Zm-224.3,82.633a11.766,11.766,0,1,1,11.765-11.761A11.78,11.78,0,0,1,18.379,128.025ZM60.8,166.39a11.763,11.763,0,1,1,11.765-11.761A11.78,11.78,0,0,1,60.8,166.39ZM144.3,76.8a9.579,9.579,0,0,1,16.508,6.38,9.584,9.584,0,0,1-9.342,9.808l-.238,3.306V92.99a9.624,9.624,0,0,1-9.563-9.352A9.52,9.52,0,0,1,144.3,76.8ZM33.783,62.737a9.578,9.578,0,1,1,9.576,9.58A9.587,9.587,0,0,1,33.783,62.737Zm57.828,71.216a27.512,27.512,0,1,1,27.512-27.512A27.54,27.54,0,0,1,91.611,133.952Zm78.233,31.053a11.774,11.774,0,1,1,0-9A11.714,11.714,0,0,1,169.844,165.005Zm47.263-58.188a11.772,11.772,0,0,1-11.484,12.046l-.284,0a11.839,11.839,0,0,1-11.758-11.487,11.674,11.674,0,0,1,3.249-8.4,11.765,11.765,0,0,1,20.277,7.834Zm-16-17.582a18.293,18.293,0,0,0-9.656,29.82L168.79,144.973a18.234,18.234,0,0,0-20.247.413l-28.98-19.434a33.568,33.568,0,0,0,5.623-25.443L138.279,93a16.187,16.187,0,0,0,12.951,6.6l.4,0a16.112,16.112,0,0,0,13.027-25.142l10-12.171a33.716,33.716,0,0,0,19.09,5.96l.846-.013c.889-.017,1.768-.1,2.648-.188Zm-6.681-27.612-.684.01a27.51,27.51,0,0,1-.638-55.012l.678-.01a27.662,27.662,0,0,1,27.483,26.851,27.506,27.506,0,0,1-26.838,28.16Zm56.77,10.27a11.7,11.7,0,0,1-8.231,3.646l-.284,0A11.77,11.77,0,1,1,254.438,63.49,11.674,11.674,0,0,1,251.2,71.893Z" transform="translate(0 0)" fill="#f7f7f7"/>
            </g>
            <g id="Group_2405" data-name="Group 2405" transform="translate(59.369 312.003) rotate(-22)">
              <path id="Path_22699" data-name="Path 22699" d="M242.683,45.392l-.446.007a18.359,18.359,0,0,0-14.373,7.547L223.676,50.5a33.847,33.847,0,0,0,4.2-17.2A34.322,34.322,0,0,0,193.784,0l-.84.013a34.013,34.013,0,0,0-23.367,58.033l-9.656,11.761a16.024,16.024,0,0,0-8.677-2.585l-.4.007a16.172,16.172,0,0,0-15.391,19.764l-12.125,6.955a34.027,34.027,0,0,0-55.1-12.3L56.787,71.774a16.512,16.512,0,1,0-4.79,4.6L63.884,86.626a33.887,33.887,0,0,0-6.393,19.814c0,.9.066,1.772.135,2.651l-21.271,3.365a18.425,18.425,0,1,0,.155,6.667L58.777,115.6a34.142,34.142,0,0,0,10.376,16.465l-3.074,4.972a18.123,18.123,0,0,0-5.282-.783,18.439,18.439,0,1,0,11.176,3.821l2.559-4.139a33.926,33.926,0,0,0,40.7-4.925l28.55,19.146A18.414,18.414,0,0,0,142,153.446a18.375,18.375,0,1,0,33.952.03,18.53,18.53,0,0,0-2.317-4l22.957-26.26a18.11,18.11,0,0,0,8.743,2.258l.446,0a18.373,18.373,0,0,0,17.933-18.819,18.5,18.5,0,0,0-15.953-17.748L203.72,66.743a33.834,33.834,0,0,0,14.743-9.081c.526-.542.988-1.124,1.468-1.7l5.034,2.945a18.27,18.27,0,0,0-.658,5.3,18.494,18.494,0,0,0,18.376,17.939l.443-.007a18.374,18.374,0,0,0,17.923-18.815A18.48,18.48,0,0,0,242.683,45.392Zm-224.3,82.633a11.766,11.766,0,1,1,11.765-11.761A11.78,11.78,0,0,1,18.379,128.025ZM60.8,166.39a11.763,11.763,0,1,1,11.765-11.761A11.78,11.78,0,0,1,60.8,166.39ZM144.3,76.8a9.579,9.579,0,0,1,16.508,6.38,9.584,9.584,0,0,1-9.342,9.808l-.238,3.306V92.99a9.624,9.624,0,0,1-9.563-9.352A9.52,9.52,0,0,1,144.3,76.8ZM33.783,62.737a9.578,9.578,0,1,1,9.576,9.58A9.587,9.587,0,0,1,33.783,62.737Zm57.828,71.216a27.512,27.512,0,1,1,27.512-27.512A27.54,27.54,0,0,1,91.611,133.952Zm78.233,31.053a11.774,11.774,0,1,1,0-9A11.714,11.714,0,0,1,169.844,165.005Zm47.263-58.188a11.772,11.772,0,0,1-11.484,12.046l-.284,0a11.839,11.839,0,0,1-11.758-11.487,11.674,11.674,0,0,1,3.249-8.4,11.765,11.765,0,0,1,20.277,7.834Zm-16-17.582a18.293,18.293,0,0,0-9.656,29.82L168.79,144.973a18.234,18.234,0,0,0-20.247.413l-28.98-19.434a33.569,33.569,0,0,0,5.623-25.443L138.279,93a16.187,16.187,0,0,0,12.951,6.6l.4,0a16.112,16.112,0,0,0,13.027-25.142l10-12.171a33.716,33.716,0,0,0,19.09,5.96l.846-.013c.889-.017,1.768-.1,2.648-.188Zm-6.681-27.612-.684.01a27.51,27.51,0,0,1-.638-55.012l.678-.01a27.662,27.662,0,0,1,27.483,26.851,27.506,27.506,0,0,1-26.838,28.16Zm56.77,10.27a11.7,11.7,0,0,1-8.231,3.646l-.284,0A11.77,11.77,0,1,1,254.438,63.49,11.674,11.674,0,0,1,251.2,71.893Z" transform="translate(0 0)" fill="#f7f7f7"/>
            </g>
            <g id="Group_2406" data-name="Group 2406" transform="translate(312.381 306.266) rotate(-139)">
              <path id="Path_22700" data-name="Path 22700" d="M242.683,45.392l-.446.007a18.359,18.359,0,0,0-14.373,7.547L223.676,50.5a33.846,33.846,0,0,0,4.2-17.2A34.322,34.322,0,0,0,193.784,0l-.84.013a34.013,34.013,0,0,0-23.367,58.033l-9.656,11.761a16.024,16.024,0,0,0-8.677-2.585l-.4.007a16.172,16.172,0,0,0-15.391,19.764l-12.125,6.955a34.027,34.027,0,0,0-55.1-12.3L56.787,71.774a16.512,16.512,0,1,0-4.79,4.6L63.884,86.626a33.887,33.887,0,0,0-6.393,19.814c0,.9.066,1.772.135,2.651l-21.271,3.365a18.425,18.425,0,1,0,.155,6.667L58.777,115.6a34.142,34.142,0,0,0,10.376,16.465l-3.074,4.972a18.123,18.123,0,0,0-5.282-.783,18.439,18.439,0,1,0,11.176,3.821l2.559-4.139a33.926,33.926,0,0,0,40.705-4.925l28.55,19.146A18.415,18.415,0,0,0,142,153.445a18.375,18.375,0,1,0,33.952.03,18.53,18.53,0,0,0-2.317-4l22.957-26.26a18.11,18.11,0,0,0,8.743,2.258l.446,0a18.373,18.373,0,0,0,17.933-18.819,18.5,18.5,0,0,0-15.953-17.748L203.72,66.743a33.835,33.835,0,0,0,14.743-9.081c.526-.542.988-1.124,1.468-1.7l5.035,2.945a18.269,18.269,0,0,0-.658,5.3,18.494,18.494,0,0,0,18.376,17.939l.443-.007a18.374,18.374,0,0,0,17.923-18.815A18.48,18.48,0,0,0,242.683,45.392Zm-224.3,82.633a11.766,11.766,0,1,1,11.765-11.761A11.78,11.78,0,0,1,18.379,128.025ZM60.8,166.39a11.763,11.763,0,1,1,11.765-11.761A11.78,11.78,0,0,1,60.8,166.39ZM144.3,76.8a9.579,9.579,0,0,1,16.508,6.38,9.584,9.584,0,0,1-9.342,9.808l-.238,3.306V92.99a9.624,9.624,0,0,1-9.563-9.352A9.52,9.52,0,0,1,144.3,76.8ZM33.783,62.737a9.578,9.578,0,1,1,9.576,9.58A9.587,9.587,0,0,1,33.783,62.737Zm57.828,71.216a27.512,27.512,0,1,1,27.512-27.512A27.54,27.54,0,0,1,91.611,133.952Zm78.233,31.053a11.774,11.774,0,1,1,0-9A11.714,11.714,0,0,1,169.844,165.005Zm47.263-58.188a11.772,11.772,0,0,1-11.484,12.046l-.284,0a11.839,11.839,0,0,1-11.758-11.487,11.674,11.674,0,0,1,3.249-8.4,11.765,11.765,0,0,1,20.277,7.834Zm-16-17.582a18.293,18.293,0,0,0-9.656,29.82L168.79,144.973a18.234,18.234,0,0,0-20.247.413l-28.98-19.434a33.568,33.568,0,0,0,5.623-25.443L138.279,93a16.187,16.187,0,0,0,12.951,6.6l.4,0a16.112,16.112,0,0,0,13.027-25.142l10-12.171a33.716,33.716,0,0,0,19.09,5.96l.846-.013c.889-.017,1.768-.1,2.648-.188Zm-6.681-27.612-.684.01a27.51,27.51,0,0,1-.638-55.012l.678-.01a27.662,27.662,0,0,1,27.483,26.851,27.506,27.506,0,0,1-26.838,28.16ZM251.2,71.893a11.7,11.7,0,0,1-8.231,3.646l-.284,0A11.77,11.77,0,1,1,254.438,63.49,11.674,11.674,0,0,1,251.2,71.893Z" transform="translate(0 0)" fill="#f7f7f7"/>
            </g>
          </g>
        </g>
      </g>
    </g>
    <g id="Mask_Group_24" data-name="Mask Group 24" transform="matrix(-0.985, -0.174, 0.174, -0.985, 1943.832, 7684.39)" opacity="0.07" clip-path="url(#clip-path)">
      <g id="Group_2427" data-name="Group 2427" transform="matrix(0.985, 0.174, -0.174, 0.985, 1781.556, 285.826)">
        <g id="Group_2413" data-name="Group 2413" transform="translate(-1744.396 56)">
          <g id="Group_2410" data-name="Group 2410" transform="translate(177.542 45.263) rotate(83)">
            <path id="Path_22701" data-name="Path 22701" d="M242.683,45.392l-.446.007a18.359,18.359,0,0,0-14.373,7.547L223.676,50.5a33.847,33.847,0,0,0,4.2-17.2A34.322,34.322,0,0,0,193.784,0l-.84.013a34.013,34.013,0,0,0-23.367,58.033l-9.656,11.761a16.024,16.024,0,0,0-8.677-2.585l-.4.007a16.172,16.172,0,0,0-15.391,19.764l-12.125,6.955a34.027,34.027,0,0,0-55.1-12.3L56.787,71.774a16.512,16.512,0,1,0-4.79,4.6L63.884,86.626a33.887,33.887,0,0,0-6.393,19.814c0,.9.066,1.772.135,2.651l-21.271,3.365a18.425,18.425,0,1,0,.155,6.667L58.777,115.6a34.142,34.142,0,0,0,10.376,16.465l-3.074,4.972a18.123,18.123,0,0,0-5.282-.783,18.439,18.439,0,1,0,11.176,3.821l2.559-4.139a33.926,33.926,0,0,0,40.7-4.925l28.55,19.146A18.414,18.414,0,0,0,142,153.446a18.375,18.375,0,1,0,33.952.03,18.53,18.53,0,0,0-2.317-4l22.957-26.26a18.11,18.11,0,0,0,8.743,2.258l.446,0a18.373,18.373,0,0,0,17.933-18.819,18.5,18.5,0,0,0-15.953-17.748L203.72,66.743a33.834,33.834,0,0,0,14.743-9.081c.526-.542.988-1.124,1.468-1.7l5.034,2.945a18.27,18.27,0,0,0-.658,5.3,18.494,18.494,0,0,0,18.376,17.939l.443-.007a18.374,18.374,0,0,0,17.923-18.815A18.48,18.48,0,0,0,242.683,45.392Zm-224.3,82.633a11.766,11.766,0,1,1,11.765-11.761A11.78,11.78,0,0,1,18.379,128.025ZM60.8,166.39a11.763,11.763,0,1,1,11.765-11.761A11.78,11.78,0,0,1,60.8,166.39ZM144.3,76.8a9.579,9.579,0,0,1,16.508,6.38,9.584,9.584,0,0,1-9.342,9.808l-.238,3.306V92.99a9.624,9.624,0,0,1-9.563-9.352A9.52,9.52,0,0,1,144.3,76.8ZM33.783,62.737a9.578,9.578,0,1,1,9.576,9.58A9.587,9.587,0,0,1,33.783,62.737Zm57.828,71.216a27.512,27.512,0,1,1,27.512-27.512A27.54,27.54,0,0,1,91.611,133.952Zm78.233,31.053a11.774,11.774,0,1,1,0-9A11.714,11.714,0,0,1,169.844,165.005Zm47.263-58.188a11.772,11.772,0,0,1-11.484,12.046l-.284,0a11.839,11.839,0,0,1-11.758-11.487,11.674,11.674,0,0,1,3.249-8.4,11.765,11.765,0,0,1,20.277,7.834Zm-16-17.582a18.293,18.293,0,0,0-9.656,29.82L168.79,144.973a18.234,18.234,0,0,0-20.247.413l-28.98-19.434a33.569,33.569,0,0,0,5.623-25.443L138.279,93a16.187,16.187,0,0,0,12.951,6.6l.4,0a16.112,16.112,0,0,0,13.027-25.142l10-12.171a33.716,33.716,0,0,0,19.09,5.96l.846-.013c.889-.017,1.768-.1,2.648-.188Zm-6.681-27.612-.684.01a27.51,27.51,0,0,1-.638-55.012l.678-.01a27.662,27.662,0,0,1,27.483,26.851,27.506,27.506,0,0,1-26.838,28.16ZM251.2,71.893a11.7,11.7,0,0,1-8.231,3.646l-.284,0A11.77,11.77,0,1,1,254.438,63.49,11.674,11.674,0,0,1,251.2,71.893Z" transform="translate(0 0)" fill="#f7f7f7"/>
          </g>
          <g id="Group_2411" data-name="Group 2411" transform="translate(59.369 312.003) rotate(-22)">
            <path id="Path_22702" data-name="Path 22702" d="M242.683,45.392l-.446.007a18.359,18.359,0,0,0-14.373,7.547L223.676,50.5a33.846,33.846,0,0,0,4.2-17.2A34.322,34.322,0,0,0,193.784,0l-.84.013a34.013,34.013,0,0,0-23.367,58.033l-9.656,11.761a16.024,16.024,0,0,0-8.677-2.585l-.4.007a16.172,16.172,0,0,0-15.391,19.764l-12.125,6.955a34.027,34.027,0,0,0-55.1-12.3L56.787,71.774a16.512,16.512,0,1,0-4.79,4.6L63.884,86.626a33.887,33.887,0,0,0-6.393,19.814c0,.9.066,1.772.135,2.651l-21.271,3.365a18.425,18.425,0,1,0,.155,6.667L58.777,115.6a34.142,34.142,0,0,0,10.376,16.465l-3.074,4.972a18.122,18.122,0,0,0-5.282-.783,18.439,18.439,0,1,0,11.176,3.821l2.559-4.139a33.926,33.926,0,0,0,40.705-4.925l28.55,19.146A18.415,18.415,0,0,0,142,153.445a18.375,18.375,0,1,0,33.952.03,18.53,18.53,0,0,0-2.317-4l22.957-26.26a18.11,18.11,0,0,0,8.743,2.258l.446,0a18.373,18.373,0,0,0,17.933-18.819,18.5,18.5,0,0,0-15.953-17.748L203.72,66.743a33.834,33.834,0,0,0,14.743-9.081c.526-.542.988-1.124,1.468-1.7l5.035,2.945a18.269,18.269,0,0,0-.658,5.3,18.494,18.494,0,0,0,18.376,17.939l.443-.007a18.374,18.374,0,0,0,17.923-18.815A18.48,18.48,0,0,0,242.683,45.392Zm-224.3,82.633a11.766,11.766,0,1,1,11.765-11.761A11.78,11.78,0,0,1,18.379,128.025ZM60.8,166.39a11.763,11.763,0,1,1,11.765-11.761A11.78,11.78,0,0,1,60.8,166.39ZM144.3,76.8a9.579,9.579,0,0,1,16.508,6.38,9.584,9.584,0,0,1-9.342,9.808l-.238,3.306V92.99a9.624,9.624,0,0,1-9.563-9.352A9.52,9.52,0,0,1,144.3,76.8ZM33.783,62.737a9.578,9.578,0,1,1,9.576,9.58A9.587,9.587,0,0,1,33.783,62.737Zm57.828,71.216a27.512,27.512,0,1,1,27.512-27.512A27.54,27.54,0,0,1,91.611,133.952Zm78.233,31.053a11.774,11.774,0,1,1,0-9A11.714,11.714,0,0,1,169.844,165.005Zm47.263-58.188a11.772,11.772,0,0,1-11.484,12.046l-.284,0a11.839,11.839,0,0,1-11.758-11.487,11.674,11.674,0,0,1,3.249-8.4,11.765,11.765,0,0,1,20.277,7.834Zm-16-17.582a18.293,18.293,0,0,0-9.656,29.82L168.79,144.973a18.234,18.234,0,0,0-20.247.413l-28.98-19.434a33.568,33.568,0,0,0,5.623-25.443L138.279,93a16.187,16.187,0,0,0,12.951,6.6l.4,0a16.112,16.112,0,0,0,13.027-25.142l10-12.171a33.716,33.716,0,0,0,19.09,5.96l.846-.013c.889-.017,1.768-.1,2.648-.188Zm-6.681-27.612-.684.01a27.51,27.51,0,0,1-.638-55.012l.678-.01a27.662,27.662,0,0,1,27.483,26.851,27.506,27.506,0,0,1-26.838,28.16ZM251.2,71.893a11.7,11.7,0,0,1-8.231,3.646l-.284,0A11.77,11.77,0,1,1,254.438,63.49,11.674,11.674,0,0,1,251.2,71.893Z" transform="translate(0 0)" fill="#f7f7f7"/>
          </g>
          <g id="Group_2412" data-name="Group 2412" transform="matrix(-0.755, -0.656, 0.656, -0.755, 312.381, 306.266)">
            <path id="Path_22703" data-name="Path 22703" d="M242.683,45.392l-.446.007a18.359,18.359,0,0,0-14.373,7.547L223.676,50.5a33.846,33.846,0,0,0,4.2-17.2A34.322,34.322,0,0,0,193.784,0l-.84.013a34.013,34.013,0,0,0-23.367,58.033l-9.656,11.761a16.024,16.024,0,0,0-8.677-2.585l-.4.007a16.172,16.172,0,0,0-15.391,19.764l-12.125,6.955a34.027,34.027,0,0,0-55.1-12.3L56.787,71.774a16.512,16.512,0,1,0-4.79,4.6L63.884,86.626a33.887,33.887,0,0,0-6.393,19.814c0,.9.066,1.772.135,2.651l-21.271,3.365a18.425,18.425,0,1,0,.155,6.667L58.777,115.6a34.142,34.142,0,0,0,10.376,16.465l-3.074,4.972a18.123,18.123,0,0,0-5.282-.783,18.439,18.439,0,1,0,11.176,3.821l2.559-4.139a33.926,33.926,0,0,0,40.705-4.925l28.55,19.146A18.413,18.413,0,0,0,142,153.446a18.375,18.375,0,1,0,33.952.03,18.531,18.531,0,0,0-2.317-4l22.957-26.26a18.11,18.11,0,0,0,8.743,2.258l.446,0a18.373,18.373,0,0,0,17.933-18.819,18.5,18.5,0,0,0-15.953-17.748L203.72,66.743a33.834,33.834,0,0,0,14.743-9.081c.526-.542.988-1.124,1.468-1.7l5.035,2.945a18.269,18.269,0,0,0-.658,5.3,18.494,18.494,0,0,0,18.376,17.939l.443-.007a18.374,18.374,0,0,0,17.923-18.815A18.48,18.48,0,0,0,242.683,45.392Zm-224.3,82.633a11.766,11.766,0,1,1,11.765-11.761A11.78,11.78,0,0,1,18.379,128.025ZM60.8,166.39a11.763,11.763,0,1,1,11.765-11.761A11.78,11.78,0,0,1,60.8,166.39ZM144.3,76.8a9.579,9.579,0,0,1,16.508,6.38,9.584,9.584,0,0,1-9.342,9.808l-.238,3.306V92.99a9.624,9.624,0,0,1-9.563-9.352A9.52,9.52,0,0,1,144.3,76.8ZM33.783,62.737a9.578,9.578,0,1,1,9.576,9.58A9.587,9.587,0,0,1,33.783,62.737Zm57.828,71.216a27.512,27.512,0,1,1,27.512-27.512A27.54,27.54,0,0,1,91.611,133.952Zm78.233,31.053a11.774,11.774,0,1,1,0-9A11.714,11.714,0,0,1,169.844,165.005Zm47.263-58.188a11.772,11.772,0,0,1-11.484,12.046l-.284,0a11.839,11.839,0,0,1-11.758-11.487,11.674,11.674,0,0,1,3.249-8.4,11.765,11.765,0,0,1,20.277,7.834Zm-16-17.582a18.293,18.293,0,0,0-9.656,29.82L168.79,144.973a18.234,18.234,0,0,0-20.247.413l-28.98-19.434a33.568,33.568,0,0,0,5.623-25.443L138.279,93a16.187,16.187,0,0,0,12.951,6.6l.4,0a16.112,16.112,0,0,0,13.027-25.142l10-12.171a33.716,33.716,0,0,0,19.09,5.96l.846-.013c.889-.017,1.768-.1,2.648-.188Zm-6.681-27.612-.684.01a27.51,27.51,0,0,1-.638-55.012l.678-.01a27.662,27.662,0,0,1,27.483,26.851,27.506,27.506,0,0,1-26.838,28.16ZM251.2,71.893a11.7,11.7,0,0,1-8.231,3.646l-.284,0A11.77,11.77,0,1,1,254.438,63.49,11.674,11.674,0,0,1,251.2,71.893Z" transform="translate(0 0)" fill="#f7f7f7"/>
          </g>
        </g>
        <g id="Group_2417" data-name="Group 2417" transform="matrix(-0.259, 0.966, -0.966, -0.259, -1075.073, 513.019)">
          <g id="Group_2414" data-name="Group 2414" transform="translate(177.542 45.263) rotate(83)">
            <path id="Path_22704" data-name="Path 22704" d="M242.683,45.392l-.446.007a18.359,18.359,0,0,0-14.373,7.547L223.676,50.5a33.846,33.846,0,0,0,4.2-17.2A34.322,34.322,0,0,0,193.784,0l-.84.013a34.013,34.013,0,0,0-23.367,58.033l-9.656,11.761a16.024,16.024,0,0,0-8.677-2.585l-.4.007a16.172,16.172,0,0,0-15.391,19.764l-12.125,6.955a34.027,34.027,0,0,0-55.1-12.3L56.787,71.774a16.512,16.512,0,1,0-4.79,4.6L63.884,86.626a33.887,33.887,0,0,0-6.393,19.814c0,.9.066,1.772.135,2.651l-21.271,3.365a18.425,18.425,0,1,0,.155,6.667L58.777,115.6a34.142,34.142,0,0,0,10.376,16.465l-3.074,4.972a18.123,18.123,0,0,0-5.282-.783,18.439,18.439,0,1,0,11.176,3.821l2.559-4.139a33.926,33.926,0,0,0,40.705-4.925l28.55,19.146A18.415,18.415,0,0,0,142,153.445a18.375,18.375,0,1,0,33.952.03,18.53,18.53,0,0,0-2.317-4l22.957-26.26a18.11,18.11,0,0,0,8.743,2.258l.446,0a18.373,18.373,0,0,0,17.933-18.819,18.5,18.5,0,0,0-15.953-17.748L203.72,66.743a33.835,33.835,0,0,0,14.743-9.081c.526-.542.988-1.124,1.468-1.7l5.035,2.945a18.269,18.269,0,0,0-.658,5.3,18.494,18.494,0,0,0,18.376,17.939l.443-.007a18.374,18.374,0,0,0,17.923-18.815A18.48,18.48,0,0,0,242.683,45.392Zm-224.3,82.633a11.766,11.766,0,1,1,11.765-11.761A11.78,11.78,0,0,1,18.379,128.025ZM60.8,166.39a11.763,11.763,0,1,1,11.765-11.761A11.78,11.78,0,0,1,60.8,166.39ZM144.3,76.8a9.579,9.579,0,0,1,16.508,6.38,9.584,9.584,0,0,1-9.342,9.808l-.238,3.306V92.99a9.624,9.624,0,0,1-9.563-9.352A9.52,9.52,0,0,1,144.3,76.8ZM33.783,62.737a9.578,9.578,0,1,1,9.576,9.58A9.587,9.587,0,0,1,33.783,62.737Zm57.828,71.216a27.512,27.512,0,1,1,27.512-27.512A27.54,27.54,0,0,1,91.611,133.952Zm78.233,31.053a11.774,11.774,0,1,1,0-9A11.714,11.714,0,0,1,169.844,165.005Zm47.263-58.188a11.772,11.772,0,0,1-11.484,12.046l-.284,0a11.839,11.839,0,0,1-11.758-11.487,11.674,11.674,0,0,1,3.249-8.4,11.765,11.765,0,0,1,20.277,7.834Zm-16-17.582a18.293,18.293,0,0,0-9.656,29.82L168.79,144.973a18.234,18.234,0,0,0-20.247.413l-28.98-19.434a33.568,33.568,0,0,0,5.623-25.443L138.279,93a16.187,16.187,0,0,0,12.951,6.6l.4,0a16.112,16.112,0,0,0,13.027-25.142l10-12.171a33.716,33.716,0,0,0,19.09,5.96l.846-.013c.889-.017,1.768-.1,2.648-.188Zm-6.681-27.612-.684.01a27.51,27.51,0,0,1-.638-55.012l.678-.01a27.662,27.662,0,0,1,27.483,26.851,27.506,27.506,0,0,1-26.838,28.16ZM251.2,71.893a11.7,11.7,0,0,1-8.231,3.646l-.284,0A11.77,11.77,0,1,1,254.438,63.49,11.674,11.674,0,0,1,251.2,71.893Z" transform="translate(0 0)" fill="#f7f7f7"/>
          </g>
          <g id="Group_2415" data-name="Group 2415" transform="translate(59.369 312.003) rotate(-22)">
            <path id="Path_22705" data-name="Path 22705" d="M242.683,45.392l-.446.007a18.359,18.359,0,0,0-14.373,7.547L223.676,50.5a33.847,33.847,0,0,0,4.2-17.2A34.322,34.322,0,0,0,193.784,0l-.84.013a34.013,34.013,0,0,0-23.367,58.033l-9.656,11.761a16.024,16.024,0,0,0-8.677-2.585l-.4.007a16.172,16.172,0,0,0-15.391,19.764l-12.125,6.955a34.027,34.027,0,0,0-55.1-12.3L56.787,71.774a16.512,16.512,0,1,0-4.79,4.6L63.884,86.626a33.887,33.887,0,0,0-6.393,19.814c0,.9.066,1.772.135,2.651l-21.271,3.365a18.425,18.425,0,1,0,.155,6.667L58.777,115.6a34.142,34.142,0,0,0,10.376,16.465l-3.074,4.972a18.123,18.123,0,0,0-5.282-.783,18.439,18.439,0,1,0,11.176,3.821l2.559-4.139a33.926,33.926,0,0,0,40.7-4.925l28.55,19.146A18.414,18.414,0,0,0,142,153.446a18.375,18.375,0,1,0,33.952.03,18.53,18.53,0,0,0-2.317-4l22.957-26.26a18.11,18.11,0,0,0,8.743,2.258l.446,0a18.373,18.373,0,0,0,17.933-18.819,18.5,18.5,0,0,0-15.953-17.748L203.72,66.743a33.834,33.834,0,0,0,14.743-9.081c.526-.542.988-1.124,1.468-1.7l5.034,2.945a18.27,18.27,0,0,0-.658,5.3,18.494,18.494,0,0,0,18.376,17.939l.443-.007a18.374,18.374,0,0,0,17.923-18.815A18.48,18.48,0,0,0,242.683,45.392Zm-224.3,82.633a11.766,11.766,0,1,1,11.765-11.761A11.78,11.78,0,0,1,18.379,128.025ZM60.8,166.39a11.763,11.763,0,1,1,11.765-11.761A11.78,11.78,0,0,1,60.8,166.39ZM144.3,76.8a9.579,9.579,0,0,1,16.508,6.38,9.584,9.584,0,0,1-9.342,9.808l-.238,3.306V92.99a9.624,9.624,0,0,1-9.563-9.352A9.52,9.52,0,0,1,144.3,76.8ZM33.783,62.737a9.578,9.578,0,1,1,9.576,9.58A9.587,9.587,0,0,1,33.783,62.737Zm57.828,71.216a27.512,27.512,0,1,1,27.512-27.512A27.54,27.54,0,0,1,91.611,133.952Zm78.233,31.053a11.774,11.774,0,1,1,0-9A11.714,11.714,0,0,1,169.844,165.005Zm47.263-58.188a11.772,11.772,0,0,1-11.484,12.046l-.284,0a11.839,11.839,0,0,1-11.758-11.487,11.674,11.674,0,0,1,3.249-8.4,11.765,11.765,0,0,1,20.277,7.834Zm-16-17.582a18.293,18.293,0,0,0-9.656,29.82L168.79,144.973a18.234,18.234,0,0,0-20.247.413l-28.98-19.434a33.569,33.569,0,0,0,5.623-25.443L138.279,93a16.187,16.187,0,0,0,12.951,6.6l.4,0a16.112,16.112,0,0,0,13.027-25.142l10-12.171a33.716,33.716,0,0,0,19.09,5.96l.846-.013c.889-.017,1.768-.1,2.648-.188Zm-6.681-27.612-.684.01a27.51,27.51,0,0,1-.638-55.012l.678-.01a27.662,27.662,0,0,1,27.483,26.851,27.506,27.506,0,0,1-26.838,28.16ZM251.2,71.893a11.7,11.7,0,0,1-8.231,3.646l-.284,0A11.77,11.77,0,1,1,254.438,63.49,11.674,11.674,0,0,1,251.2,71.893Z" transform="translate(0 0)" fill="#f7f7f7"/>
          </g>
          <g id="Group_2416" data-name="Group 2416" transform="matrix(-0.755, -0.656, 0.656, -0.755, 312.381, 306.266)">
            <path id="Path_22706" data-name="Path 22706" d="M242.683,45.392l-.446.007a18.359,18.359,0,0,0-14.373,7.547L223.676,50.5a33.846,33.846,0,0,0,4.2-17.2A34.322,34.322,0,0,0,193.784,0l-.84.013a34.013,34.013,0,0,0-23.367,58.033l-9.656,11.761a16.024,16.024,0,0,0-8.677-2.585l-.4.007a16.172,16.172,0,0,0-15.391,19.764l-12.125,6.955a34.027,34.027,0,0,0-55.1-12.3L56.787,71.774a16.512,16.512,0,1,0-4.79,4.6L63.884,86.626a33.887,33.887,0,0,0-6.393,19.814c0,.9.066,1.772.135,2.651l-21.271,3.365a18.425,18.425,0,1,0,.155,6.667L58.777,115.6a34.142,34.142,0,0,0,10.376,16.465l-3.074,4.972a18.122,18.122,0,0,0-5.282-.783,18.439,18.439,0,1,0,11.176,3.821l2.559-4.139a33.926,33.926,0,0,0,40.705-4.925l28.55,19.146A18.414,18.414,0,0,0,142,153.445a18.375,18.375,0,1,0,33.952.03,18.53,18.53,0,0,0-2.317-4l22.957-26.26a18.11,18.11,0,0,0,8.743,2.258l.446,0a18.373,18.373,0,0,0,17.933-18.819,18.5,18.5,0,0,0-15.953-17.748L203.72,66.743a33.834,33.834,0,0,0,14.743-9.08c.526-.542.988-1.124,1.468-1.7l5.035,2.945a18.269,18.269,0,0,0-.658,5.3,18.494,18.494,0,0,0,18.376,17.939l.443-.007a18.374,18.374,0,0,0,17.923-18.815A18.48,18.48,0,0,0,242.683,45.392Zm-224.3,82.633a11.766,11.766,0,1,1,11.765-11.761A11.78,11.78,0,0,1,18.379,128.025ZM60.8,166.39a11.763,11.763,0,1,1,11.765-11.761A11.78,11.78,0,0,1,60.8,166.39ZM144.3,76.8a9.579,9.579,0,0,1,16.508,6.38,9.584,9.584,0,0,1-9.342,9.808l-.238,3.306V92.99a9.624,9.624,0,0,1-9.563-9.352A9.52,9.52,0,0,1,144.3,76.8ZM33.783,62.737a9.578,9.578,0,1,1,9.576,9.58A9.587,9.587,0,0,1,33.783,62.737Zm57.828,71.216a27.512,27.512,0,1,1,27.512-27.512A27.54,27.54,0,0,1,91.611,133.952Zm78.233,31.053a11.774,11.774,0,1,1,0-9A11.714,11.714,0,0,1,169.844,165.005Zm47.263-58.188a11.772,11.772,0,0,1-11.484,12.046l-.284,0a11.839,11.839,0,0,1-11.758-11.487,11.674,11.674,0,0,1,3.249-8.4,11.765,11.765,0,0,1,20.277,7.834Zm-16-17.582a18.293,18.293,0,0,0-9.656,29.82L168.79,144.973a18.234,18.234,0,0,0-20.247.413l-28.98-19.434a33.568,33.568,0,0,0,5.623-25.443L138.279,93a16.187,16.187,0,0,0,12.951,6.6l.4,0a16.112,16.112,0,0,0,13.027-25.142l10-12.171a33.716,33.716,0,0,0,19.09,5.96l.846-.013c.889-.017,1.768-.1,2.648-.188Zm-6.681-27.612-.684.01a27.51,27.51,0,0,1-.638-55.012l.678-.01a27.662,27.662,0,0,1,27.483,26.851,27.506,27.506,0,0,1-26.838,28.16ZM251.2,71.893a11.7,11.7,0,0,1-8.231,3.646l-.284,0A11.77,11.77,0,1,1,254.438,63.49,11.674,11.674,0,0,1,251.2,71.893Z" transform="translate(0 0)" fill="#f7f7f7"/>
          </g>
        </g>
        <g id="Group_2421" data-name="Group 2421" transform="translate(-2021.435 693.209) rotate(-45)">
          <g id="Group_2418" data-name="Group 2418" transform="translate(177.542 45.263) rotate(83)">
            <path id="Path_22707" data-name="Path 22707" d="M242.683,45.392l-.446.007a18.359,18.359,0,0,0-14.373,7.547L223.676,50.5a33.846,33.846,0,0,0,4.2-17.2A34.322,34.322,0,0,0,193.784,0l-.84.013a34.013,34.013,0,0,0-23.367,58.033l-9.656,11.761a16.024,16.024,0,0,0-8.677-2.585l-.4.007a16.172,16.172,0,0,0-15.391,19.764l-12.125,6.955a34.027,34.027,0,0,0-55.1-12.3L56.787,71.774a16.512,16.512,0,1,0-4.79,4.6L63.884,86.626a33.887,33.887,0,0,0-6.393,19.814c0,.9.066,1.772.135,2.651l-21.271,3.365a18.425,18.425,0,1,0,.155,6.667L58.777,115.6a34.142,34.142,0,0,0,10.376,16.465l-3.074,4.972a18.122,18.122,0,0,0-5.282-.783,18.439,18.439,0,1,0,11.176,3.821l2.559-4.139a33.926,33.926,0,0,0,40.705-4.925l28.55,19.146A18.414,18.414,0,0,0,142,153.445a18.375,18.375,0,1,0,33.952.03,18.53,18.53,0,0,0-2.317-4l22.957-26.26a18.11,18.11,0,0,0,8.743,2.258l.446,0a18.373,18.373,0,0,0,17.933-18.819,18.5,18.5,0,0,0-15.953-17.748L203.72,66.743a33.834,33.834,0,0,0,14.743-9.081c.526-.542.988-1.124,1.468-1.7l5.035,2.945a18.269,18.269,0,0,0-.658,5.3,18.494,18.494,0,0,0,18.376,17.939l.443-.007a18.374,18.374,0,0,0,17.923-18.815A18.48,18.48,0,0,0,242.683,45.392Zm-224.3,82.633a11.766,11.766,0,1,1,11.765-11.761A11.78,11.78,0,0,1,18.379,128.025ZM60.8,166.39a11.763,11.763,0,1,1,11.765-11.761A11.78,11.78,0,0,1,60.8,166.39ZM144.3,76.8a9.579,9.579,0,0,1,16.508,6.38,9.584,9.584,0,0,1-9.342,9.808l-.238,3.306V92.99a9.624,9.624,0,0,1-9.563-9.352A9.52,9.52,0,0,1,144.3,76.8ZM33.783,62.737a9.578,9.578,0,1,1,9.576,9.58A9.587,9.587,0,0,1,33.783,62.737Zm57.828,71.216a27.512,27.512,0,1,1,27.512-27.512A27.54,27.54,0,0,1,91.611,133.952Zm78.233,31.053a11.774,11.774,0,1,1,0-9A11.714,11.714,0,0,1,169.844,165.005Zm47.263-58.188a11.772,11.772,0,0,1-11.484,12.046l-.284,0a11.839,11.839,0,0,1-11.758-11.487,11.674,11.674,0,0,1,3.249-8.4,11.765,11.765,0,0,1,20.277,7.834Zm-16-17.582a18.293,18.293,0,0,0-9.656,29.82L168.79,144.973a18.234,18.234,0,0,0-20.247.413l-28.98-19.434a33.568,33.568,0,0,0,5.623-25.443L138.279,93a16.187,16.187,0,0,0,12.951,6.6l.4,0a16.112,16.112,0,0,0,13.027-25.142l10-12.171a33.716,33.716,0,0,0,19.09,5.96l.846-.013c.889-.017,1.768-.1,2.648-.188Zm-6.681-27.612-.684.01a27.51,27.51,0,0,1-.638-55.012l.678-.01a27.662,27.662,0,0,1,27.483,26.851,27.506,27.506,0,0,1-26.838,28.16Zm56.77,10.27a11.7,11.7,0,0,1-8.231,3.646l-.284,0A11.77,11.77,0,1,1,254.438,63.49,11.674,11.674,0,0,1,251.2,71.893Z" transform="translate(0 0)" fill="#f7f7f7"/>
          </g>
          <g id="Group_2419" data-name="Group 2419" transform="translate(59.369 312.003) rotate(-22)">
            <path id="Path_22708" data-name="Path 22708" d="M242.683,45.392l-.446.007a18.359,18.359,0,0,0-14.373,7.547L223.676,50.5a33.847,33.847,0,0,0,4.2-17.2A34.322,34.322,0,0,0,193.784,0l-.84.013a34.013,34.013,0,0,0-23.367,58.033l-9.656,11.761a16.024,16.024,0,0,0-8.677-2.585l-.4.007a16.172,16.172,0,0,0-15.391,19.764l-12.125,6.955a34.027,34.027,0,0,0-55.1-12.3L56.787,71.774a16.512,16.512,0,1,0-4.79,4.6L63.884,86.626a33.887,33.887,0,0,0-6.393,19.814c0,.9.066,1.772.135,2.651l-21.271,3.365a18.425,18.425,0,1,0,.155,6.667L58.777,115.6a34.142,34.142,0,0,0,10.376,16.465l-3.074,4.972a18.123,18.123,0,0,0-5.282-.783,18.439,18.439,0,1,0,11.176,3.821l2.559-4.139a33.926,33.926,0,0,0,40.7-4.925l28.55,19.146A18.414,18.414,0,0,0,142,153.446a18.375,18.375,0,1,0,33.952.03,18.53,18.53,0,0,0-2.317-4l22.957-26.26a18.11,18.11,0,0,0,8.743,2.258l.446,0a18.373,18.373,0,0,0,17.933-18.819,18.5,18.5,0,0,0-15.953-17.748L203.72,66.743a33.834,33.834,0,0,0,14.743-9.081c.526-.542.988-1.124,1.468-1.7l5.034,2.945a18.27,18.27,0,0,0-.658,5.3,18.494,18.494,0,0,0,18.376,17.939l.443-.007a18.374,18.374,0,0,0,17.923-18.815A18.48,18.48,0,0,0,242.683,45.392Zm-224.3,82.633a11.766,11.766,0,1,1,11.765-11.761A11.78,11.78,0,0,1,18.379,128.025ZM60.8,166.39a11.763,11.763,0,1,1,11.765-11.761A11.78,11.78,0,0,1,60.8,166.39ZM144.3,76.8a9.579,9.579,0,0,1,16.508,6.38,9.584,9.584,0,0,1-9.342,9.808l-.238,3.306V92.99a9.624,9.624,0,0,1-9.563-9.352A9.52,9.52,0,0,1,144.3,76.8ZM33.783,62.737a9.578,9.578,0,1,1,9.576,9.58A9.587,9.587,0,0,1,33.783,62.737Zm57.828,71.216a27.512,27.512,0,1,1,27.512-27.512A27.54,27.54,0,0,1,91.611,133.952Zm78.233,31.053a11.774,11.774,0,1,1,0-9A11.714,11.714,0,0,1,169.844,165.005Zm47.263-58.188a11.772,11.772,0,0,1-11.484,12.046l-.284,0a11.839,11.839,0,0,1-11.758-11.487,11.674,11.674,0,0,1,3.249-8.4,11.765,11.765,0,0,1,20.277,7.834Zm-16-17.582a18.293,18.293,0,0,0-9.656,29.82L168.79,144.973a18.234,18.234,0,0,0-20.247.413l-28.98-19.434a33.569,33.569,0,0,0,5.623-25.443L138.279,93a16.187,16.187,0,0,0,12.951,6.6l.4,0a16.112,16.112,0,0,0,13.027-25.142l10-12.171a33.716,33.716,0,0,0,19.09,5.96l.846-.013c.889-.017,1.768-.1,2.648-.188Zm-6.681-27.612-.684.01a27.51,27.51,0,0,1-.638-55.012l.678-.01a27.662,27.662,0,0,1,27.483,26.851,27.506,27.506,0,0,1-26.838,28.16Zm56.77,10.27a11.7,11.7,0,0,1-8.231,3.646l-.284,0A11.77,11.77,0,1,1,254.438,63.49,11.674,11.674,0,0,1,251.2,71.893Z" transform="translate(0 0)" fill="#f7f7f7"/>
          </g>
          <g id="Group_2420" data-name="Group 2420" transform="matrix(-0.755, -0.656, 0.656, -0.755, 312.381, 306.266)">
            <path id="Path_22709" data-name="Path 22709" d="M242.683,45.392l-.446.007a18.359,18.359,0,0,0-14.373,7.547L223.676,50.5a33.846,33.846,0,0,0,4.2-17.2A34.322,34.322,0,0,0,193.784,0l-.84.013a34.013,34.013,0,0,0-23.367,58.033l-9.656,11.761a16.024,16.024,0,0,0-8.677-2.585l-.4.007a16.172,16.172,0,0,0-15.391,19.764l-12.125,6.955a34.027,34.027,0,0,0-55.1-12.3L56.787,71.774a16.512,16.512,0,1,0-4.79,4.6L63.884,86.626a33.887,33.887,0,0,0-6.393,19.814c0,.9.066,1.772.135,2.651l-21.271,3.365a18.425,18.425,0,1,0,.155,6.667L58.777,115.6a34.142,34.142,0,0,0,10.376,16.465l-3.074,4.972a18.123,18.123,0,0,0-5.282-.783,18.439,18.439,0,1,0,11.176,3.821l2.559-4.139a33.926,33.926,0,0,0,40.705-4.925l28.55,19.146A18.415,18.415,0,0,0,142,153.445a18.375,18.375,0,1,0,33.952.03,18.53,18.53,0,0,0-2.317-4l22.957-26.26a18.11,18.11,0,0,0,8.743,2.258l.446,0a18.373,18.373,0,0,0,17.933-18.819,18.5,18.5,0,0,0-15.953-17.748L203.72,66.743a33.835,33.835,0,0,0,14.743-9.081c.526-.542.988-1.124,1.468-1.7l5.035,2.945a18.269,18.269,0,0,0-.658,5.3,18.494,18.494,0,0,0,18.376,17.939l.443-.007a18.374,18.374,0,0,0,17.923-18.815A18.48,18.48,0,0,0,242.683,45.392Zm-224.3,82.633a11.766,11.766,0,1,1,11.765-11.761A11.78,11.78,0,0,1,18.379,128.025ZM60.8,166.39a11.763,11.763,0,1,1,11.765-11.761A11.78,11.78,0,0,1,60.8,166.39ZM144.3,76.8a9.579,9.579,0,0,1,16.508,6.38,9.584,9.584,0,0,1-9.342,9.808l-.238,3.306V92.99a9.624,9.624,0,0,1-9.563-9.352A9.52,9.52,0,0,1,144.3,76.8ZM33.783,62.737a9.578,9.578,0,1,1,9.576,9.58A9.587,9.587,0,0,1,33.783,62.737Zm57.828,71.216a27.512,27.512,0,1,1,27.512-27.512A27.54,27.54,0,0,1,91.611,133.952Zm78.233,31.053a11.774,11.774,0,1,1,0-9A11.714,11.714,0,0,1,169.844,165.005Zm47.263-58.188a11.772,11.772,0,0,1-11.484,12.046l-.284,0a11.839,11.839,0,0,1-11.758-11.487,11.674,11.674,0,0,1,3.249-8.4,11.765,11.765,0,0,1,20.277,7.834Zm-16-17.582a18.293,18.293,0,0,0-9.656,29.82L168.79,144.973a18.234,18.234,0,0,0-20.247.413l-28.98-19.434a33.568,33.568,0,0,0,5.623-25.443L138.279,93a16.187,16.187,0,0,0,12.951,6.6l.4,0a16.112,16.112,0,0,0,13.027-25.142l10-12.171a33.716,33.716,0,0,0,19.09,5.96l.846-.013c.889-.017,1.768-.1,2.648-.188Zm-6.681-27.612-.684.01a27.51,27.51,0,0,1-.638-55.012l.678-.01a27.662,27.662,0,0,1,27.483,26.851,27.506,27.506,0,0,1-26.838,28.16ZM251.2,71.893a11.7,11.7,0,0,1-8.231,3.646l-.284,0A11.77,11.77,0,1,1,254.438,63.49,11.674,11.674,0,0,1,251.2,71.893Z" transform="translate(0 0)" fill="#f7f7f7"/>
          </g>
        </g>
        <g id="Group_2426" data-name="Group 2426" transform="translate(-2106.837 623.296) rotate(-92)">
          <g id="Group_2425" data-name="Group 2425">
            <g id="Group_2422" data-name="Group 2422" transform="translate(177.542 45.263) rotate(83)">
              <path id="Path_22710" data-name="Path 22710" d="M242.683,45.392l-.446.007a18.359,18.359,0,0,0-14.373,7.547L223.676,50.5a33.846,33.846,0,0,0,4.2-17.2A34.322,34.322,0,0,0,193.784,0l-.84.013a34.013,34.013,0,0,0-23.367,58.033l-9.656,11.761a16.024,16.024,0,0,0-8.677-2.585l-.4.007a16.172,16.172,0,0,0-15.391,19.764l-12.125,6.955a34.027,34.027,0,0,0-55.1-12.3L56.787,71.774a16.512,16.512,0,1,0-4.79,4.6L63.884,86.626a33.887,33.887,0,0,0-6.393,19.814c0,.9.066,1.772.135,2.651l-21.271,3.365a18.425,18.425,0,1,0,.155,6.667L58.777,115.6a34.142,34.142,0,0,0,10.376,16.465l-3.074,4.972a18.122,18.122,0,0,0-5.282-.783,18.439,18.439,0,1,0,11.176,3.821l2.559-4.139a33.926,33.926,0,0,0,40.705-4.925l28.55,19.146A18.414,18.414,0,0,0,142,153.445a18.375,18.375,0,1,0,33.952.03,18.53,18.53,0,0,0-2.317-4l22.957-26.26a18.11,18.11,0,0,0,8.743,2.258l.446,0a18.373,18.373,0,0,0,17.933-18.819,18.5,18.5,0,0,0-15.953-17.748L203.72,66.743a33.834,33.834,0,0,0,14.743-9.081c.526-.542.988-1.124,1.468-1.7l5.035,2.945a18.269,18.269,0,0,0-.658,5.3,18.494,18.494,0,0,0,18.376,17.939l.443-.007a18.374,18.374,0,0,0,17.923-18.815A18.48,18.48,0,0,0,242.683,45.392Zm-224.3,82.633a11.766,11.766,0,1,1,11.765-11.761A11.78,11.78,0,0,1,18.379,128.025ZM60.8,166.39a11.763,11.763,0,1,1,11.765-11.761A11.78,11.78,0,0,1,60.8,166.39ZM144.3,76.8a9.579,9.579,0,0,1,16.508,6.38,9.584,9.584,0,0,1-9.342,9.808l-.238,3.306V92.99a9.624,9.624,0,0,1-9.563-9.352A9.52,9.52,0,0,1,144.3,76.8ZM33.783,62.737a9.578,9.578,0,1,1,9.576,9.58A9.587,9.587,0,0,1,33.783,62.737Zm57.828,71.216a27.512,27.512,0,1,1,27.512-27.512A27.54,27.54,0,0,1,91.611,133.952Zm78.233,31.053a11.774,11.774,0,1,1,0-9A11.714,11.714,0,0,1,169.844,165.005Zm47.263-58.188a11.772,11.772,0,0,1-11.484,12.046l-.284,0a11.839,11.839,0,0,1-11.758-11.487,11.674,11.674,0,0,1,3.249-8.4,11.765,11.765,0,0,1,20.277,7.834Zm-16-17.582a18.293,18.293,0,0,0-9.656,29.82L168.79,144.973a18.234,18.234,0,0,0-20.247.413l-28.98-19.434a33.568,33.568,0,0,0,5.623-25.443L138.279,93a16.187,16.187,0,0,0,12.951,6.6l.4,0a16.112,16.112,0,0,0,13.027-25.142l10-12.171a33.716,33.716,0,0,0,19.09,5.96l.846-.013c.889-.017,1.768-.1,2.648-.188Zm-6.681-27.612-.684.01a27.51,27.51,0,0,1-.638-55.012l.678-.01a27.662,27.662,0,0,1,27.483,26.851,27.506,27.506,0,0,1-26.838,28.16Zm56.77,10.27a11.7,11.7,0,0,1-8.231,3.646l-.284,0A11.77,11.77,0,1,1,254.438,63.49,11.674,11.674,0,0,1,251.2,71.893Z" transform="translate(0 0)" fill="#f7f7f7"/>
            </g>
            <g id="Group_2423" data-name="Group 2423" transform="translate(59.369 312.003) rotate(-22)">
              <path id="Path_22711" data-name="Path 22711" d="M242.683,45.392l-.446.007a18.359,18.359,0,0,0-14.373,7.547L223.676,50.5a33.847,33.847,0,0,0,4.2-17.2A34.322,34.322,0,0,0,193.784,0l-.84.013a34.013,34.013,0,0,0-23.367,58.033l-9.656,11.761a16.024,16.024,0,0,0-8.677-2.585l-.4.007a16.172,16.172,0,0,0-15.391,19.764l-12.125,6.955a34.027,34.027,0,0,0-55.1-12.3L56.787,71.774a16.512,16.512,0,1,0-4.79,4.6L63.884,86.626a33.887,33.887,0,0,0-6.393,19.814c0,.9.066,1.772.135,2.651l-21.271,3.365a18.425,18.425,0,1,0,.155,6.667L58.777,115.6a34.142,34.142,0,0,0,10.376,16.465l-3.074,4.972a18.123,18.123,0,0,0-5.282-.783,18.439,18.439,0,1,0,11.176,3.821l2.559-4.139a33.926,33.926,0,0,0,40.7-4.925l28.55,19.146A18.414,18.414,0,0,0,142,153.446a18.375,18.375,0,1,0,33.952.03,18.53,18.53,0,0,0-2.317-4l22.957-26.26a18.11,18.11,0,0,0,8.743,2.258l.446,0a18.373,18.373,0,0,0,17.933-18.819,18.5,18.5,0,0,0-15.953-17.748L203.72,66.743a33.834,33.834,0,0,0,14.743-9.081c.526-.542.988-1.124,1.468-1.7l5.034,2.945a18.27,18.27,0,0,0-.658,5.3,18.494,18.494,0,0,0,18.376,17.939l.443-.007a18.374,18.374,0,0,0,17.923-18.815A18.48,18.48,0,0,0,242.683,45.392Zm-224.3,82.633a11.766,11.766,0,1,1,11.765-11.761A11.78,11.78,0,0,1,18.379,128.025ZM60.8,166.39a11.763,11.763,0,1,1,11.765-11.761A11.78,11.78,0,0,1,60.8,166.39ZM144.3,76.8a9.579,9.579,0,0,1,16.508,6.38,9.584,9.584,0,0,1-9.342,9.808l-.238,3.306V92.99a9.624,9.624,0,0,1-9.563-9.352A9.52,9.52,0,0,1,144.3,76.8ZM33.783,62.737a9.578,9.578,0,1,1,9.576,9.58A9.587,9.587,0,0,1,33.783,62.737Zm57.828,71.216a27.512,27.512,0,1,1,27.512-27.512A27.54,27.54,0,0,1,91.611,133.952Zm78.233,31.053a11.774,11.774,0,1,1,0-9A11.714,11.714,0,0,1,169.844,165.005Zm47.263-58.188a11.772,11.772,0,0,1-11.484,12.046l-.284,0a11.839,11.839,0,0,1-11.758-11.487,11.674,11.674,0,0,1,3.249-8.4,11.765,11.765,0,0,1,20.277,7.834Zm-16-17.582a18.293,18.293,0,0,0-9.656,29.82L168.79,144.973a18.234,18.234,0,0,0-20.247.413l-28.98-19.434a33.569,33.569,0,0,0,5.623-25.443L138.279,93a16.187,16.187,0,0,0,12.951,6.6l.4,0a16.112,16.112,0,0,0,13.027-25.142l10-12.171a33.716,33.716,0,0,0,19.09,5.96l.846-.013c.889-.017,1.768-.1,2.648-.188Zm-6.681-27.612-.684.01a27.51,27.51,0,0,1-.638-55.012l.678-.01a27.662,27.662,0,0,1,27.483,26.851,27.506,27.506,0,0,1-26.838,28.16Zm56.77,10.27a11.7,11.7,0,0,1-8.231,3.646l-.284,0A11.77,11.77,0,1,1,254.438,63.49,11.674,11.674,0,0,1,251.2,71.893Z" transform="translate(0 0)" fill="#f7f7f7"/>
            </g>
            <g id="Group_2424" data-name="Group 2424" transform="translate(312.381 306.266) rotate(-139)">
              <path id="Path_22712" data-name="Path 22712" d="M242.683,45.392l-.446.007a18.359,18.359,0,0,0-14.373,7.547L223.676,50.5a33.846,33.846,0,0,0,4.2-17.2A34.322,34.322,0,0,0,193.784,0l-.84.013a34.013,34.013,0,0,0-23.367,58.033l-9.656,11.761a16.024,16.024,0,0,0-8.677-2.585l-.4.007a16.172,16.172,0,0,0-15.391,19.764l-12.125,6.955a34.027,34.027,0,0,0-55.1-12.3L56.787,71.774a16.512,16.512,0,1,0-4.79,4.6L63.884,86.626a33.887,33.887,0,0,0-6.393,19.814c0,.9.066,1.772.135,2.651l-21.271,3.365a18.425,18.425,0,1,0,.155,6.667L58.777,115.6a34.142,34.142,0,0,0,10.376,16.465l-3.074,4.972a18.123,18.123,0,0,0-5.282-.783,18.439,18.439,0,1,0,11.176,3.821l2.559-4.139a33.926,33.926,0,0,0,40.705-4.925l28.55,19.146A18.415,18.415,0,0,0,142,153.445a18.375,18.375,0,1,0,33.952.03,18.53,18.53,0,0,0-2.317-4l22.957-26.26a18.11,18.11,0,0,0,8.743,2.258l.446,0a18.373,18.373,0,0,0,17.933-18.819,18.5,18.5,0,0,0-15.953-17.748L203.72,66.743a33.835,33.835,0,0,0,14.743-9.081c.526-.542.988-1.124,1.468-1.7l5.035,2.945a18.269,18.269,0,0,0-.658,5.3,18.494,18.494,0,0,0,18.376,17.939l.443-.007a18.374,18.374,0,0,0,17.923-18.815A18.48,18.48,0,0,0,242.683,45.392Zm-224.3,82.633a11.766,11.766,0,1,1,11.765-11.761A11.78,11.78,0,0,1,18.379,128.025ZM60.8,166.39a11.763,11.763,0,1,1,11.765-11.761A11.78,11.78,0,0,1,60.8,166.39ZM144.3,76.8a9.579,9.579,0,0,1,16.508,6.38,9.584,9.584,0,0,1-9.342,9.808l-.238,3.306V92.99a9.624,9.624,0,0,1-9.563-9.352A9.52,9.52,0,0,1,144.3,76.8ZM33.783,62.737a9.578,9.578,0,1,1,9.576,9.58A9.587,9.587,0,0,1,33.783,62.737Zm57.828,71.216a27.512,27.512,0,1,1,27.512-27.512A27.54,27.54,0,0,1,91.611,133.952Zm78.233,31.053a11.774,11.774,0,1,1,0-9A11.714,11.714,0,0,1,169.844,165.005Zm47.263-58.188a11.772,11.772,0,0,1-11.484,12.046l-.284,0a11.839,11.839,0,0,1-11.758-11.487,11.674,11.674,0,0,1,3.249-8.4,11.765,11.765,0,0,1,20.277,7.834Zm-16-17.582a18.293,18.293,0,0,0-9.656,29.82L168.79,144.973a18.234,18.234,0,0,0-20.247.413l-28.98-19.434a33.568,33.568,0,0,0,5.623-25.443L138.279,93a16.187,16.187,0,0,0,12.951,6.6l.4,0a16.112,16.112,0,0,0,13.027-25.142l10-12.171a33.716,33.716,0,0,0,19.09,5.96l.846-.013c.889-.017,1.768-.1,2.648-.188Zm-6.681-27.612-.684.01a27.51,27.51,0,0,1-.638-55.012l.678-.01a27.662,27.662,0,0,1,27.483,26.851,27.506,27.506,0,0,1-26.838,28.16ZM251.2,71.893a11.7,11.7,0,0,1-8.231,3.646l-.284,0A11.77,11.77,0,1,1,254.438,63.49,11.674,11.674,0,0,1,251.2,71.893Z" transform="translate(0 0)" fill="#f7f7f7"/>
            </g>
          </g>
        </g>
      </g>
    </g>
  </g>
</svg>
