<svg xmlns="http://www.w3.org/2000/svg" width="33.718" height="45.585" viewBox="0 0 33.718 45.585">
  <g id="noun_cardiac_3627835" transform="translate(-200.338 -69.3)">
    <g id="Group_2177" data-name="Group 2177" transform="translate(200.338 69.3)">
      <path id="Path_22561" data-name="Path 22561" d="M304.462,426.06c-2.531,0-6.321-1.46-10.892-3.22-1.341-.518-2.728-1.051-4.162-1.579a11.683,11.683,0,0,1-5.415-4.11,12.493,12.493,0,0,1-2.345-6.212,11.808,11.808,0,0,1,1.134-6.3,12.36,12.36,0,0,1,4.9-5.187c.352-.212.714-.4.994-.544l.01-.005c.192-.093.388-.192.6-.28,5.627-2.537,8.992-.456,10.855,1.827.264.036.507.078.745.124a12.437,12.437,0,0,1,5.668,2.878,13.417,13.417,0,0,1,4.54,9.5,18.873,18.873,0,0,1-1.657,8.65c-1,2.164-2.35,3.82-3.442,4.224A4.638,4.638,0,0,1,304.462,426.06Zm-15.328-26.23c-.388.2-.673.352-.921.507a10.9,10.9,0,0,0-5.529,10.5,11.116,11.116,0,0,0,7.087,9.447c1.439.528,2.832,1.066,4.178,1.584,5.187,2,9.665,3.722,11.678,2.977h0c1.418-.523,4.726-5.327,4.426-11.86a12.323,12.323,0,0,0-4.188-8.769,11.4,11.4,0,0,0-5.192-2.64c-.274-.057-.559-.1-.875-.14l-.212-.026-.135-.171c-2.335-2.977-5.611-3.546-9.753-1.682C289.506,399.648,289.32,399.737,289.134,399.83Z" transform="translate(-277.39 -380.474)" fill="#fff"/>
      <path id="Path_22562" data-name="Path 22562" d="M628.7,460.16a12.906,12.906,0,0,0-2.2-4.726l.362-.28.254-.5a.464.464,0,0,0-.207-.052h.254l.155.2a13.721,13.721,0,0,1,2.4,5.161l-1.015.2.507-.1Z" transform="translate(-604.439 -434.654)" fill="#fff"/>
      <path id="Path_22563" data-name="Path 22563" d="M207.889,134.22l-1.035-.062a34.573,34.573,0,0,0-.3-6.523c-3.608-1.641-5.668-4.618-6.124-8.847a26.785,26.785,0,0,1,1.372-10.457c1.765-5.777-.393-15.406-.414-15.5L202.4,92.6a53.231,53.231,0,0,1,.9,5.7,27.158,27.158,0,0,1-.5,10.333,25.681,25.681,0,0,0-1.33,10.043,9.3,9.3,0,0,0,5.767,8.122l.259.109.047.28A34.556,34.556,0,0,1,207.889,134.22Z" transform="translate(-200.338 -91.394)" fill="#fff"/>
      <path id="Path_22564" data-name="Path 22564" d="M377.3,88.309c-.28-1.191-.663-2.6-1.134-4.2a19.391,19.391,0,0,1-.787-5.006c-.2-2.169.44-9.494.466-9.8l1.03.088c-.005.078-.668,7.579-.466,9.629v.036a18.36,18.36,0,0,0,.745,4.757c.481,1.615.87,3.049,1.154,4.26Z" transform="translate(-366.283 -69.3)" fill="#fff"/>
      <path id="Path_22565" data-name="Path 22565" d="M569.142,85.654c-.311-.927-1.491-1.532-2.35-1.977a3.2,3.2,0,0,1-1.279-.89c-1.072-1.724-.207-4.467-.166-4.586l.984.316c-.005.026-.756,2.4.057,3.717a4.706,4.706,0,0,0,.875.523c1.02.528,2.417,1.248,2.857,2.568Z" transform="translate(-546.103 -77.739)" fill="#fff"/>
      <path id="Path_22566" data-name="Path 22566" d="M505.4,79.051a12.284,12.284,0,0,1-.062-5.451l1,.248a11.447,11.447,0,0,0,.062,4.944Z" transform="translate(-489.286 -73.377)" fill="#fff"/>
      <path id="Path_22567" data-name="Path 22567" d="M391.077,77.362a.779.779,0,0,1-.761-.611,6.924,6.924,0,0,0-2.516-4.307l.5-.906a6.4,6.4,0,0,1,2.324,2.894,22.576,22.576,0,0,1,.331-3.732l1.02.166a15.917,15.917,0,0,0-.145,5.549.634.634,0,0,1,.021.171.78.78,0,0,1-.621.761h-.01A.691.691,0,0,1,391.077,77.362Z" transform="translate(-378.096 -70.628)" fill="#fff"/>
      <path id="Path_22568" data-name="Path 22568" d="M486.657,272.882c-2.133-1.776-4.136-4.628-2.759-6.823l.026-.041a3.147,3.147,0,0,1,4.141-.512l-.569.864a2.145,2.145,0,0,0-2.738.264c-1.061,1.739,1.1,4.245,2.557,5.456Z" transform="translate(-468.789 -254.831)" fill="#fff"/>
      <path id="Path_22569" data-name="Path 22569" d="M511.319,274.165a30.971,30.971,0,0,0-9.075-.947,21.368,21.368,0,0,0-3.7.445l-.243-1a21.917,21.917,0,0,1,3.867-.471,32.006,32.006,0,0,1,9.411.978Z" transform="translate(-482.876 -261.653)" fill="#fff"/>
      <path id="Path_22570" data-name="Path 22570" d="M629.376,361.3l-.528-.347s-.021-.016-.067-.047l-.021-.016-.021-.016a11.4,11.4,0,0,0-5.192-2.64l-.073-.016-.062-.031c-2.076-1.077-1.139-3.893-.828-4.819a2.336,2.336,0,0,1,2.4-1.615c2.319.176,3.567,3.474,4.24,5.244.052.14.1.269.145.383a4.715,4.715,0,0,1,.238,3.344Zm-5.544-4.064a12.3,12.3,0,0,1,4.933,2.319,4.808,4.808,0,0,0-.362-1.807c-.047-.119-.093-.248-.15-.388-.549-1.444-1.688-4.447-3.354-4.576a1.3,1.3,0,0,0-1.336.911C623.159,354.926,622.745,356.613,623.832,357.24Z" transform="translate(-600.27 -337.129)" fill="#fff"/>
      <path id="Path_22571" data-name="Path 22571" d="M678.461,352.16a9.228,9.228,0,0,0-2.811-.16l-.15-1.025a10.3,10.3,0,0,1,3.153.171Z" transform="translate(-650.903 -336.346)" fill="#fff"/>
      <path id="Path_22572" data-name="Path 22572" d="M424.656,849.135a10.885,10.885,0,0,1-.005-2.635l1.025.129-.512-.067.512.067a10.334,10.334,0,0,0,.005,2.355Z" transform="translate(-412.964 -806.267)" fill="#fff"/>
      <path id="Path_22573" data-name="Path 22573" d="M607.592,504.694c-1.553-1.351-1.175-2.278-.776-3.261a4.608,4.608,0,0,0,.4-2.733,5.428,5.428,0,0,0-1.237-2.878A9.682,9.682,0,0,1,604.2,492.2a4.877,4.877,0,0,1,.657-4.483,4.49,4.49,0,0,1,1.584-1.32l.424.942-.212-.471.217.471c-.109.052-2.614,1.253-1.672,4.581a8.711,8.711,0,0,0,1.62,3.287,6.414,6.414,0,0,1,1.429,3.344,5.668,5.668,0,0,1-.471,3.282c-.362.89-.5,1.227.5,2.091Z" transform="translate(-583.051 -464.808)" fill="#fff"/>
      <path id="Path_22574" data-name="Path 22574" d="M521.619,555.676a3.425,3.425,0,0,1-.476-2.728,5.1,5.1,0,0,1,2.531-2.889c1.108-.621,1.672-2.635,1.8-3.36l1.02.176c-.021.124-.554,3.1-2.309,4.084a4.168,4.168,0,0,0-2.034,2.252,2.436,2.436,0,0,0,.362,1.926Z" transform="translate(-504.435 -521.987)" fill="#fff"/>
      <path id="Path_22575" data-name="Path 22575" d="M589.6,659.853a3.751,3.751,0,0,1,.285-4.633,8.141,8.141,0,0,0,1.434-3.82l1.03.109a8.982,8.982,0,0,1-1.7,4.41,2.822,2.822,0,0,0-.305,3.2Z" transform="translate(-568.814 -621.267)" fill="#fff"/>
      <path id="Path_22576" data-name="Path 22576" d="M619.275,594.357l-.021-.124c-.181-1.025-.409-2.3-2.713-2.79a11.436,11.436,0,0,1-4.742-2.371l.688-.771-.347.388.342-.388a10.594,10.594,0,0,0,4.266,2.133c2.982.642,3.318,2.505,3.515,3.624l.021.119Z" transform="translate(-590.5 -561.433)" fill="#fff"/>
      <path id="Path_22577" data-name="Path 22577" d="M670.564,758.047a3.151,3.151,0,0,1-2.086-1.517,6.984,6.984,0,0,1-.678-1.253l.963-.378c.217.549.984,2,1.936,2.122Z" transform="translate(-643.601 -719.409)" fill="#fff"/>
      <path id="Path_22578" data-name="Path 22578" d="M363.464,475.939c-.166-.357-.347-.388-.963-.44a4.12,4.12,0,0,1-2.407-.839c-1.869-1.424-1.682-4.436-1.672-4.561l1.035.072c0,.026-.155,2.583,1.268,3.67a3.1,3.1,0,0,0,1.864.626,1.832,1.832,0,0,1,1.817,1.035Z" transform="translate(-350.23 -449.352)" fill="#fff"/>
      <path id="Path_22579" data-name="Path 22579" d="M302.022,568.442a4.127,4.127,0,0,1-3.934-3.246A6.933,6.933,0,0,0,296.1,562.3l.652-.8a7.888,7.888,0,0,1,2.319,3.385,3.146,3.146,0,0,0,3.448,2.485l.145,1.025A4.516,4.516,0,0,1,302.022,568.442Z" transform="translate(-291.143 -536.021)" fill="#fff"/>
      <path id="Path_22580" data-name="Path 22580" d="M341.669,751.24a2.862,2.862,0,0,1-2.376-1.253,3,3,0,0,0-1.346-1.03,1.527,1.527,0,0,0-1.921.72l-.927-.466a2.555,2.555,0,0,1,3.173-1.237,3.962,3.962,0,0,1,1.8,1.33,1.869,1.869,0,0,0,1.734.9l.052,1.035C341.788,751.234,341.726,751.24,341.669,751.24Z" transform="translate(-328.124 -712.689)" fill="#fff"/>
    </g>
  </g>
</svg>
