<svg xmlns="http://www.w3.org/2000/svg" width="43.325" height="49.413" viewBox="0 0 43.325 49.413">
  <g id="Group_909" data-name="Group 909" transform="translate(0 0)">
    <path id="Path_4337" data-name="Path 4337" d="M46.388,47.181a8.749,8.749,0,0,0-5.875-6.876l-6.858-2.286V37H32.061v1.5l-1.189,4.757-3.219-3.863H25.311l-3.219,3.863L20.9,38.5V37H19.309v1.019l-6.857,2.286a8.749,8.749,0,0,0-5.875,6.876L4.819,57.722H48.144ZM18.512,48.955a1.594,1.594,0,1,1-1.594,1.594A1.6,1.6,0,0,1,18.512,48.955ZM8.148,47.444a7.159,7.159,0,0,1,4.807-5.626l4.76-1.587v7.243a3.188,3.188,0,1,0,1.594,0V39.7l.233-.077,1.766,7.064,4.751-5.7h.846l4.751,5.7,1.766-7.064.233.077v6.371l-3.02,1.51a3.172,3.172,0,0,0-1.762,2.852v.913a3.191,3.191,0,0,0,3.188,3.188h.8V52.94h-.8a1.6,1.6,0,0,1-1.594-1.594v-.913a1.587,1.587,0,0,1,.881-1.426l3.1-1.552,3.1,1.552a1.587,1.587,0,0,1,.881,1.426v.913a1.6,1.6,0,0,1-1.594,1.594h-.8v1.594h.8a3.16,3.16,0,0,0,2.07-.783l.238,2.377H27.279V43.376H25.685V56.128H13.814l-.125-3.756L12.1,52.213l.109,3.915H6.7Zm32.6,8.684-.566-3.676-.545-3.538a3.173,3.173,0,0,0-1.372-1.333l-3.02-1.509v-5.84l4.76,1.587a7.158,7.158,0,0,1,4.807,5.626l1.447,8.684Z" transform="translate(-4.819 -8.308)" fill="#00b4d8"/>
    <path id="Path_4338" data-name="Path 4338" d="M18.54,22.474a8.713,8.713,0,0,0,2.216,3.739l3.107,3.108a3.959,3.959,0,0,0,2.818,1.167h3.735a3.959,3.959,0,0,0,2.818-1.167l3.107-3.108a8.726,8.726,0,0,0,2.216-3.739,3.958,3.958,0,0,0,1.922-7.128H40.5V12.955a11.955,11.955,0,1,0-23.91,0v2.391h.025a3.958,3.958,0,0,0,1.922,7.128Zm16.675,2.613-3.107,3.108a2.378,2.378,0,0,1-1.691.7H26.681a2.376,2.376,0,0,1-1.691-.7l-3.107-3.108a7.129,7.129,0,0,1-2.1-5.072V16.143h5.894a10.244,10.244,0,0,0,5.264-1.449A10.246,10.246,0,0,0,36.2,16.143h1.112v3.872A7.129,7.129,0,0,1,35.215,25.087Zm3.657-4.3c.022-.256.037-.514.037-.775V16.289a2.376,2.376,0,0,1-.037,4.5ZM18.188,12.955a10.361,10.361,0,0,1,20.722,0v1.674a3.981,3.981,0,0,0-.8-.08H36.2a8.664,8.664,0,0,1-4.823-1.46l-.442-.295-.442.295a8.661,8.661,0,0,1-4.822,1.46H18.985a3.981,3.981,0,0,0-.8.08Zm0,3.335v3.725c0,.261.015.519.037.775a2.376,2.376,0,0,1-.037-4.5Z" transform="translate(-6.886 -1)" fill="#00b4d8"/>
  </g>
</svg>
