<svg xmlns="http://www.w3.org/2000/svg" width="35.939" height="21.378" viewBox="0 0 35.939 21.378">
  <g id="Group_2205" data-name="Group 2205" transform="translate(-0.396 -1001.749)">
    <path id="Path_22582" data-name="Path 22582" d="M1.224,1002.356a.28.28,0,0,0-.228.28v19.611a.28.28,0,0,0,.56,0v-8.965H4.919a1.231,1.231,0,0,1,.823.3,2.622,2.622,0,0,1,.63.858,14.445,14.445,0,0,1,.893,2.836,17.164,17.164,0,0,0,.893,2.942,3.18,3.18,0,0,0,.7,1.051,1.658,1.658,0,0,0,2.206,0,3.291,3.291,0,0,0,.718-1.051,19.232,19.232,0,0,0,.963-2.924,12.463,12.463,0,0,1,1.068-2.837,1.976,1.976,0,0,1,1.751-1.173h6.724a2.6,2.6,0,0,0,2.241-1.541,13.993,13.993,0,0,0,1.1-3.152,21.811,21.811,0,0,1,.946-3.047,2.987,2.987,0,0,1,.6-.928,1.015,1.015,0,0,1,1.436,0,2.913,2.913,0,0,1,.578.928,19.142,19.142,0,0,1,.858,3.029,16.213,16.213,0,0,0,.928,3.134,3.324,3.324,0,0,0,.77,1.1,1.8,1.8,0,0,0,1.191.455c2.369.006,2.521,0,2.521,0a.28.28,0,1,0,0-.56s-.152.006-2.521,0a1.149,1.149,0,0,1-.805-.315,2.878,2.878,0,0,1-.648-.928,15.994,15.994,0,0,1-.893-3.012,19.251,19.251,0,0,0-.893-3.134,3.347,3.347,0,0,0-.7-1.1,1.564,1.564,0,0,0-2.206,0,3.455,3.455,0,0,0-.718,1.1,21.783,21.783,0,0,0-.963,3.134,13.686,13.686,0,0,1-1.068,3.012,1.993,1.993,0,0,1-1.751,1.261H15.564a2.614,2.614,0,0,0-2.241,1.453,12.578,12.578,0,0,0-1.1,2.959,19.267,19.267,0,0,1-.946,2.837,2.832,2.832,0,0,1-.6.875,1.06,1.06,0,0,1-1.436,0,2.651,2.651,0,0,1-.578-.858,17.319,17.319,0,0,1-.858-2.854,14.445,14.445,0,0,0-.928-2.942,3.216,3.216,0,0,0-.788-1.051,1.815,1.815,0,0,0-1.173-.42H1.557v-10.086a.28.28,0,0,0-.333-.28Z" transform="translate(0)" fill="#fff" stroke="#fff" stroke-width="1.2"/>
  </g>
</svg>
