<svg xmlns="http://www.w3.org/2000/svg" width="151.977" height="54.036" viewBox="0 0 151.977 54.036"><g id="logo-2" transform="translate(0.002 0)"><g id="Layer_1" data-name="Layer 1" transform="translate(-0.002 0)"><path id="Path_22586" data-name="Path 22586" d="M105.94,50.694v-5.4H107.2l1.479,3.857c.142.358.243.628.3.8.074-.2.182-.486.338-.871l1.513-3.769h1.128v5.4h-.811V46.161l-1.8,4.532H108.6l-1.824-4.613v4.613Z" transform="translate(-34.382 -14.699)" fill="#3d72b6"></path><path id="Path_22587" data-name="Path 22587" d="M117,50.694v-5.4h4.573v.642h-3.735v1.662h3.492v.635h-3.492v1.844h3.891v.635Z" transform="translate(-37.971 -14.699)" fill="#3d72b6"></path><path id="Path_22588" data-name="Path 22588" d="M125.66,50.693v-5.4h2.182a5.856,5.856,0,0,1,1.121.081,2.209,2.209,0,0,1,1.655,1.3,3.121,3.121,0,0,1,.25,1.29,3.209,3.209,0,0,1-.169,1.094,2.58,2.58,0,0,1-.432.79,2.141,2.141,0,0,1-.574.486,2.485,2.485,0,0,1-.757.277,5.052,5.052,0,0,1-1.013.088Zm.838-.635h1.351a3.708,3.708,0,0,0,.979-.1,1.493,1.493,0,0,0,.567-.284,1.749,1.749,0,0,0,.466-.675,2.992,2.992,0,0,0,.162-1.047,2.222,2.222,0,0,0-.324-1.3,1.608,1.608,0,0,0-.79-.615,3.8,3.8,0,0,0-1.081-.108h-1.351Z" transform="translate(-40.782 -14.698)" fill="#3d72b6"></path><path id="Path_22589" data-name="Path 22589" d="M135.68,50.694v-5.4h.838v5.4Z" transform="translate(-44.034 -14.699)" fill="#3d72b6"></path><path id="Path_22590" data-name="Path 22590" d="M143.615,48.746l.838.182a2.378,2.378,0,0,1-.946,1.351,2.911,2.911,0,0,1-1.675.466,3.438,3.438,0,0,1-1.662-.358,2.324,2.324,0,0,1-.973-1.033,3.229,3.229,0,0,1-.338-1.452,2.823,2.823,0,0,1,.378-1.472,2.432,2.432,0,0,1,1.067-.966,3.607,3.607,0,0,1,1.533-.324,2.911,2.911,0,0,1,1.6.412,2.182,2.182,0,0,1,.919,1.162l-.824.169a1.7,1.7,0,0,0-.635-.865,1.965,1.965,0,0,0-1.054-.27,2.3,2.3,0,0,0-1.223.3,1.581,1.581,0,0,0-.675.8,2.743,2.743,0,0,0-.2,1.04,2.89,2.89,0,0,0,.236,1.2,1.56,1.56,0,0,0,.729.77,2.249,2.249,0,0,0,1.074.257,2.026,2.026,0,0,0,1.189-.344A1.743,1.743,0,0,0,143.615,48.746Z" transform="translate(-45.066 -14.649)" fill="#3d72b6"></path><path id="Path_22591" data-name="Path 22591" d="M148.68,50.694l2.432-5.4h.9l2.587,5.4h-.973l-.736-1.641h-2.641l-.675,1.641Zm1.824-2.222h2.148l-.675-1.5c-.2-.459-.351-.831-.446-1.121a6.177,6.177,0,0,1-.344,1.033Z" transform="translate(-48.253 -14.699)" fill="#3d72b6"></path><path id="Path_22592" data-name="Path 22592" d="M158.74,50.694v-5.4h.851v4.782H162.7v.635Z" transform="translate(-51.518 -14.699)" fill="#3d72b6"></path><path id="Path_22593" data-name="Path 22593" d="M175.418,48.749l.838.182a2.351,2.351,0,0,1-.946,1.351,2.884,2.884,0,0,1-1.668.466,3.377,3.377,0,0,1-1.662-.358A2.3,2.3,0,0,1,171,49.357a3.229,3.229,0,0,1-.331-1.452,2.762,2.762,0,0,1,.378-1.472,2.357,2.357,0,0,1,1.074-.959,3.566,3.566,0,0,1,1.533-.324,2.9,2.9,0,0,1,1.594.412,2.148,2.148,0,0,1,.9,1.162l-.824.169a1.655,1.655,0,0,0-.635-.865,1.938,1.938,0,0,0-1.054-.27,2.256,2.256,0,0,0-1.216.3,1.56,1.56,0,0,0-.675.8,2.742,2.742,0,0,0-.2,1.04,2.891,2.891,0,0,0,.236,1.2,1.587,1.587,0,0,0,.729.77,2.249,2.249,0,0,0,1.074.257,2.026,2.026,0,0,0,1.2-.344,1.736,1.736,0,0,0,.642-1.04Z" transform="translate(-55.389 -14.652)" fill="#3d72b6"></path><path id="Path_22594" data-name="Path 22594" d="M181.54,50.694v-5.4h4.573v.642h-3.735v1.662H185.9v.635h-3.5v1.844h3.884v.635Z" transform="translate(-58.918 -14.699)" fill="#3d72b6"></path><path id="Path_22595" data-name="Path 22595" d="M190.17,50.694v-5.4h.858l3.323,4.255V45.29h.8v5.4H194.3l-3.323-4.249V50.7Z" transform="translate(-61.719 -14.699)" fill="#3d72b6"></path><path id="Path_22596" data-name="Path 22596" d="M200.917,50.687V45.912H198.83V45.27h5.012v.642h-2.087v4.775Z" transform="translate(-64.529 -14.692)" fill="#3d72b6"></path><path id="Path_22597" data-name="Path 22597" d="M209,50.692v-5.4h2.8a4.154,4.154,0,0,1,1.283.149,1.4,1.4,0,0,1,.966,1.351,1.243,1.243,0,0,1-.439.973,2.33,2.33,0,0,1-1.351.5,2.418,2.418,0,0,1,.507.27,3.959,3.959,0,0,1,.675.723l1.1,1.472h-1.02l-.838-1.128c-.243-.324-.446-.574-.6-.743a1.858,1.858,0,0,0-.426-.365,1.479,1.479,0,0,0-.385-.142,2.574,2.574,0,0,0-.466,0h-.966v2.4Zm.838-3.026h1.8a3.127,3.127,0,0,0,.9-.1.959.959,0,0,0,.493-.324.81.81,0,0,0,.162-.486.75.75,0,0,0-.324-.628,1.675,1.675,0,0,0-1.027-.25h-2.026Z" transform="translate(-67.83 -14.697)" fill="#3d72b6"></path><path id="Path_22598" data-name="Path 22598" d="M218,50.694v-5.4h4.573v.642h-3.735v1.662h3.5v.635h-3.5v1.844h3.891v.635Z" transform="translate(-70.751 -14.699)" fill="#3d72b6"></path><path id="Path_22599" data-name="Path 22599" d="M17.48,13.395a13.441,13.441,0,0,0-3.053-1.351c-1.128-.344-2.3-.675-3.472-.959s-2.182-.567-3.019-.858a8.18,8.18,0,0,1-1.857-.871,2.8,2.8,0,0,1-.9-.946A2.594,2.594,0,0,1,4.91,7.2,2.553,2.553,0,0,1,5.4,5.674,3.506,3.506,0,0,1,6.754,4.58,7.808,7.808,0,0,1,8.72,3.9a14.678,14.678,0,0,1,2.29-.223,20.115,20.115,0,0,1,7.747,1.533l.709.344.068-4.005L19.2,1.426A23.441,23.441,0,0,0,10.928.075,17.73,17.73,0,0,0,6.916.487,12.739,12.739,0,0,0,3.451,1.838a7.619,7.619,0,0,0-2.5,2.3A5.809,5.809,0,0,0,0,7.444a5.7,5.7,0,0,0,.675,2.8,6.248,6.248,0,0,0,1.736,1.986,10.429,10.429,0,0,0,2.526,1.351,27.767,27.767,0,0,0,3.08.946l3.539.939a12.536,12.536,0,0,1,2.411.878,3.377,3.377,0,0,1,1.283,1.033,2.7,2.7,0,0,1,.358,1.554,3.107,3.107,0,0,1-1.878,2.641c-3.742,1.81-11.591-.986-12.347-1.554l-.8-.648L.54,23.871l.216.155a16.934,16.934,0,0,0,5.735,1.979,20.081,20.081,0,0,0,2.749.189,19.358,19.358,0,0,0,4.127-.432,12.435,12.435,0,0,0,3.587-1.351,7.8,7.8,0,0,0,2.56-2.324,5.876,5.876,0,0,0,1-3.377,5.8,5.8,0,0,0-.838-3.195,6.754,6.754,0,0,0-2.2-2.121Z" transform="translate(0.002 -0.014)" fill="#3d72b6"></path><path id="Path_22600" data-name="Path 22600" d="M47.919,2.4a9.672,9.672,0,0,0-3.107-1.142A19.244,19.244,0,0,0,41.225.93H32.89V25.874h4.127V15.162H41.8a15.117,15.117,0,0,0,3.006-.317,9.672,9.672,0,0,0,3.019-1.135,6.613,6.613,0,0,0,2.276-2.2A6.41,6.41,0,0,0,51,8a6.424,6.424,0,0,0-.838-3.377A6.424,6.424,0,0,0,47.919,2.4Zm-1.3,5.626a2.823,2.823,0,0,1-1.25,2.567,6.383,6.383,0,0,1-3.546.885h-4.8v-6.9H41.8a6.444,6.444,0,0,1,3.546.878,2.83,2.83,0,0,1,1.27,2.567Z" transform="translate(-10.673 -0.302)" fill="#3d72b6"></path><path id="Path_22601" data-name="Path 22601" d="M123.888,19.924,109.285.93H104.57V25.874h4.154V6.887l14.6,18.987h4.708V.93h-4.147Z" transform="translate(-33.937 -0.302)" fill="#3d72b6"></path><path id="Path_22602" data-name="Path 22602" d="M155.462,11.179V14.86h6.079v6.5a14.183,14.183,0,0,1-2.8.865,13.739,13.739,0,0,1-7.518-.365,9.6,9.6,0,0,1-3.276-1.979,8.976,8.976,0,0,1-2.121-2.992,9.293,9.293,0,0,1-.757-3.749,9.456,9.456,0,0,1,.757-3.789,8.78,8.78,0,0,1,2.121-2.972,9.956,9.956,0,0,1,3.2-1.959,11.28,11.28,0,0,1,7.795,0,8.632,8.632,0,0,1,3.08,1.912l.351.344,3.107-2.938-.405-.371a11.483,11.483,0,0,0-4.505-2.54A18.082,18.082,0,0,0,155.408,0a16.954,16.954,0,0,0-5.728.966,14.86,14.86,0,0,0-4.667,2.641,12.253,12.253,0,0,0-3.175,4.12,12.577,12.577,0,0,0-1.148,5.4,12.9,12.9,0,0,0,1.094,5.329,12.158,12.158,0,0,0,3.053,4.141,14.124,14.124,0,0,0,4.62,2.668,17.562,17.562,0,0,0,5.836.939,24.506,24.506,0,0,0,5.194-.554,20.142,20.142,0,0,0,4.924-1.729l.277-.142v-12.6Z" transform="translate(-45.659 0)" fill="#3d72b6"></path><path id="Path_22603" data-name="Path 22603" d="M83.228,25.456v.419h4.134V.93H83.228V21.68H81.877l-2.229,2.769L73.09,14.716a8.74,8.74,0,0,0,4.33-2.026,6.025,6.025,0,0,0,1.918-4.634,6.457,6.457,0,0,0-1.027-3.85,6.437,6.437,0,0,0-2.628-2.148,11.314,11.314,0,0,0-3.526-.919A36.339,36.339,0,0,0,68.314.93H61.06V25.874h4.147V15.162h3.242L77.3,27.36l-7.43,9.2h4.154l5.289-6.4,4.667,6.4h3.87l-6.221-9.179ZM74.967,8.029a2.7,2.7,0,0,1-.621,1.932,4.005,4.005,0,0,1-1.729,1.033,9.456,9.456,0,0,1-2.445.419c-.919.041-1.817.068-2.7.068H65.207v-6.9h3.918a20.189,20.189,0,0,1,2.236.128,6.174,6.174,0,0,1,1.891.513,3.29,3.29,0,0,1,1.277,1.033,3.04,3.04,0,0,1,.439,1.77Z" transform="translate(-19.816 -0.302)" fill="#3d72b6"></path><path id="Path_22604" data-name="Path 22604" d="M122.247,70.663a2.1,2.1,0,0,0,2.134,2.141,2.2,2.2,0,0,0,1.77-.865l.831.743a3.3,3.3,0,0,1-2.6,1.223,3.222,3.222,0,1,1,0-6.437,3.256,3.256,0,0,1,2.29.9l-.824.811a2.168,2.168,0,0,0-1.52-.675,2.087,2.087,0,0,0-2.08,2.161Z" transform="translate(-39.273 -21.896)" fill="#585a58"></path><path id="Path_22605" data-name="Path 22605" d="M132.324,70.279a2.249,2.249,0,1,1-1.641.634,2.256,2.256,0,0,1,1.641-.634Zm0,3.438a1.182,1.182,0,1,0-1.141-1.182,1.128,1.128,0,0,0,1.141,1.182Z" transform="translate(-42.19 -22.809)" fill="#585a58"></path><path id="Path_22606" data-name="Path 22606" d="M137.49,74.7V70.368H138.6v.351a1.736,1.736,0,0,1,1.175-.439,1.9,1.9,0,0,1,1.452.676,2.168,2.168,0,0,1,1.54-.676,2.026,2.026,0,0,1,1.52.675,2.141,2.141,0,0,1,.432,1.432v2.3h-1.162V72.36a1.027,1.027,0,0,0-.209-.743.878.878,0,0,0-.675-.263,1.351,1.351,0,0,0-1.047.567,3.382,3.382,0,0,1,.041.486v2.3h-1.135V72.36a1.027,1.027,0,0,0-.216-.743.858.858,0,0,0-.675-.263,1.351,1.351,0,0,0-1.006.534V74.7Z" transform="translate(-44.621 -22.809)" fill="#585a58"></path><path id="Path_22607" data-name="Path 22607" d="M149.24,70.368h1.115v.351a2.026,2.026,0,0,1,1.27-.439,2.168,2.168,0,0,1,2.128,2.256,2.283,2.283,0,0,1-.547,1.52,2.188,2.188,0,0,1-1.641.763,1.857,1.857,0,0,1-1.162-.392v2.418H149.24Zm1.189,2.817a1.277,1.277,0,0,0,1.047.534,1.182,1.182,0,0,0,0-2.364,1.351,1.351,0,0,0-1.074.534Z" transform="translate(-48.435 -22.809)" fill="#585a58"></path><path id="Path_22608" data-name="Path 22608" d="M160.831,74.7H159.71v-.351a1.79,1.79,0,0,1-1.2.439,2.188,2.188,0,0,1-1.635-.736,2.323,2.323,0,0,1-.554-1.52,2.168,2.168,0,0,1,2.128-2.256,1.979,1.979,0,0,1,1.263.439v-.351h1.121Zm-1.162-2.817a1.351,1.351,0,0,0-1.074-.534,1.182,1.182,0,1,0,0,2.364,1.277,1.277,0,0,0,1.047-.534Z" transform="translate(-50.732 -22.809)" fill="#585a58"></path><path id="Path_22609" data-name="Path 22609" d="M164,74.7V70.368h1.121v.351a1.9,1.9,0,0,1,1.223-.439,1.959,1.959,0,0,1,1.5.675,2.161,2.161,0,0,1,.446,1.52v2.209h-1.162v-2.3a1.054,1.054,0,0,0-.257-.817.926.926,0,0,0-.675-.236,1.392,1.392,0,0,0-1.054.534v2.817Z" transform="translate(-53.225 -22.809)" fill="#585a58"></path><path id="Path_22610" data-name="Path 22610" d="M171.123,76.888l1.2-2.58-1.939-3.9h1.277l1.27,2.6,1.175-2.6h1.223l-2.985,6.478Z" transform="translate(-55.296 -22.851)" fill="#585a58"></path><path id="Path_22611" data-name="Path 22611" d="M42.65,67.57h1.209l1.3,3.9,1.351-3.9h.851l1.351,3.9,1.3-3.9h1.216l-2.074,6.255h-.8l-1.4-3.938-1.351,3.938h-.871Z" transform="translate(-13.841 -21.93)" fill="#585a58"></path><path id="Path_22612" data-name="Path 22612" d="M57.422,68.637v1.3h1.918v1.074H57.422v1.743h2.634v1.074H56.22V67.57h3.755v1.067Z" transform="translate(-18.245 -21.93)" fill="#585a58"></path><path id="Path_22613" data-name="Path 22613" d="M63.12,67.57h1.209v5.181h2.634v1.074H63.12Z" transform="translate(-20.485 -21.93)" fill="#585a58"></path><path id="Path_22614" data-name="Path 22614" d="M69.82,67.57h1.209v5.181h2.634v1.074H69.82Z" transform="translate(-22.659 -21.93)" fill="#585a58"></path><path id="Path_22615" data-name="Path 22615" d="M83.966,71.008H80.839v2.817H79.63V67.57h1.209v2.364h3.127V67.57h1.209v6.255H83.966Z" transform="translate(-25.843 -21.93)" fill="#585a58"></path><path id="Path_22616" data-name="Path 22616" d="M92.514,74.028a2.351,2.351,0,0,1-1.776.8,2.168,2.168,0,0,1-2.27-2.256,2.134,2.134,0,0,1,2.107-2.256A2.1,2.1,0,0,1,92.6,72.535a1.73,1.73,0,0,1,0,.331H89.6a1.135,1.135,0,0,0,1.169,1.027,1.52,1.52,0,0,0,1.087-.5ZM91.434,72a.858.858,0,0,0-.858-.757A.939.939,0,0,0,89.65,72Z" transform="translate(-28.71 -22.822)" fill="#585a58"></path><path id="Path_22617" data-name="Path 22617" d="M99.525,74.7H98.376v-.351a1.79,1.79,0,0,1-1.2.439,2.188,2.188,0,0,1-1.635-.736,2.324,2.324,0,0,1-.54-1.52,2.168,2.168,0,0,1,2.128-2.256,1.979,1.979,0,0,1,1.263.439v-.351h1.121Zm-1.148-2.817a1.351,1.351,0,0,0-1.074-.534,1.182,1.182,0,1,0,0,2.364,1.277,1.277,0,0,0,1.047-.534Z" transform="translate(-30.83 -22.809)" fill="#585a58"></path><path id="Path_22618" data-name="Path 22618" d="M103.9,73.779H102.74V67.43H103.9Z" transform="translate(-33.343 -21.884)" fill="#585a58"></path><path id="Path_22619" data-name="Path 22619" d="M106.173,74.169V70.791H105.16v-.959h1.013v-1.2h1.162v1.2h1v.986h-1V74.2Z" transform="translate(-34.129 -22.274)" fill="#585a58"></path><path id="Path_22620" data-name="Path 22620" d="M111.692,73.779H110.53V67.43h1.162v2.324a1.9,1.9,0,0,1,1.175-.4,1.972,1.972,0,0,1,1.506.675,2.2,2.2,0,0,1,.446,1.52v2.209h-1.162v-2.3a1.047,1.047,0,0,0-.263-.817.905.905,0,0,0-.675-.236,1.351,1.351,0,0,0-1.054.534Z" transform="translate(-35.871 -21.884)" fill="#585a58"></path><path id="Path_22621" data-name="Path 22621" d="M31.37,73.825l2.7-6.255h.844l2.7,6.255h-1.3l-.594-1.351H33.221l-.594,1.351Zm2.3-2.459h1.594l-.77-1.851Z" transform="translate(-10.18 -21.93)" fill="#585a58"></path></g></g></svg>